<svg width="30" height="30" viewBox="0 0 30 30" fill="none" xmlns="http://www.w3.org/2000/svg">
<g clip-path="url(#clip0_6_1329)">
<path d="M14.4297 0.458008C14.3679 0.544632 14.2806 0.50984 14.1997 0.507C14.1841 0.49493 14.1791 0.483569 14.1855 0.472919C14.1919 0.462978 14.1976 0.458008 14.2032 0.458008H14.4297V0.458008Z" fill="#505050"/>
<path d="M29.5019 14.4557C29.4146 14.3953 29.4508 14.3073 29.4501 14.227C29.4685 14.2029 29.4856 14.2043 29.5019 14.2292V14.4557Z" fill="black"/>
<path d="M29.4515 15.7047C29.4494 15.6244 29.4146 15.5364 29.5019 15.4753V15.7018C29.4863 15.726 29.4699 15.7281 29.4515 15.704V15.7047Z" fill="black"/>
<path d="M15.6785 0.50629C15.6146 0.513391 15.5479 0.530431 15.506 0.458008H15.6757C15.6934 0.467948 15.6998 0.478599 15.6941 0.489249C15.6884 0.50061 15.6835 0.50629 15.6778 0.50629H15.6785Z" fill="black"/>
<path d="M14.2032 0.458008C14.2032 0.47444 14.2032 0.490872 14.1997 0.507304C14.1532 0.512305 14.1032 0.525164 14.0889 0.458008H14.2032V0.458008Z" fill="#7A7A7A"/>
<path d="M15.6785 0.506589C15.6771 0.490157 15.6764 0.47444 15.6764 0.458008H15.7907C15.8078 0.467295 15.8142 0.478012 15.8099 0.488728C15.8049 0.500159 15.7999 0.505875 15.7942 0.505875H15.6792L15.6785 0.506589Z" fill="#585858"/>
<path d="M15.7928 0.505875C15.7907 0.490157 15.79 0.473725 15.7892 0.458008H15.9035C15.89 0.527308 15.84 0.513019 15.7928 0.505875V0.505875Z" fill="#7A7A7A"/>
<path d="M29.4529 14.1134C29.4486 14.067 29.4315 14.0155 29.5022 14.0027V14.117C29.4837 14.1427 29.4672 14.1434 29.4529 14.1134V14.1134Z" fill="#8D8D8D"/>
<path d="M29.4529 14.1128C29.4694 14.1149 29.4858 14.1164 29.5022 14.1164V14.2307C29.4851 14.2307 29.4672 14.2307 29.4501 14.2285C29.4508 14.19 29.4522 14.1514 29.4529 14.1128Z" fill="#606060"/>
<path d="M29.4515 15.7045C29.4679 15.7031 29.4851 15.7024 29.5022 15.7024V15.8167C29.4872 15.8417 29.4708 15.8417 29.4529 15.8203C29.4529 15.7817 29.4522 15.7438 29.4515 15.7053V15.7045Z" fill="#606060"/>
<path d="M29.453 15.819C29.4694 15.8169 29.4858 15.8161 29.5022 15.8154V15.9297C29.4301 15.9176 29.448 15.8654 29.453 15.819V15.819Z" fill="#8D8D8D"/>
<path d="M29.5022 13.8322C29.4518 13.5454 29.4745 13.2528 29.4362 12.9667C29.2296 11.411 28.7759 9.92704 28.0795 8.52117C27.1636 6.67153 25.9113 5.08247 24.3224 3.7618C22.3431 2.11665 20.0861 1.06935 17.5538 0.607115C17.0625 0.517651 16.5648 0.521911 16.0721 0.458008H15.9024C15.8662 0.49706 15.8186 0.484279 15.7739 0.487119C15.7391 0.487119 15.705 0.487119 15.6703 0.487119C15.6149 0.480019 15.5538 0.50629 15.5056 0.458008H14.4293C14.3668 0.51197 14.2915 0.477179 14.2234 0.487119C14.1772 0.483569 14.1275 0.49919 14.0892 0.458008H13.8627C13.5759 0.50842 13.2827 0.486409 12.9959 0.524041C11.4383 0.729951 9.95163 1.18224 8.54664 1.88305C6.96203 2.67403 5.56415 3.71494 4.34871 5.01217C3.15884 6.28172 2.24514 7.72096 1.5501 9.30789C0.54481 11.607 0.313367 14.0246 0.503633 16.4913C0.636393 18.2117 1.1362 19.8476 1.90365 21.3934C2.68672 22.9711 3.71899 24.3642 5.00613 25.5769C6.72491 27.1965 8.71774 28.3084 10.9711 28.9894C12.7921 29.5396 14.6565 29.5886 16.5243 29.4573C18.2452 29.3366 19.8788 28.8239 21.4258 28.0606C23.2965 27.1376 24.901 25.8687 26.23 24.2598C27.6861 22.4975 28.6744 20.503 29.199 18.2756C29.3637 17.5762 29.4376 16.8676 29.5022 16.1562V15.9297C29.461 15.892 29.4766 15.8416 29.4731 15.7955C29.4731 15.7593 29.4731 15.7231 29.4731 15.6868C29.4837 15.6165 29.4475 15.5399 29.5022 15.476V14.4556C29.4475 14.3917 29.4837 14.3151 29.4731 14.2448C29.4731 14.2085 29.4731 14.1723 29.4731 14.1361C29.4766 14.09 29.461 14.0403 29.5022 14.0019V13.8322V13.8322ZM15.0043 27.5423C8.08233 27.5515 2.40559 21.872 2.42191 14.9527C2.43824 8.02485 8.08943 2.3822 15.0029 2.39001C21.9249 2.39782 27.5704 8.04686 27.5711 14.9654C27.5718 21.8833 21.927 27.5331 15.0043 27.5423V27.5423Z" fill="black"/>
<path d="M12.6903 18.3096C12.7968 18.1783 12.8565 18.0909 12.9296 18.0178C15.6849 15.26 18.4423 12.5044 21.1962 9.74518C21.505 9.43561 21.8444 9.26236 22.2867 9.40578C22.9107 9.60885 23.1543 10.3473 22.7716 10.8791C22.7006 10.9778 22.6112 11.0644 22.5245 11.1511C19.5286 14.1488 16.5319 17.1459 13.5345 20.1429C12.9445 20.733 12.4511 20.7323 11.8597 20.1408C10.3844 18.6661 8.90985 17.1899 7.43387 15.7159C7.27129 15.554 7.12362 15.385 7.06825 15.1556C6.96672 14.7396 7.13569 14.3235 7.49208 14.0998C7.85274 13.8733 8.28297 13.9031 8.62161 14.1822C8.70184 14.2482 8.77425 14.3228 8.84738 14.3966C10.0557 15.6044 11.264 16.8122 12.4702 18.0228C12.5434 18.0959 12.5973 18.1875 12.6896 18.3103L12.6903 18.3096Z" fill="black"/>
</g>
<defs>
<clipPath id="clip0_6_1329">
<rect width="29.0596" height="29.0596" fill="white" transform="translate(0.442291 0.458008)"/>
</clipPath>
</defs>
</svg>
