<svg width="14" height="13" viewBox="0 0 14 13" fill="none" xmlns="http://www.w3.org/2000/svg">
<g clip-path="url(#clip0_6_2419)">
<path d="M13.7044 11.5957C13.0107 11.151 12.3542 10.6577 11.7822 10.0517C11.6963 9.96072 11.687 9.89274 11.7513 9.78598C11.8955 9.54719 12.0161 9.29464 12.1233 9.03618C12.5517 8.00236 12.6931 6.9236 12.5875 5.80887C12.5181 5.07536 12.3233 4.37669 12.015 3.71117C11.6195 2.85743 11.0678 2.12645 10.3639 1.51908C9.85843 1.0828 9.30288 0.726579 8.68687 0.477113C7.75793 0.101511 6.79835 -0.0636754 5.7972 0.0217271C5.23863 0.0694851 4.69593 0.17989 4.17128 0.374012C3.2035 0.731916 2.36839 1.29743 1.66512 2.07363C0.929027 2.88608 0.430092 3.82635 0.15792 4.89838C0.0714819 5.23858 0.030451 5.58413 -0.000458883 5.9322V6.04457C0.0195095 6.06339 0.0118504 6.08839 0.0134916 6.11115C0.0134916 6.12913 0.0134916 6.14711 0.0134916 6.16509C0.0134916 6.18953 0.0134916 6.21369 0.0134916 6.23813C0.00966206 6.26735 0.0236125 6.29965 -0.000732422 6.32522V6.74633C0.0225184 6.77021 0.0099356 6.80055 0.0134916 6.8278C0.0134916 6.84494 0.0134916 6.86207 0.0134916 6.87921C0.0121239 6.90112 0.0181418 6.925 -0.000732422 6.94298V7.05535C0.0351012 7.35538 0.0531548 7.6571 0.120172 7.95405C0.374837 9.08338 0.885534 10.0734 1.65035 10.9218C2.27128 11.6106 3.00738 12.1371 3.85179 12.5023C4.89288 12.9526 5.97774 13.0835 7.09213 12.9492C7.82659 12.8608 8.52685 12.6391 9.18115 12.2798C9.29686 12.2163 9.39588 12.2121 9.5146 12.2756C9.83956 12.4498 10.1864 12.5661 10.5456 12.6383C11.12 12.754 11.6983 12.7967 12.2842 12.7433C12.7435 12.7015 13.1975 12.6354 13.645 12.522C13.8444 12.4714 13.9809 12.3632 13.999 12.1382V11.9696C13.9782 11.78 13.8453 11.6859 13.7038 11.5952L13.7044 11.5957ZM3.47294 4.19156C3.50029 4.18987 3.52765 4.19016 3.555 4.19016C5.38169 4.19016 7.20839 4.191 9.03536 4.18875C9.22437 4.18875 9.37509 4.24662 9.46454 4.42557C9.6035 4.70397 9.41475 5.02845 9.10401 5.03407C8.69863 5.04137 8.29324 5.03631 7.88786 5.03659C7.35501 5.03659 6.82188 5.03659 6.28902 5.03659C5.36884 5.03659 4.44865 5.03744 3.52847 5.03603C3.26149 5.03575 3.08369 4.86354 3.08397 4.6138C3.08397 4.38512 3.24946 4.20561 3.47376 4.19156H3.47294ZM9.15817 8.80273C9.09991 8.81144 9.04028 8.812 8.9812 8.81228C8.08399 8.81285 7.18678 8.81257 6.2893 8.81257C5.37841 8.81257 4.46753 8.81369 3.55664 8.812C3.25274 8.81144 3.07056 8.63389 3.08451 8.36027C3.09381 8.1757 3.21663 8.02119 3.39279 7.98017C3.44996 7.96697 3.50987 7.96163 3.56868 7.96163C5.38607 7.96079 7.20319 7.96079 9.02058 7.96107C9.27333 7.96107 9.43062 8.06361 9.48998 8.26307C9.56493 8.51422 9.41147 8.76537 9.15817 8.80273ZM9.10319 6.91938C8.71614 6.92809 8.3288 6.92247 7.94175 6.92275C7.39057 6.92275 6.83938 6.92275 6.2882 6.92275C5.37267 6.92275 4.45713 6.9236 3.5416 6.92219C3.26751 6.92163 3.08944 6.7601 3.08342 6.51428C3.07768 6.28448 3.23387 6.10272 3.46008 6.07772C3.49619 6.07379 3.53284 6.07491 3.56923 6.07491C5.38662 6.07491 7.20429 6.07575 9.02168 6.0735C9.22027 6.0735 9.38166 6.13222 9.47083 6.32494C9.59939 6.60165 9.41092 6.91264 9.10319 6.91966V6.91938Z" fill="black"/>
</g>
<defs>
<clipPath id="clip0_6_2419">
<rect width="14" height="13" fill="white"/>
</clipPath>
</defs>
</svg>
