<svg width="14" height="13" viewBox="0 0 14 13" fill="none" xmlns="http://www.w3.org/2000/svg">
<g clip-path="url(#clip0_6_2280)">
<path d="M13.7044 11.5958C13.0107 11.1511 12.3542 10.6578 11.7822 10.0518C11.6963 9.96078 11.687 9.8928 11.7513 9.78605C11.8955 9.54726 12.0161 9.2947 12.1233 9.03625C12.5517 8.00243 12.6931 6.92366 12.5875 5.80893C12.5181 5.07542 12.3233 4.37675 12.015 3.71123C11.6195 2.85749 11.0678 2.12651 10.3639 1.51914C9.85843 1.08286 9.30288 0.72664 8.68687 0.477174C7.75793 0.101572 6.79835 -0.0636143 5.7972 0.0217882C5.23863 0.0695461 4.69593 0.179951 4.17128 0.374073C3.2035 0.731977 2.36839 1.29749 1.66512 2.0737C0.929027 2.88614 0.430092 3.82641 0.15792 4.89844C0.0714819 5.23864 0.030451 5.58419 -0.000458883 5.93226V6.04463C0.0195095 6.06345 0.0118504 6.08845 0.0134916 6.11121C0.0134916 6.12919 0.0134916 6.14717 0.0134916 6.16515C0.0134916 6.18959 0.0134916 6.21375 0.0134916 6.23819C0.00966206 6.26741 0.0236125 6.29971 -0.000732422 6.32528V6.74639C0.0225184 6.77027 0.0099356 6.80061 0.0134916 6.82786C0.0134916 6.845 0.0134916 6.86213 0.0134916 6.87927C0.0121239 6.90118 0.0181418 6.92506 -0.000732422 6.94304V7.05541C0.0351012 7.35545 0.0531548 7.65716 0.120172 7.95411C0.374837 9.08344 0.885534 10.0734 1.65035 10.9218C2.27128 11.6107 3.00738 12.1371 3.85179 12.5024C4.89288 12.9527 5.97774 13.0836 7.09213 12.9493C7.82659 12.8608 8.52685 12.6392 9.18115 12.2799C9.29686 12.2164 9.39588 12.2122 9.5146 12.2756C9.83956 12.4498 10.1864 12.5661 10.5456 12.6383C11.12 12.7541 11.6983 12.7968 12.2842 12.7434C12.7435 12.7015 13.1975 12.6355 13.645 12.522C13.8444 12.4714 13.9809 12.3633 13.999 12.1383V11.9697C13.9782 11.7801 13.8453 11.686 13.7038 11.5952L13.7044 11.5958ZM3.47294 4.19162C3.50029 4.18994 3.52765 4.19022 3.555 4.19022C5.38169 4.19022 7.20839 4.19106 9.03536 4.18881C9.22437 4.18881 9.37509 4.24668 9.46454 4.42563C9.6035 4.70404 9.41475 5.02851 9.10401 5.03413C8.69863 5.04143 8.29324 5.03637 7.88786 5.03666C7.35501 5.03666 6.82188 5.03666 6.28902 5.03666C5.36884 5.03666 4.44865 5.0375 3.52847 5.03609C3.26149 5.03581 3.08369 4.8636 3.08397 4.61386C3.08397 4.38518 3.24946 4.20567 3.47376 4.19162H3.47294ZM9.15817 8.80279C9.09991 8.8115 9.04028 8.81206 8.9812 8.81234C8.08399 8.81291 7.18678 8.81263 6.2893 8.81263C5.37841 8.81263 4.46753 8.81375 3.55664 8.81206C3.25274 8.8115 3.07056 8.63395 3.08451 8.36033C3.09381 8.17576 3.21663 8.02125 3.39279 7.98023C3.44996 7.96703 3.50987 7.96169 3.56868 7.96169C5.38607 7.96085 7.20319 7.96085 9.02058 7.96113C9.27333 7.96113 9.43062 8.06367 9.48998 8.26313C9.56493 8.51428 9.41147 8.76543 9.15817 8.80279ZM9.10319 6.91944C8.71614 6.92815 8.3288 6.92253 7.94175 6.92281C7.39057 6.92281 6.83938 6.92281 6.2882 6.92281C5.37267 6.92281 4.45713 6.92366 3.5416 6.92225C3.26751 6.92169 3.08944 6.76016 3.08342 6.51434C3.07768 6.28454 3.23387 6.10278 3.46008 6.07778C3.49619 6.07385 3.53284 6.07497 3.56923 6.07497C5.38662 6.07497 7.20429 6.07581 9.02168 6.07357C9.22027 6.07357 9.38166 6.13228 9.47083 6.325C9.59939 6.60171 9.41092 6.9127 9.10319 6.91972V6.91944Z" fill="black"/>
</g>
<defs>
<clipPath id="clip0_6_2280">
<rect width="14" height="13" fill="white"/>
</clipPath>
</defs>
</svg>
