<svg width="23" height="23" viewBox="0 0 23 23" fill="none" xmlns="http://www.w3.org/2000/svg">
<g clip-path="url(#clip0_6_1324)">
<path d="M11.3136 22.2053C9.31258 22.2053 7.3109 22.2243 5.31045 22.1998C3.36992 22.1759 1.93377 21.2859 1.0332 19.5605C0.706722 18.9351 0.563047 18.2564 0.558767 17.5532C0.55143 16.1867 0.553876 14.8196 0.557544 13.4525C0.558767 12.968 0.838781 12.5839 1.25941 12.4632C1.67149 12.345 2.10618 12.5018 2.34646 12.8553C2.47546 13.0451 2.51764 13.2565 2.51703 13.4843C2.51398 14.7975 2.5152 16.1114 2.51581 17.4246C2.51703 19.0557 3.70067 20.2453 5.32696 20.2453C9.32175 20.2465 13.3165 20.2465 17.3113 20.2453C18.926 20.2453 20.1157 19.0557 20.1176 17.4424C20.1194 16.0985 20.1151 14.7541 20.1194 13.4102C20.1213 12.9055 20.4557 12.5227 20.9485 12.4387C21.4058 12.361 21.8539 12.6286 22.0147 13.0758C22.0648 13.2142 22.0777 13.3575 22.0777 13.5033C22.0777 14.8245 22.0838 16.1457 22.0758 17.4669C22.0618 19.8655 20.4159 21.7802 18.048 22.1532C17.7852 22.1943 17.5155 22.2022 17.249 22.2029C15.2705 22.2065 13.2927 22.2053 11.3143 22.2053H11.3136Z" fill="black"/>
<path d="M12.2906 4.03745C12.2906 5.3568 12.2906 6.61614 12.2906 7.87547C12.2906 10.6704 12.2918 13.4647 12.29 16.2596C12.29 16.9003 11.848 17.3443 11.2562 17.3113C10.7756 17.2843 10.3788 16.8929 10.3476 16.4139C10.3415 16.3153 10.3428 16.2155 10.3428 16.1163C10.3428 12.1913 10.3428 8.26625 10.3428 4.34187V4.0742C10.2413 4.10237 10.196 4.17465 10.141 4.22916C8.83324 5.53505 7.52488 6.84032 6.2208 8.14926C5.91327 8.45797 5.56233 8.58721 5.14048 8.44572C4.50097 8.23073 4.2772 7.43201 4.70395 6.90831C4.75225 6.8495 4.80788 6.79622 4.86169 6.74231C6.75148 4.85209 8.64188 2.96248 10.5317 1.07287C11.041 0.563258 11.5863 0.558357 12.0907 1.06246C13.9921 2.96248 15.8917 4.86434 17.7949 6.76253C18.0688 7.03571 18.2113 7.34809 18.1245 7.73214C17.9527 8.4886 17.0533 8.75933 16.4908 8.22031C16.0494 7.79829 15.6245 7.35851 15.1929 6.92668C14.2911 6.02506 13.3899 5.12344 12.4875 4.22181C12.4355 4.17036 12.3805 4.12197 12.2906 4.03745Z" fill="black"/>
</g>
<defs>
<clipPath id="clip0_6_1324">
<rect width="21.5256" height="21.5256" fill="white" transform="translate(0.553894 0.687012)"/>
</clipPath>
</defs>
</svg>
