<svg width="23" height="23" viewBox="0 0 23 23" fill="none" xmlns="http://www.w3.org/2000/svg">
<g clip-path="url(#clip0_6_1223)">
<path d="M11.3242 22.2053C9.32314 22.2053 7.32146 22.2243 5.32101 22.1998C3.38047 22.1759 1.94433 21.2859 1.04376 19.5605C0.717281 18.9351 0.573606 18.2564 0.569326 17.5532C0.561989 16.1867 0.564435 14.8196 0.568103 13.4525C0.569326 12.968 0.84934 12.5839 1.26997 12.4632C1.68205 12.345 2.11674 12.5018 2.35702 12.8553C2.48602 13.0451 2.5282 13.2565 2.52759 13.4843C2.52454 14.7975 2.52576 16.1114 2.52637 17.4246C2.52759 19.0557 3.71123 20.2453 5.33752 20.2453C9.33231 20.2465 13.3271 20.2465 17.3219 20.2453C18.9366 20.2453 20.1263 19.0557 20.1281 17.4424C20.13 16.0985 20.1257 14.7541 20.13 13.4102C20.1318 12.9055 20.4662 12.5227 20.959 12.4387C21.4163 12.361 21.8645 12.6286 22.0253 13.0758C22.0754 13.2142 22.0882 13.3575 22.0882 13.5033C22.0882 14.8245 22.0944 16.1457 22.0864 17.4669C22.0723 19.8655 20.4265 21.7802 18.0586 22.1532C17.7957 22.1943 17.5261 22.2022 17.2595 22.2029C15.2811 22.2065 13.3033 22.2053 11.3248 22.2053H11.3242Z" fill="black"/>
<path d="M12.3012 4.03745C12.3012 5.3568 12.3012 6.61614 12.3012 7.87547C12.3012 10.6704 12.3025 13.4647 12.3006 16.2596C12.3006 16.9003 11.8586 17.3443 11.2668 17.3113C10.7862 17.2843 10.3894 16.8929 10.3583 16.4139C10.3521 16.3153 10.3534 16.2155 10.3534 16.1163C10.3534 12.1913 10.3534 8.26625 10.3534 4.34187V4.0742C10.2519 4.10237 10.2066 4.17465 10.1516 4.22916C8.84386 5.53505 7.5355 6.84032 6.23142 8.14926C5.92389 8.45797 5.57295 8.58721 5.1511 8.44572C4.51159 8.23073 4.28782 7.43201 4.71457 6.90831C4.76287 6.84951 4.81851 6.79622 4.87231 6.74231C6.7621 4.85209 8.6525 2.96248 10.5423 1.07287C11.0516 0.563258 11.5969 0.558357 12.1013 1.06246C14.0027 2.96248 15.9023 4.86434 17.8055 6.76253C18.0794 7.03571 18.2219 7.34809 18.1351 7.73214C17.9633 8.4886 17.0639 8.75933 16.5015 8.22031C16.06 7.79829 15.6351 7.35851 15.2035 6.92668C14.3017 6.02506 13.4005 5.12344 12.4981 4.22181C12.4461 4.17036 12.3911 4.12197 12.3012 4.03745V4.03745Z" fill="black"/>
</g>
<defs>
<clipPath id="clip0_6_1223">
<rect width="21.5256" height="21.5256" fill="white" transform="translate(0.564453 0.687012)"/>
</clipPath>
</defs>
</svg>
