<svg width="23" height="23" viewBox="0 0 23 23" fill="none" xmlns="http://www.w3.org/2000/svg">
<g clip-path="url(#clip0_6_1319)">
<path d="M22.1143 4.58252C22.1143 3.12547 21.1338 2.14875 19.6742 2.14747C18.7618 2.14683 17.8486 2.14233 16.9362 2.15196C16.7654 2.15389 16.714 2.1083 16.73 1.94134C16.7455 1.77438 16.7345 1.60549 16.7333 1.43725C16.7288 0.952421 16.4032 0.606942 15.9576 0.610153C15.5196 0.613364 15.2011 0.954348 15.196 1.42569C15.1941 1.60164 15.1851 1.77887 15.1986 1.95354C15.2108 2.10958 15.162 2.15325 15.004 2.15132C14.3554 2.14169 13.7069 2.14747 13.059 2.14747C11.2815 2.14747 9.50411 2.1449 7.72732 2.15196C7.55266 2.15261 7.48652 2.11857 7.5045 1.93299C7.52312 1.74291 7.51413 1.54898 7.50643 1.35698C7.48973 0.938936 7.15647 0.614648 6.74807 0.610153C6.32747 0.605658 5.98714 0.932514 5.97237 1.36147C5.96595 1.54513 5.95953 1.73071 5.97365 1.91373C5.98778 2.09224 5.94347 2.15518 5.74634 2.15261C4.84992 2.14041 3.95286 2.14683 3.05644 2.14747C1.56476 2.14747 0.589355 3.11776 0.589355 4.60371C0.589355 9.63177 0.589355 14.6592 0.589355 19.6873C0.589355 21.1584 1.56797 22.1351 3.04038 22.1358C5.8022 22.1358 8.56467 22.1358 11.3265 22.1358C14.0883 22.1358 16.8822 22.1358 19.6608 22.1358C21.1383 22.1358 22.1143 21.1636 22.1143 19.6898C22.1143 14.6541 22.115 9.61829 22.1143 4.58252ZM20.5771 19.7052C20.5771 20.3076 20.283 20.5985 19.6749 20.5985C14.1268 20.5985 8.57815 20.5985 3.03011 20.5985C2.42393 20.5985 2.12727 20.3057 2.12727 19.7065C2.12727 15.9833 2.12919 12.2607 2.12213 8.53754C2.12213 8.33591 2.17157 8.29288 2.36871 8.29352C5.36298 8.30059 8.35726 8.29866 11.3515 8.29866C14.3458 8.29866 17.3401 8.30059 20.3344 8.29417C20.5302 8.29417 20.5822 8.33398 20.5822 8.53754C20.5752 12.2607 20.5771 15.9833 20.5771 19.7065V19.7052ZM20.3581 6.76455C17.3478 6.75878 14.3381 6.7607 11.3278 6.7607C8.31744 6.7607 5.35528 6.75878 2.36935 6.76584C2.17222 6.76584 2.11764 6.72474 2.12213 6.52182C2.1369 5.85783 2.12598 5.19321 2.12791 4.52858C2.12919 4.00137 2.43742 3.68671 2.95883 3.68671C8.55503 3.68543 14.1506 3.68543 19.7468 3.68671C20.2637 3.68671 20.5758 4.00586 20.5771 4.52986C20.579 5.2022 20.5694 5.87517 20.5829 6.54751C20.5867 6.73373 20.5315 6.76584 20.3581 6.7652V6.76455Z" fill="black"/>
<path d="M15.9794 11.3497C15.9839 11.6092 15.8689 11.8089 15.6756 11.9739C14.6174 12.8793 13.5611 13.7867 12.5035 14.6928C11.7984 15.297 11.0947 15.9026 10.3877 16.5037C9.96964 16.8588 9.585 16.8433 9.201 16.4606C8.47539 15.7369 7.75106 15.0126 7.02738 14.2869C6.66842 13.9267 6.65109 13.4586 6.9805 13.1388C7.30221 12.8273 7.76069 12.8511 8.11323 13.2023C8.64684 13.7334 9.18238 14.2619 9.70765 14.8007C9.82195 14.9175 9.88295 14.922 10.0094 14.8129C11.5602 13.474 13.118 12.1434 14.672 10.8084C14.9353 10.5824 15.2262 10.522 15.5395 10.6633C15.8265 10.793 15.9704 11.0331 15.9787 11.3497H15.9794Z" fill="black"/>
</g>
<defs>
<clipPath id="clip0_6_1319">
<rect width="21.5256" height="21.5256" fill="white" transform="translate(0.589355 0.610352)"/>
</clipPath>
</defs>
</svg>
