<svg width="30" height="30" viewBox="0 0 30 30" fill="none" xmlns="http://www.w3.org/2000/svg">
<g clip-path="url(#clip0_6_1228)">
<path d="M14.4509 0.458008C14.3891 0.544632 14.3018 0.50984 14.2208 0.507C14.2052 0.49493 14.2002 0.483569 14.2066 0.472919C14.213 0.462978 14.2187 0.458008 14.2244 0.458008H14.4509V0.458008Z" fill="#505050"/>
<path d="M29.523 14.4557C29.4357 14.3953 29.4719 14.3073 29.4712 14.227C29.4897 14.2029 29.5067 14.2043 29.523 14.2292V14.4557Z" fill="black"/>
<path d="M29.4727 15.7047C29.4705 15.6244 29.4357 15.5364 29.5231 15.4753V15.7018C29.5075 15.726 29.4911 15.7281 29.4727 15.704V15.7047Z" fill="black"/>
<path d="M15.6996 0.50629C15.6357 0.513391 15.569 0.530431 15.5271 0.458008H15.6968C15.7145 0.467948 15.7209 0.478599 15.7152 0.489249C15.7096 0.50061 15.7046 0.50629 15.6989 0.50629H15.6996Z" fill="black"/>
<path d="M14.2243 0.458008C14.2243 0.47444 14.2243 0.490872 14.2208 0.507304C14.1743 0.512305 14.1243 0.525164 14.11 0.458008H14.2243V0.458008Z" fill="#7A7A7A"/>
<path d="M15.6997 0.506589C15.6982 0.490157 15.6975 0.47444 15.6975 0.458008H15.8118C15.8289 0.467295 15.8354 0.478012 15.8311 0.488728C15.8261 0.500159 15.8211 0.505875 15.8154 0.505875H15.7004L15.6997 0.506589Z" fill="#585858"/>
<path d="M15.814 0.505875C15.8119 0.490157 15.8111 0.473725 15.8104 0.458008H15.9247C15.9111 0.527308 15.8611 0.513019 15.814 0.505875V0.505875Z" fill="#7A7A7A"/>
<path d="M29.4741 14.1134C29.4698 14.067 29.4527 14.0155 29.5234 14.0027V14.117C29.5048 14.1427 29.4884 14.1434 29.4741 14.1134V14.1134Z" fill="#8D8D8D"/>
<path d="M29.4741 14.1128C29.4905 14.1149 29.507 14.1164 29.5234 14.1164V14.2307C29.5063 14.2307 29.4884 14.2307 29.4713 14.2285C29.472 14.19 29.4734 14.1514 29.4741 14.1128Z" fill="#606060"/>
<path d="M29.4727 15.7045C29.4891 15.7031 29.5062 15.7024 29.5234 15.7024V15.8167C29.5084 15.8417 29.4919 15.8417 29.4741 15.8203C29.4741 15.7817 29.4734 15.7438 29.4727 15.7053V15.7045Z" fill="#606060"/>
<path d="M29.4741 15.819C29.4905 15.8169 29.5069 15.8161 29.5234 15.8154V15.9297C29.4512 15.9176 29.4691 15.8654 29.4741 15.819V15.819Z" fill="#8D8D8D"/>
<path d="M29.5234 13.8322C29.473 13.5454 29.4957 13.2528 29.4573 12.9667C29.2507 11.411 28.7971 9.92704 28.1006 8.52117C27.1848 6.67153 25.9324 5.08247 24.3436 3.7618C22.3642 2.11665 20.1073 1.06935 17.5749 0.607115C17.0837 0.517651 16.586 0.521911 16.0933 0.458008H15.9236C15.8874 0.49706 15.8398 0.484279 15.7951 0.487119C15.7603 0.487119 15.7262 0.487119 15.6914 0.487119C15.6361 0.480019 15.575 0.50629 15.5267 0.458008H14.4505C14.388 0.51197 14.3127 0.477179 14.2446 0.487119C14.1984 0.483569 14.1487 0.49919 14.1104 0.458008H13.8839C13.5971 0.50842 13.3039 0.486409 13.0171 0.524041C11.4594 0.729951 9.97281 1.18224 8.56782 1.88305C6.98321 2.67403 5.58532 3.71494 4.36989 5.01217C3.18002 6.28172 2.26632 7.72096 1.57128 9.30789C0.565989 11.607 0.334546 14.0246 0.524812 16.4913C0.657573 18.2117 1.15738 19.8476 1.92483 21.3934C2.7079 22.9711 3.74017 24.3642 5.02731 25.5769C6.74609 27.1965 8.73892 28.3084 10.9923 28.9894C12.8133 29.5396 14.6776 29.5886 16.5455 29.4573C18.2664 29.3366 19.9 28.8239 21.447 28.0606C23.3177 27.1376 24.9222 25.8687 26.2512 24.2598C27.7073 22.4975 28.6956 20.503 29.2202 18.2756C29.3849 17.5762 29.4588 16.8676 29.5234 16.1562V15.9297C29.4822 15.892 29.4978 15.8416 29.4943 15.7955C29.4943 15.7593 29.4943 15.7231 29.4943 15.6868C29.5049 15.6165 29.4687 15.5399 29.5234 15.476V14.4556C29.4687 14.3917 29.5049 14.3151 29.4943 14.2448C29.4943 14.2085 29.4943 14.1723 29.4943 14.1361C29.4978 14.09 29.4822 14.0403 29.5234 14.0019V13.8322V13.8322ZM15.0255 27.5423C8.10351 27.5515 2.42676 21.872 2.44309 14.9527C2.45942 8.02485 8.11061 2.3822 15.0241 2.39001C21.9461 2.39782 27.5916 8.04686 27.5923 14.9654C27.593 21.8833 21.9482 27.5331 15.0255 27.5423V27.5423Z" fill="black"/>
<path d="M12.7115 18.3096C12.818 18.1783 12.8776 18.0909 12.9507 18.0178C15.706 15.26 18.4635 12.5044 21.2174 9.74518C21.5262 9.43561 21.8656 9.26236 22.3079 9.40578C22.9319 9.60885 23.1754 10.3473 22.7927 10.8791C22.7218 10.9778 22.6323 11.0644 22.5457 11.1511C19.5497 14.1488 16.553 17.1459 13.5556 20.1429C12.9656 20.733 12.4722 20.7323 11.8808 20.1408C10.4056 18.6661 8.931 17.1899 7.45502 15.7159C7.29244 15.554 7.14477 15.385 7.08939 15.1556C6.98787 14.7396 7.15684 14.3235 7.51323 14.0998C7.87389 13.8733 8.30412 13.9031 8.64276 14.1822C8.72299 14.2482 8.7954 14.3228 8.86853 14.3966C10.0769 15.6044 11.2852 16.8122 12.4914 18.0228C12.5645 18.0959 12.6185 18.1875 12.7108 18.3103L12.7115 18.3096Z" fill="black"/>
</g>
<defs>
<clipPath id="clip0_6_1228">
<rect width="29.0596" height="29.0596" fill="white" transform="translate(0.46344 0.458008)"/>
</clipPath>
</defs>
</svg>
