<svg width="6" height="9" viewBox="0 0 6 9" fill="none" xmlns="http://www.w3.org/2000/svg">
<path d="M2.90402 8.24933L2.77286 8.0666C2.76598 8.05699 2.07514 7.09252 1.39359 5.96601C0.468883 4.43756 0 3.34935 0 2.73166C0 2.36296 0.0767954 2.0052 0.228289 1.66835C0.37456 1.34304 0.583937 1.05092 0.850565 0.800121C1.11723 0.549318 1.42778 0.352367 1.77357 0.214777C2.13171 0.0722375 2.51205 0 2.90402 0C3.29599 0 3.67633 0.0722375 4.03443 0.21474C4.38026 0.35233 4.69081 0.54928 4.95744 0.800083C5.2241 1.05089 5.43344 1.34304 5.57971 1.66831C5.7312 2.0052 5.808 2.36292 5.808 2.73163C5.808 3.34935 5.33912 4.43753 4.41441 5.96601C3.73286 7.09256 3.04206 8.05699 3.03514 8.0666L2.90398 8.24933H2.90402ZM2.90402 0.297733C1.47727 0.297733 0.316519 1.38959 0.316519 2.73166C0.316519 3.28891 0.78374 4.35587 1.66774 5.81718C2.1674 6.64321 2.67221 7.38147 2.90402 7.71382C3.13583 7.38147 3.64064 6.64321 4.1403 5.81718C5.02426 4.35587 5.49152 3.28891 5.49152 2.73166C5.49152 1.38959 4.33077 0.297733 2.90402 0.297733V0.297733ZM2.90402 4.39328C2.65504 4.39328 2.41342 4.34739 2.18584 4.25684C1.96614 4.16942 1.76883 4.0443 1.59945 3.88497C1.43007 3.72565 1.29705 3.54005 1.20412 3.33338C1.10786 3.11935 1.05907 2.89203 1.05907 2.65783C1.05907 2.42362 1.10786 2.1963 1.20412 1.98227C1.29705 1.77561 1.43003 1.59001 1.59945 1.43068C1.76883 1.27136 1.96614 1.14624 2.18584 1.05881C2.41338 0.968265 2.65504 0.922377 2.90402 0.922377C3.153 0.922377 3.39462 0.968265 3.6222 1.05881C3.8419 1.14624 4.03921 1.27132 4.20859 1.43068C4.37797 1.59001 4.51099 1.77561 4.60392 1.98227C4.70018 2.1963 4.74897 2.42362 4.74897 2.65783C4.74897 2.89203 4.70018 3.11935 4.60392 3.33338C4.51099 3.54005 4.37801 3.72565 4.20859 3.88497C4.03921 4.0443 3.8419 4.16942 3.6222 4.25684C3.39466 4.34739 3.153 4.39328 2.90402 4.39328V4.39328ZM2.90402 1.22015C2.06125 1.22015 1.37559 1.86511 1.37559 2.65786C1.37559 3.45062 2.06125 4.09558 2.90402 4.09558C3.74679 4.09558 4.43245 3.45062 4.43245 2.65786C4.43245 1.86511 3.74679 1.22015 2.90402 1.22015V1.22015Z" fill="white"/>
</svg>
