<svg width="16" height="11" viewBox="0 0 16 11" fill="none" xmlns="http://www.w3.org/2000/svg">
<path d="M0.571533 5.56009C0.597256 5.49782 0.621395 5.43526 0.649492 5.37359C0.859229 4.90883 1.40296 4.61418 2.08203 4.61239C3.64121 4.60852 5.20078 4.61091 6.76035 4.6115C6.97959 4.6115 7.11216 4.69611 7.11532 4.83047C7.11849 4.96931 6.98394 5.0563 6.75521 5.0563C5.52132 5.05719 4.28783 5.0566 3.05395 5.0566C2.73301 5.0566 2.41247 5.05481 2.09153 5.05689C1.53751 5.06107 1.16473 5.3432 1.16434 5.7591C1.16315 6.85128 1.16315 7.94346 1.16434 9.03595C1.16473 9.4435 1.52208 9.72087 2.06264 9.73725C2.10222 9.73845 2.14139 9.73785 2.18097 9.73785C6.1632 9.73785 10.1458 9.73785 14.1281 9.73845C14.3489 9.73845 14.561 9.72206 14.7478 9.62255C14.9983 9.48909 15.138 9.30735 15.1384 9.07676C15.1415 7.95866 15.1423 6.84026 15.1384 5.72216C15.1372 5.37061 14.7913 5.09503 14.3251 5.06166C14.2614 5.05719 14.1969 5.05719 14.1328 5.05719C12.6278 5.05719 11.1225 5.05719 9.61752 5.0566C9.55342 5.0566 9.48852 5.0566 9.42599 5.04885C9.28828 5.03127 9.19132 4.9419 9.18895 4.83762C9.18657 4.73365 9.27957 4.64249 9.41689 4.62044C9.46952 4.6121 9.52453 4.6112 9.57874 4.6112C11.1134 4.61061 12.648 4.60971 14.1831 4.6112C15.1019 4.6121 15.7323 5.08937 15.7327 5.78204C15.7335 6.85575 15.7331 7.92946 15.7327 9.00317C15.7327 9.70985 15.1083 10.1824 14.166 10.1835C12.6611 10.1853 11.1557 10.1841 9.65077 10.1841C7.15371 10.1841 4.65665 10.1824 2.15999 10.1853C1.55255 10.1862 1.08321 10.0107 0.763462 9.61719C0.6673 9.49981 0.637224 9.36426 0.571533 9.23823C0.571533 8.01228 0.571533 6.78604 0.571533 5.56009Z" fill="white"/>
<path d="M12.2695 1.95297C12.2647 2.04205 12.2101 2.10848 12.1032 2.14781C11.9837 2.1919 11.8725 2.17581 11.7752 2.10968C11.607 1.99527 11.4424 1.87789 11.2615 1.77392C9.26745 0.624533 6.45104 0.736254 4.63345 2.03728C4.6014 2.06022 4.57013 2.08435 4.5361 2.10551C4.39403 2.19488 4.22664 2.1922 4.11227 2.10014C3.99909 2.00928 4.00384 1.87819 4.13285 1.78107C4.41263 1.57044 4.71853 1.38304 5.05213 1.22276C7.31175 0.138324 10.1832 0.350743 12.1222 1.74413C12.2026 1.80192 12.2758 1.86091 12.2695 1.95267V1.95297Z" fill="white"/>
<path d="M6.96342 7.56749C6.96342 7.22991 6.96303 6.89262 6.96342 6.55504C6.96382 6.38461 7.0782 6.28212 7.26223 6.2851C7.44191 6.28778 7.5547 6.38849 7.5551 6.55147C7.55629 7.09762 7.55589 7.64347 7.5551 8.18962C7.5551 8.34753 7.47357 8.44705 7.32278 8.48101C7.16408 8.51677 7.03862 8.47416 6.91474 8.33889C6.58427 7.97926 6.2546 7.61903 5.92373 7.25792C5.87347 7.27847 5.89721 7.31184 5.89682 7.33717C5.89484 7.64168 5.89682 7.94649 5.89484 8.25099C5.89365 8.40951 5.78521 8.50515 5.60909 8.50992C5.42308 8.51498 5.30435 8.41934 5.30356 8.25785C5.30197 7.7266 5.30316 7.19564 5.30316 6.66439C5.30316 6.61225 5.30316 6.56041 5.30395 6.50826C5.30633 6.40279 5.37717 6.33009 5.50698 6.2997C5.63521 6.2696 5.75434 6.29433 5.83547 6.37985C5.97835 6.53091 6.11647 6.68465 6.25657 6.8372C6.48296 7.08361 6.70934 7.32972 6.93572 7.57613L6.96303 7.56749H6.96342Z" fill="white"/>
<path d="M8.42701 1.65787C9.29327 1.66711 10.2723 1.96533 11.0934 2.5567C11.1955 2.63029 11.2434 2.7143 11.1979 2.81679C11.1583 2.90587 11.0669 2.95443 10.9431 2.96307C10.8243 2.97141 10.7401 2.92166 10.6589 2.86327C10.1674 2.50844 9.59244 2.26772 8.92326 2.16643C7.70006 1.98142 6.62051 2.20396 5.68975 2.83049C5.65651 2.85284 5.62643 2.87757 5.5928 2.89902C5.45389 2.9872 5.28017 2.98482 5.16778 2.89425C5.05579 2.80428 5.06054 2.67111 5.18836 2.57488C5.48278 2.35292 5.8152 2.16792 6.18402 2.02164C6.79819 1.77764 7.45985 1.65698 8.42701 1.65787V1.65787Z" fill="white"/>
<path d="M8.25582 2.93157C8.83444 2.9417 9.41425 3.10677 9.89709 3.45269C10.0491 3.56174 10.0653 3.6994 9.94221 3.79534C9.81833 3.89158 9.6529 3.88562 9.49657 3.77955C8.70305 3.24144 7.65109 3.24144 6.85163 3.77955C6.68976 3.8886 6.51997 3.89128 6.3961 3.7867C6.27736 3.68659 6.29636 3.56353 6.44715 3.45269C6.892 3.12554 7.53394 2.93157 8.25622 2.93127L8.25582 2.93157Z" fill="white"/>
<path d="M11.4981 7.39193C11.4981 7.11007 11.4973 6.8282 11.4981 6.54634C11.4989 6.38634 11.616 6.28474 11.7953 6.28503C11.975 6.28563 12.0898 6.38634 12.0898 6.54783C12.0906 7.11543 12.0906 7.68273 12.0898 8.25033C12.0898 8.41391 11.9774 8.51045 11.7929 8.50985C11.6097 8.50926 11.4989 8.41242 11.4981 8.24855C11.4969 7.96281 11.4981 7.67737 11.4981 7.39163V7.39193Z" fill="white"/>
<path d="M8.44735 4.83203C8.44933 4.9521 8.32308 5.05072 8.16279 5.0546C7.99538 5.05877 7.85845 4.96164 7.85647 4.83709C7.85449 4.71374 7.99103 4.61124 8.15567 4.61303C8.31477 4.61482 8.44537 4.71284 8.44735 4.83203V4.83203Z" fill="white"/>
<path d="M3.22855 6.28533C2.41405 6.28533 1.75311 6.78232 1.75074 7.3967C1.74836 8.01197 2.40337 8.50896 3.22103 8.51253C4.03434 8.51611 4.70042 8.0224 4.71071 7.40802C4.721 6.79692 4.04582 6.28533 3.22855 6.28503V6.28533ZM3.23171 8.0665C2.74294 8.06828 2.34717 7.7751 2.34321 7.40772C2.33925 7.03379 2.73027 6.73345 3.22459 6.73107C3.71297 6.72869 4.1218 7.03558 4.11864 7.40266C4.11587 7.76795 3.7193 8.06471 3.23171 8.0665Z" fill="white"/>
<path d="M13.9616 7.70117C13.8864 7.64069 13.9026 7.6246 13.9968 7.59391C14.3938 7.464 14.6059 7.17707 14.5454 6.8669C14.4868 6.56657 14.1425 6.32135 13.7162 6.29424C13.4807 6.27934 13.2429 6.28381 13.0062 6.28619C12.7917 6.28828 12.6837 6.37558 12.6833 6.53975C12.6821 7.11182 12.6821 7.68389 12.6833 8.25596C12.6833 8.41328 12.7937 8.50863 12.9718 8.51131C13.1574 8.51429 13.2734 8.41745 13.2749 8.25566C13.2765 8.10818 13.2749 7.96069 13.2749 7.78609C13.5358 8.00896 13.7697 8.21008 14.0051 8.4103C14.1405 8.52531 14.3146 8.54468 14.4468 8.46155C14.5861 8.37395 14.5905 8.23987 14.452 8.11831C14.2913 7.97737 14.1306 7.83644 13.962 7.70087L13.9616 7.70117ZM13.5924 7.21163C13.3821 7.2164 13.2768 7.13566 13.2765 6.9694C13.2763 6.79718 13.3889 6.71793 13.6145 6.73163C13.8243 6.74444 13.966 6.84605 13.96 6.97983C13.9541 7.11182 13.8037 7.20657 13.5927 7.21134L13.5924 7.21163Z" fill="white"/>
<path d="M10.8784 8.19703C10.5899 7.6184 10.3014 7.03978 10.0105 6.46175C9.95466 6.35061 9.84306 6.28655 9.68396 6.28506C9.52525 6.28357 9.40969 6.34316 9.3527 6.45519C9.05547 7.03948 8.75904 7.62377 8.46656 8.20924C8.40641 8.32992 8.482 8.45148 8.62843 8.49528C8.78358 8.54176 8.94268 8.48992 9.0155 8.36537C9.05705 8.29446 9.09663 8.22206 9.12671 8.14787C9.14927 8.09274 9.18528 8.07368 9.26286 8.07457C9.5391 8.07814 9.81535 8.07874 10.0916 8.07457C10.1727 8.07338 10.2024 8.09811 10.2254 8.14995C10.261 8.2307 10.2994 8.31144 10.3477 8.38802C10.409 8.48574 10.5424 8.52805 10.6821 8.50362C10.8087 8.48157 10.9025 8.39338 10.9057 8.27479C10.901 8.26079 10.8938 8.22772 10.8784 8.19673V8.19703ZM9.39386 7.62794C9.48686 7.44231 9.5771 7.26235 9.67762 7.06153C9.77775 7.26086 9.86799 7.44142 9.96139 7.62794H9.39386V7.62794Z" fill="white"/>
</svg>
