<svg width="10" height="14" viewBox="0 0 10 14" fill="none" xmlns="http://www.w3.org/2000/svg">
<path d="M4.99977 0.376862C2.38881 0.376862 0.272217 2.21726 0.272217 4.4875C0.272217 6.75774 4.99977 12.8457 4.99977 12.8457C4.99977 12.8457 9.72732 6.75768 9.72732 4.4875C9.72732 2.21732 7.61065 0.376862 4.99977 0.376862ZM4.99977 6.8951C3.39592 6.8951 2.09569 5.7646 2.09569 4.36998C2.09569 2.97537 3.39585 1.84487 4.99977 1.84487C6.60368 1.84487 7.90384 2.97537 7.90384 4.36998C7.90384 5.7646 6.60368 6.8951 4.99977 6.8951Z" fill="#F900C0"/>
<path d="M5.00003 13.2692L4.77421 12.9784C4.76236 12.9631 3.57289 11.4281 2.39944 9.63519C0.807305 7.20259 0 5.47065 0 4.48758C0 3.90077 0.132223 3.33137 0.39306 2.79526C0.644904 2.27752 1.0054 1.81261 1.46447 1.41344C1.92361 1.01428 2.45829 0.700822 3.05367 0.481842C3.67031 0.254984 4.32516 0.140015 5.00003 0.140015C5.67491 0.140015 6.32976 0.254984 6.94633 0.481783C7.54178 0.700763 8.07646 1.01422 8.53553 1.41338C8.99467 1.81255 9.3551 2.27752 9.60694 2.7952C9.86778 3.33137 10 3.90071 10 4.48752C10 5.47065 9.19269 7.20253 7.60056 9.63519C6.42711 11.4281 5.23771 12.9631 5.22579 12.9784L4.99997 13.2692H5.00003ZM5.00003 0.61387C2.54351 0.61387 0.54497 2.35162 0.54497 4.48758C0.54497 5.37446 1.34941 7.07258 2.87145 9.39832C3.73175 10.713 4.60091 11.888 5.00003 12.4169C5.39916 11.888 6.26832 10.713 7.12862 9.39832C8.65059 7.07258 9.4551 5.37446 9.4551 4.48758C9.4551 2.35162 7.45656 0.61387 5.00003 0.61387V0.61387ZM5.00003 7.1321C4.57135 7.1321 4.15533 7.05907 3.7635 6.91496C3.38522 6.77583 3.0455 6.57669 2.75387 6.32312C2.46224 6.06954 2.23322 5.77415 2.0732 5.44524C1.90746 5.1046 1.82347 4.74281 1.82347 4.37006C1.82347 3.99732 1.90746 3.63553 2.0732 3.29488C2.23322 2.96597 2.46218 2.67058 2.75387 2.41701C3.0455 2.16344 3.38522 1.9643 3.7635 1.82516C4.15526 1.68105 4.57135 1.60802 5.00003 1.60802C5.42872 1.60802 5.84474 1.68105 6.23657 1.82516C6.61485 1.9643 6.95457 2.16338 7.2462 2.41701C7.53782 2.67058 7.76685 2.96597 7.92687 3.29488C8.0926 3.63553 8.1766 3.99732 8.1766 4.37006C8.1766 4.74281 8.0926 5.1046 7.92687 5.44524C7.76685 5.77415 7.53789 6.06954 7.2462 6.32312C6.95457 6.57669 6.61485 6.77583 6.23657 6.91496C5.84481 7.05907 5.42872 7.1321 5.00003 7.1321V7.1321ZM5.00003 2.08193C3.54898 2.08193 2.36844 3.10842 2.36844 4.37012C2.36844 5.63182 3.54898 6.65831 5.00003 6.65831C6.45109 6.65831 7.63163 5.63182 7.63163 4.37012C7.63163 3.10842 6.45109 2.08193 5.00003 2.08193V2.08193Z" fill="#F900C0"/>
</svg>
