<svg width="16" height="11" viewBox="0 0 16 11" fill="none" xmlns="http://www.w3.org/2000/svg">
<path d="M0.571533 6.02268C0.597256 5.95795 0.621395 5.89292 0.649492 5.82881C0.859229 5.3457 1.40296 5.03942 2.08203 5.03756C3.64121 5.03353 5.20078 5.03601 6.76035 5.03663C6.97959 5.03663 7.11216 5.12458 7.11532 5.26425C7.11849 5.40857 6.98394 5.49899 6.75521 5.49899C5.52132 5.49992 4.28783 5.4993 3.05395 5.4993C2.73301 5.4993 2.41247 5.49745 2.09153 5.49961C1.53751 5.50395 1.16473 5.79722 1.16434 6.22955C1.16315 7.36486 1.16315 8.50017 1.16434 9.6358C1.16473 10.0595 1.52208 10.3478 2.06264 10.3648C2.10222 10.366 2.14139 10.3654 2.18097 10.3654C6.1632 10.3654 10.1458 10.3654 14.1281 10.366C14.3489 10.366 14.561 10.349 14.7478 10.2456C14.9983 10.1068 15.138 9.91792 15.1384 9.67823C15.1415 8.51597 15.1423 7.3534 15.1384 6.19115C15.1372 5.82571 14.7913 5.53925 14.3251 5.50457C14.2614 5.49992 14.1969 5.49992 14.1328 5.49992C12.6278 5.49992 11.1225 5.49992 9.61752 5.4993C9.55342 5.4993 9.48852 5.4993 9.42599 5.49125C9.28828 5.47298 9.19132 5.38007 9.18895 5.27168C9.18657 5.1636 9.27957 5.06884 9.41689 5.04592C9.46952 5.03725 9.52453 5.03632 9.57874 5.03632C11.1134 5.0357 12.648 5.03477 14.1831 5.03632C15.1019 5.03725 15.7323 5.53337 15.7327 6.25339C15.7335 7.36951 15.7331 8.48562 15.7327 9.60173C15.7327 10.3363 15.1083 10.8275 14.166 10.8287C12.6611 10.8306 11.1557 10.8293 9.65077 10.8293C7.15371 10.8293 4.65665 10.8275 2.15999 10.8306C1.55255 10.8315 1.08321 10.6491 0.763462 10.24C0.6673 10.118 0.637224 9.97707 0.571533 9.84608C0.571533 8.57171 0.571533 7.29704 0.571533 6.02268Z" fill="white"/>
<path d="M12.2695 2.27311C12.2647 2.3657 12.2101 2.43476 12.1032 2.47564C11.9837 2.52148 11.8725 2.50475 11.7752 2.436C11.607 2.31708 11.4424 2.19507 11.2615 2.08698C9.26745 0.89221 6.45104 1.00834 4.63345 2.36075C4.6014 2.38459 4.57013 2.40968 4.5361 2.43167C4.39403 2.52457 4.22664 2.52179 4.11227 2.42609C3.99909 2.33164 4.00384 2.19537 4.13285 2.09442C4.41263 1.87547 4.71853 1.68067 5.05213 1.51406C7.31175 0.3868 10.1832 0.607607 12.1222 2.05602C12.2026 2.11609 12.2758 2.17741 12.2695 2.2728V2.27311Z" fill="white"/>
<path d="M6.96342 8.10936C6.96342 7.75845 6.96303 7.40784 6.96342 7.05693C6.96382 6.87977 7.0782 6.77323 7.26223 6.77633C7.44191 6.77911 7.5547 6.8838 7.5551 7.05322C7.55629 7.62093 7.55589 8.18834 7.5551 8.75605C7.5551 8.92021 7.47357 9.02365 7.32278 9.05896C7.16408 9.09613 7.03862 9.05184 6.91474 8.91122C6.58427 8.53739 6.2546 8.16294 5.92373 7.78756C5.87347 7.80893 5.89721 7.84362 5.89682 7.86995C5.89484 8.18648 5.89682 8.50332 5.89484 8.81986C5.89365 8.98463 5.78521 9.08405 5.60909 9.089C5.42308 9.09427 5.30435 8.99485 5.30356 8.82698C5.30197 8.27475 5.30316 7.72283 5.30316 7.1706C5.30316 7.1164 5.30316 7.06251 5.30395 7.00831C5.30633 6.89867 5.37717 6.82309 5.50698 6.7915C5.63521 6.76022 5.75434 6.78593 5.83547 6.87482C5.97835 7.03185 6.11647 7.19166 6.25657 7.35024C6.48296 7.60637 6.70934 7.8622 6.93572 8.11834L6.96303 8.10936H6.96342Z" fill="white"/>
<path d="M8.42701 1.96636C9.29327 1.97596 10.2723 2.28596 11.0934 2.90069C11.1955 2.97718 11.2434 3.06451 11.1979 3.17104C11.1583 3.26364 11.0669 3.31412 10.9431 3.3231C10.8243 3.33177 10.7401 3.28005 10.6589 3.21935C10.1674 2.85052 9.59244 2.60029 8.92326 2.495C7.70006 2.30268 6.62051 2.53402 5.68975 3.18529C5.65651 3.20852 5.62643 3.23422 5.5928 3.25652C5.45389 3.34818 5.28017 3.34571 5.16778 3.25156C5.05579 3.15804 5.06054 3.01961 5.18836 2.91958C5.48278 2.68886 5.8152 2.49654 6.18402 2.34449C6.79819 2.09085 7.45985 1.96543 8.42701 1.96636V1.96636Z" fill="white"/>
<path d="M8.25582 3.29035C8.83444 3.30088 9.41425 3.47246 9.89709 3.83205C10.0491 3.94541 10.0653 4.0885 9.94221 4.18823C9.81833 4.28827 9.6529 4.28207 9.49657 4.17181C8.70305 3.61246 7.65109 3.61246 6.85163 4.17181C6.68976 4.28517 6.51997 4.28796 6.3961 4.17924C6.27736 4.07518 6.29636 3.94726 6.44715 3.83205C6.892 3.49198 7.53394 3.29035 8.25622 3.29004L8.25582 3.29035Z" fill="white"/>
<path d="M11.4981 7.92687C11.4981 7.63387 11.4973 7.34088 11.4981 7.04789C11.4989 6.88157 11.616 6.77595 11.7953 6.77626C11.975 6.77688 12.0898 6.88157 12.0898 7.04943C12.0906 7.63945 12.0906 8.22916 12.0898 8.81917C12.0898 8.98921 11.9774 9.08956 11.7929 9.08894C11.6097 9.08832 11.4989 8.98766 11.4981 8.81731C11.4969 8.52029 11.4981 8.22358 11.4981 7.92656V7.92687Z" fill="white"/>
<path d="M8.44735 5.26586C8.44933 5.39068 8.32308 5.4932 8.16279 5.49722C7.99538 5.50156 7.85845 5.40059 7.85647 5.27113C7.85449 5.1429 7.99103 5.03636 8.15567 5.03822C8.31477 5.04008 8.44537 5.14197 8.44735 5.26586V5.26586Z" fill="white"/>
<path d="M3.22855 6.77657C2.41405 6.77657 1.75311 7.29318 1.75074 7.93182C1.74836 8.5714 2.40337 9.08801 3.22103 9.09172C4.03434 9.09544 4.70042 8.58224 4.71071 7.94359C4.721 7.30836 4.04582 6.77657 3.22855 6.77626V6.77657ZM3.23171 8.62807C2.74294 8.62993 2.34717 8.32517 2.34321 7.94328C2.33925 7.55459 2.73027 7.24239 3.22459 7.23991C3.71297 7.23743 4.1218 7.55644 4.11864 7.93802C4.11587 8.31773 3.7193 8.62622 3.23171 8.62807Z" fill="white"/>
<path d="M13.9616 8.24832C13.8864 8.18544 13.9026 8.16872 13.9968 8.13682C14.3938 8.00178 14.6059 7.70352 14.5454 7.3811C14.4868 7.0689 14.1425 6.814 13.7162 6.78582C13.4807 6.77033 13.2429 6.77498 13.0062 6.77746C12.7917 6.77962 12.6837 6.87037 12.6833 7.04103C12.6821 7.63569 12.6821 8.23035 12.6833 8.82501C12.6833 8.98854 12.7937 9.08766 12.9718 9.09044C13.1574 9.09354 13.2734 8.99288 13.2749 8.8247C13.2765 8.67139 13.2749 8.51808 13.2749 8.33659C13.5358 8.56826 13.7697 8.77732 14.0051 8.98545C14.1405 9.105 14.3146 9.12513 14.4468 9.03872C14.5861 8.94766 14.5905 8.80829 14.452 8.68192C14.2913 8.53543 14.1306 8.38893 13.962 8.24801L13.9616 8.24832ZM13.5924 7.73945C13.3821 7.7444 13.2768 7.66047 13.2765 7.48764C13.2763 7.30863 13.3889 7.22624 13.6145 7.24049C13.8243 7.25381 13.966 7.35942 13.96 7.49848C13.9541 7.63569 13.8037 7.73418 13.5927 7.73914L13.5924 7.73945Z" fill="white"/>
<path d="M10.8784 8.76376C10.5899 8.16228 10.3014 7.56081 10.0105 6.95995C9.95466 6.84443 9.84306 6.77784 9.68396 6.77629C9.52525 6.77474 9.40969 6.83668 9.3527 6.95314C9.05547 7.5605 8.75904 8.16786 8.46656 8.77646C8.40641 8.90189 8.482 9.02826 8.62843 9.07379C8.78358 9.12211 8.94268 9.06821 9.0155 8.93875C9.05705 8.86504 9.09663 8.78978 9.12671 8.71266C9.14927 8.65536 9.18528 8.63554 9.26286 8.63647C9.5391 8.64018 9.81535 8.6408 10.0916 8.63647C10.1727 8.63523 10.2024 8.66093 10.2254 8.71482C10.261 8.79876 10.2994 8.88269 10.3477 8.96229C10.409 9.06388 10.5424 9.10786 10.6821 9.08246C10.8087 9.05954 10.9025 8.96787 10.9057 8.8446C10.901 8.83004 10.8938 8.79566 10.8784 8.76345V8.76376ZM9.39386 8.1722C9.48686 7.97924 9.5771 7.79217 9.67762 7.58342C9.77775 7.79062 9.86799 7.97831 9.96139 8.1722H9.39386V8.1722Z" fill="white"/>
</svg>
