<svg width="27" height="19" viewBox="0 0 27 19" fill="none" xmlns="http://www.w3.org/2000/svg">
<path d="M1.76941 1.24008C2.2065 0.983148 2.67155 0.934814 3.14676 0.934814C7.76673 0.934814 12.3867 0.934814 17.0067 0.934814C19.215 0.934814 21.4233 0.934814 23.6317 0.934814C24.1374 0.934814 24.6253 1.0035 25.0878 1.29604C25.0294 1.35964 24.9785 1.42069 24.9226 1.47666C21.3395 5.06097 17.7538 8.64528 14.1681 12.2296C13.6904 12.7078 13.2177 12.7078 12.7374 12.227C9.13646 8.62493 5.53552 5.02027 1.93459 1.41561C1.88122 1.36218 1.83294 1.30622 1.77195 1.24008H1.76941Z" fill="#464646"/>
<path d="M24.6967 18.3475C24.3511 18.3907 24.0182 18.4645 23.6878 18.4671C16.8163 18.4747 9.94479 18.4747 3.07328 18.4671C2.73275 18.4671 2.39477 18.3882 2.05933 18.3475C4.47096 15.9283 6.84956 13.5421 9.29677 11.0898C9.3171 11.128 9.3476 11.2272 9.41113 11.2934C10.1303 12.0234 10.8546 12.7484 11.5788 13.4709C12.6715 14.5597 14.242 14.5571 15.3373 13.4709C16.0946 12.7205 16.8493 11.9675 17.5914 11.2323C19.9446 13.5905 22.2977 15.9486 24.6967 18.3526V18.3475Z" fill="#464646"/>
<path d="M0.70227 17.129C0.486265 16.7474 0.376991 16.3353 0.376991 15.8952C0.376991 11.7538 0.37445 7.61496 0.384615 3.47608C0.384615 3.14792 0.483723 2.82231 0.539631 2.46362C3.05292 4.97696 5.50775 7.43689 7.95751 9.88917C5.55349 12.288 3.13423 14.7022 0.70227 17.129Z" fill="#464646"/>
<path d="M18.8848 9.98092C21.3218 7.54135 23.7665 5.09414 26.2467 2.61133C26.2925 2.93694 26.3713 3.24984 26.3713 3.56273C26.3789 7.66854 26.3763 11.7718 26.3763 15.8776C26.3763 16.333 26.2671 16.7603 26.0511 17.1317C23.6521 14.7379 21.2608 12.3493 18.8848 9.97837V9.98092Z" fill="#464646"/>
</svg>
