<svg width="10" height="14" viewBox="0 0 10 14" fill="none" xmlns="http://www.w3.org/2000/svg">
<path d="M4.99977 0.246094C2.38881 0.246094 0.272217 2.15863 0.272217 4.51786C0.272217 6.87708 4.99977 13.2037 4.99977 13.2037C4.99977 13.2037 9.72732 6.87702 9.72732 4.51786C9.72732 2.15869 7.61065 0.246094 4.99977 0.246094ZM4.99977 7.01983C3.39592 7.01983 2.09569 5.84501 2.09569 4.39573C2.09569 2.94645 3.39585 1.77164 4.99977 1.77164C6.60368 1.77164 7.90384 2.94645 7.90384 4.39573C7.90384 5.84501 6.60368 7.01983 4.99977 7.01983Z" fill="#F900C0"/>
<path d="M5.00003 13.6438L4.77421 13.3416C4.76236 13.3257 3.57289 11.7305 2.39944 9.86736C0.807305 7.33941 0 5.53958 0 4.51798C0 3.90816 0.132223 3.31645 0.39306 2.75933C0.644904 2.22129 1.0054 1.73815 1.46447 1.32334C1.92361 0.908532 2.45829 0.58279 3.05367 0.355226C3.67031 0.119476 4.32516 0 5.00003 0C5.67491 0 6.32976 0.119476 6.94633 0.355165C7.54178 0.582728 8.07646 0.90847 8.53553 1.32328C8.99467 1.73809 9.3551 2.22129 9.60694 2.75927C9.86778 3.31645 10 3.9081 10 4.51791C10 5.53958 9.19269 7.33935 7.60056 9.86736C6.42711 11.7306 5.23771 13.3257 5.22579 13.3416L4.99997 13.6438H5.00003ZM5.00003 0.492429C2.54351 0.492429 0.54497 2.29829 0.54497 4.51798C0.54497 5.43962 1.34941 7.2043 2.87145 9.6212C3.73175 10.9874 4.60091 12.2084 5.00003 12.7581C5.39916 12.2084 6.26832 10.9874 7.12862 9.6212C8.65059 7.2043 9.4551 5.43962 9.4551 4.51798C9.4551 2.29829 7.45656 0.492429 5.00003 0.492429V0.492429ZM5.00003 7.26616C4.57135 7.26616 4.15533 7.19027 3.7635 7.04051C3.38522 6.89592 3.0455 6.68897 2.75387 6.42546C2.46224 6.16195 2.23322 5.85498 2.0732 5.51317C1.90746 5.15918 1.82347 4.78321 1.82347 4.39585C1.82347 4.0085 1.90746 3.63253 2.0732 3.27853C2.23322 2.93672 2.46218 2.62976 2.75387 2.36625C3.0455 2.10273 3.38522 1.89579 3.7635 1.7512C4.15526 1.60144 4.57135 1.52555 5.00003 1.52555C5.42872 1.52555 5.84474 1.60144 6.23657 1.7512C6.61485 1.89579 6.95457 2.10267 7.2462 2.36625C7.53782 2.62976 7.76685 2.93672 7.92687 3.27853C8.0926 3.63253 8.1766 4.0085 8.1766 4.39585C8.1766 4.78321 8.0926 5.15918 7.92687 5.51317C7.76685 5.85498 7.53789 6.16195 7.2462 6.42546C6.95457 6.68897 6.61485 6.89592 6.23657 7.04051C5.84481 7.19027 5.42872 7.26616 5.00003 7.26616V7.26616ZM5.00003 2.01804C3.54898 2.01804 2.36844 3.08476 2.36844 4.39591C2.36844 5.70707 3.54898 6.77379 5.00003 6.77379C6.45109 6.77379 7.63163 5.70707 7.63163 4.39591C7.63163 3.08476 6.45109 2.01804 5.00003 2.01804V2.01804Z" fill="#F900C0"/>
</svg>
