<svg width="10" height="15" viewBox="0 0 10 15" fill="none" xmlns="http://www.w3.org/2000/svg">
<path d="M4.99977 0.859985C2.38881 0.859985 0.272217 2.80102 0.272217 5.1954C0.272217 7.58978 4.99977 14.0107 4.99977 14.0107C4.99977 14.0107 9.72732 7.58972 9.72732 5.1954C9.72732 2.80108 7.61065 0.859985 4.99977 0.859985ZM4.99977 7.73465C3.39592 7.73465 2.09569 6.54234 2.09569 5.07146C2.09569 3.60058 3.39585 2.40826 4.99977 2.40826C6.60368 2.40826 7.90384 3.60058 7.90384 5.07146C7.90384 6.54234 6.60368 7.73465 4.99977 7.73465Z" fill="#F900C0"/>
<path d="M5.00003 14.4573L4.77421 14.1505C4.76236 14.1344 3.57289 12.5155 2.39944 10.6246C0.807305 8.05894 0 6.2323 0 5.19547C0 4.57657 0.132223 3.97604 0.39306 3.41061C0.644904 2.86455 1.0054 2.37422 1.46447 1.95323C1.92361 1.53224 2.45829 1.20164 3.05367 0.970688C3.67031 0.731424 4.32516 0.610168 5.00003 0.610168C5.67491 0.610168 6.32976 0.731424 6.94633 0.970625C7.54178 1.20158 8.07646 1.53218 8.53553 1.95317C8.99467 2.37416 9.3551 2.86455 9.60694 3.41055C9.86778 3.97604 10 4.57651 10 5.1954C10 6.2323 9.19269 8.05888 7.60056 10.6246C6.42711 12.5156 5.23771 14.1344 5.22579 14.1505L4.99997 14.4573H5.00003ZM5.00003 1.10994C2.54351 1.10994 0.54497 2.94271 0.54497 5.19547C0.54497 6.13084 1.34941 7.92182 2.87145 10.3747C3.73175 11.7613 4.60091 13.0005 5.00003 13.5584C5.39916 13.0005 6.26832 11.7613 7.12862 10.3747C8.65059 7.92182 9.4551 6.13084 9.4551 5.19547C9.4551 2.94271 7.45656 1.10994 5.00003 1.10994V1.10994ZM5.00003 7.9846C4.57135 7.9846 4.15533 7.90758 3.7635 7.75559C3.38522 7.60884 3.0455 7.39881 2.75387 7.13138C2.46224 6.86394 2.23322 6.5524 2.0732 6.2055C1.90746 5.84623 1.82347 5.46465 1.82347 5.07153C1.82347 4.6784 1.90746 4.29682 2.0732 3.93755C2.23322 3.59065 2.46218 3.27911 2.75387 3.01167C3.0455 2.74424 3.38522 2.53421 3.7635 2.38746C4.15526 2.23547 4.57135 2.15845 5.00003 2.15845C5.42872 2.15845 5.84474 2.23547 6.23657 2.38746C6.61485 2.53421 6.95457 2.74417 7.2462 3.01167C7.53782 3.27911 7.76685 3.59065 7.92687 3.93755C8.0926 4.29682 8.1766 4.6784 8.1766 5.07153C8.1766 5.46465 8.0926 5.84623 7.92687 6.2055C7.76685 6.5524 7.53789 6.86394 7.2462 7.13138C6.95457 7.39881 6.61485 7.60884 6.23657 7.75559C5.84481 7.90758 5.42872 7.9846 5.00003 7.9846V7.9846ZM5.00003 2.65828C3.54898 2.65828 2.36844 3.7409 2.36844 5.07159C2.36844 6.40228 3.54898 7.4849 5.00003 7.4849C6.45109 7.4849 7.63163 6.40228 7.63163 5.07159C7.63163 3.7409 6.45109 2.65828 5.00003 2.65828V2.65828Z" fill="#F900C0"/>
</svg>
