<svg width="62" height="12" viewBox="0 0 62 12" fill="none" xmlns="http://www.w3.org/2000/svg">
<path d="M7.94754 11.5349V7.07088H9.44258L9.66623 5.33552H7.94754V4.22818C7.94754 3.72577 8.08723 3.38293 8.80752 3.38293H9.72647V1.83084C9.28161 1.78364 8.8345 1.76075 8.38714 1.76227C7.06255 1.76227 6.15578 2.571 6.15578 4.05643V5.33552H4.65753V7.07088H6.15578V11.5349H0.640827C0.470869 11.5349 0.307872 11.4674 0.187694 11.3472C0.0675155 11.227 0 11.064 0 10.8941V0.640827C0 0.470869 0.0675155 0.307872 0.187694 0.187694C0.307872 0.0675155 0.470869 0 0.640827 0H10.8941C11.064 0 11.227 0.0675155 11.3472 0.187694C11.4674 0.307872 11.5349 0.470869 11.5349 0.640827V10.8941C11.5349 11.064 11.4674 11.227 11.3472 11.3472C11.227 11.4674 11.064 11.5349 10.8941 11.5349H7.94754V11.5349Z" fill="white"/>
<path d="M61.9993 1.81847C61.4773 2.0535 60.9237 2.20786 60.3569 2.27643C60.9543 1.91273 61.4015 1.34034 61.615 0.665922C61.0543 1.00556 60.4396 1.24359 59.7989 1.37235C59.3686 0.903656 58.7981 0.592818 58.1763 0.488157C57.5545 0.383496 56.9161 0.490876 56.3604 0.793603C55.8048 1.09633 55.3629 1.57744 55.1036 2.16215C54.8442 2.74685 54.7819 3.40238 54.9264 4.02684C53.7893 3.96883 52.677 3.66807 51.6616 3.14409C50.6461 2.62011 49.7503 1.88463 49.0323 0.98538C48.7781 1.42973 48.6446 1.93486 48.6453 2.44904C48.6453 3.45822 49.1499 4.34977 49.9171 4.87176C49.4631 4.85721 49.019 4.73241 48.622 4.50776V4.54395C48.6222 5.21607 48.8507 5.86745 49.2688 6.38766C49.6869 6.90787 50.2689 7.26489 50.9161 7.39819C50.4946 7.51445 50.0527 7.53158 49.6237 7.4483C49.8062 8.02683 50.1619 8.53278 50.6409 8.89533C51.12 9.25788 51.6984 9.45886 52.2952 9.47014C51.7021 9.94433 51.0229 10.2949 50.2965 10.5017C49.5701 10.7085 48.8108 10.7676 48.062 10.6756C49.3692 11.5313 50.8908 11.9855 52.445 11.984C57.7052 11.984 60.5819 7.54852 60.5819 3.70181C60.5819 3.57653 60.5784 3.44986 60.573 3.32598C61.1329 2.91407 61.6161 2.40381 62 1.81917L61.9993 1.81847Z" fill="white"/>
<g clip-path="url(#clip0_7_166)">
<path d="M33.4461 0.449158H27.112C25.6758 0.449158 24.5116 1.61339 24.5116 3.04955V9.38365C24.5116 10.8198 25.6758 11.984 27.112 11.984H33.4461C34.8822 11.984 36.0465 10.8198 36.0465 9.38365V3.04955C36.0465 1.61339 34.8822 0.449158 33.4461 0.449158Z" fill="white"/>
<path d="M34.1237 5.67303C34.1237 3.95217 32.3985 2.55212 30.2779 2.55212C28.1573 2.55212 26.4321 3.95217 26.4321 5.67303C26.4321 7.21582 27.8005 8.50773 29.6486 8.75212C29.7736 8.77916 29.9441 8.83467 29.9874 8.94173C30.0263 9.03905 30.0126 9.19117 30 9.28958C30 9.28958 29.955 9.56101 29.9452 9.61868C29.9283 9.71601 29.8681 9.99897 30.2783 9.82595C30.6889 9.65293 32.493 8.52179 33.2997 7.59323C33.857 6.98188 34.1241 6.36188 34.1241 5.67303H34.1237Z" fill="#060839"/>
<path d="M32.844 6.66677H31.7637C31.723 6.66677 31.6902 6.63396 31.6902 6.59323V6.59215V4.91671V4.9149C31.6902 4.87417 31.723 4.84137 31.7637 4.84137H32.844C32.8844 4.84137 32.9176 4.87453 32.9176 4.9149V5.18778C32.9176 5.22851 32.8848 5.26131 32.844 5.26131H32.1098V5.54464H32.844C32.8844 5.54464 32.9176 5.5778 32.9176 5.61817V5.89104C32.9176 5.93178 32.8848 5.96458 32.844 5.96458H32.1098V6.2479H32.844C32.8844 6.2479 32.9176 6.28107 32.9176 6.32144V6.59431C32.9176 6.63504 32.8848 6.66785 32.844 6.66785V6.66677Z" fill="white"/>
<path d="M28.8476 6.66682C28.8879 6.66682 28.9211 6.63402 28.9211 6.59329V6.32041C28.9211 6.28004 28.8879 6.24688 28.8476 6.24688H28.1133V4.9146C28.1133 4.87423 28.0801 4.84106 28.0398 4.84106H27.7669C27.7262 4.84106 27.6934 4.87387 27.6934 4.9146V6.59184V6.59329C27.6934 6.63402 27.7262 6.66682 27.7669 6.66682H28.8472H28.8476Z" fill="white"/>
<path d="M29.4979 4.84137H29.2254C29.1848 4.84137 29.1519 4.87429 29.1519 4.9149V6.59323C29.1519 6.63384 29.1848 6.66677 29.2254 6.66677H29.4979C29.5385 6.66677 29.5714 6.63384 29.5714 6.59323V4.9149C29.5714 4.87429 29.5385 4.84137 29.4979 4.84137Z" fill="white"/>
<path d="M31.3545 4.84137H31.0817C31.0409 4.84137 31.0081 4.87417 31.0081 4.9149V5.91159L30.2403 4.87453C30.2385 4.87201 30.2364 4.86949 30.2346 4.86696H30.2342C30.2328 4.8648 30.2313 4.86336 30.2299 4.86192L30.2284 4.86083C30.2284 4.86083 30.2259 4.85867 30.2245 4.85759C30.2238 4.85723 30.223 4.85651 30.2223 4.85615C30.2212 4.85507 30.2198 4.85435 30.2184 4.85363C30.2176 4.85327 30.2169 4.85254 30.2162 4.85218C30.2148 4.85146 30.2137 4.85074 30.2122 4.85002C30.2115 4.84966 30.2108 4.8493 30.2101 4.84894C30.2086 4.84822 30.2072 4.8475 30.2057 4.84714L30.2032 4.84642C30.2032 4.84642 30.2003 4.84533 30.1989 4.84497C30.1982 4.84497 30.1971 4.84461 30.1964 4.84425C30.1949 4.84425 30.1935 4.84353 30.192 4.84317C30.191 4.84317 30.1899 4.84317 30.1888 4.84281C30.1874 4.84281 30.1863 4.84245 30.1848 4.84245C30.1834 4.84245 30.1823 4.84245 30.1809 4.84245C30.1801 4.84245 30.1791 4.84245 30.1783 4.84245H29.9073C29.8669 4.84245 29.8337 4.87525 29.8337 4.91599V6.59431C29.8337 6.63468 29.8665 6.66785 29.9073 6.66785H30.1801C30.2209 6.66785 30.2537 6.63504 30.2537 6.59431V5.59763L31.0226 6.63613C31.028 6.6437 31.0344 6.64982 31.0417 6.65451L31.0424 6.65523C31.0424 6.65523 31.0453 6.65703 31.0471 6.65811C31.0478 6.65847 31.0485 6.65883 31.0492 6.6592C31.0503 6.65992 31.0518 6.66028 31.0528 6.661C31.0539 6.66172 31.0554 6.66208 31.0564 6.66244C31.0572 6.66244 31.0579 6.66316 31.0586 6.66316C31.0604 6.66388 31.0618 6.66424 31.0636 6.6646H31.0647C31.0709 6.6664 31.0773 6.66749 31.0838 6.66749H31.3549C31.3953 6.66749 31.4284 6.63468 31.4284 6.59395V4.91563C31.4284 4.87525 31.3956 4.84209 31.3549 4.84209L31.3545 4.84137Z" fill="white"/>
</g>
<defs>
<clipPath id="clip0_7_166">
<rect width="11.5349" height="11.5349" fill="white" transform="translate(24.5116 0.449158)"/>
</clipPath>
</defs>
</svg>
