<svg width="62" height="12" viewBox="0 0 62 12" fill="none" xmlns="http://www.w3.org/2000/svg">
<path d="M7.94754 11.5349V7.07088H9.44258L9.66623 5.33552H7.94754V4.22818C7.94754 3.72577 8.08723 3.38293 8.80752 3.38293H9.72647V1.83084C9.28161 1.78364 8.8345 1.76075 8.38714 1.76227C7.06255 1.76227 6.15578 2.571 6.15578 4.05643V5.33552H4.65753V7.07088H6.15578V11.5349H0.640827C0.470869 11.5349 0.307872 11.4674 0.187694 11.3472C0.0675155 11.227 0 11.064 0 10.8941V0.640827C0 0.470869 0.0675155 0.307872 0.187694 0.187694C0.307872 0.0675155 0.470869 0 0.640827 0H10.8941C11.064 0 11.227 0.0675155 11.3472 0.187694C11.4674 0.307872 11.5349 0.470869 11.5349 0.640827V10.8941C11.5349 11.064 11.4674 11.227 11.3472 11.3472C11.227 11.4674 11.064 11.5349 10.8941 11.5349H7.94754V11.5349Z" fill="white"/>
<path d="M61.9993 1.81854C61.4773 2.05357 60.9237 2.20792 60.3569 2.27649C60.9543 1.9128 61.4015 1.3404 61.615 0.665983C61.0543 1.00562 60.4396 1.24365 59.7989 1.37241C59.3686 0.903717 58.7981 0.592879 58.1763 0.488218C57.5545 0.383557 56.9161 0.490937 56.3604 0.793664C55.8048 1.09639 55.3629 1.5775 55.1036 2.16221C54.8442 2.74691 54.7819 3.40245 54.9264 4.0269C53.7893 3.96889 52.677 3.66813 51.6616 3.14415C50.6461 2.62017 49.7503 1.88469 49.0323 0.985441C48.7781 1.42979 48.6446 1.93492 48.6453 2.4491C48.6453 3.45828 49.1499 4.34983 49.9171 4.87182C49.4631 4.85728 49.019 4.73247 48.622 4.50782V4.54401C48.6222 5.21613 48.8507 5.86751 49.2688 6.38772C49.6869 6.90793 50.2689 7.26495 50.9161 7.39825C50.4946 7.51451 50.0527 7.53164 49.6237 7.44836C49.8062 8.02689 50.1619 8.53285 50.6409 8.89539C51.12 9.25794 51.6984 9.45892 52.2952 9.4702C51.7021 9.94439 51.0229 10.2949 50.2965 10.5018C49.5701 10.7086 48.8108 10.7677 48.062 10.6756C49.3692 11.5313 50.8908 11.9856 52.445 11.9841C57.7052 11.9841 60.5819 7.54858 60.5819 3.70187C60.5819 3.5766 60.5784 3.44993 60.573 3.32604C61.1329 2.91413 61.6161 2.40387 62 1.81923L61.9993 1.81854Z" fill="white"/>
<g clip-path="url(#clip0_7_96)">
<path d="M33.4461 0.449219H27.112C25.6758 0.449219 24.5116 1.61346 24.5116 3.04961V9.38371C24.5116 10.8199 25.6758 11.9841 27.112 11.9841H33.4461C34.8822 11.9841 36.0465 10.8199 36.0465 9.38371V3.04961C36.0465 1.61346 34.8822 0.449219 33.4461 0.449219Z" fill="white"/>
<path d="M34.1237 5.67303C34.1237 3.95217 32.3985 2.55212 30.2779 2.55212C28.1573 2.55212 26.4321 3.95217 26.4321 5.67303C26.4321 7.21582 27.8005 8.50773 29.6486 8.75212C29.7736 8.77916 29.9441 8.83467 29.9874 8.94173C30.0263 9.03905 30.0126 9.19117 30 9.28958C30 9.28958 29.955 9.56101 29.9452 9.61868C29.9283 9.71601 29.8681 9.99897 30.2783 9.82595C30.6889 9.65293 32.493 8.52179 33.2997 7.59323C33.857 6.98188 34.1241 6.36188 34.1241 5.67303H34.1237Z" fill="#060839"/>
<path d="M32.8441 6.66683H31.7638C31.723 6.66683 31.6902 6.63402 31.6902 6.59329V6.59221V4.91677V4.91497C31.6902 4.87423 31.723 4.84143 31.7638 4.84143H32.8441C32.8845 4.84143 32.9176 4.87459 32.9176 4.91497V5.18784C32.9176 5.22857 32.8848 5.26137 32.8441 5.26137H32.1098V5.5447H32.8441C32.8845 5.5447 32.9176 5.57786 32.9176 5.61823V5.89111C32.9176 5.93184 32.8848 5.96464 32.8441 5.96464H32.1098V6.24797H32.8441C32.8845 6.24797 32.9176 6.28113 32.9176 6.3215V6.59437C32.9176 6.63511 32.8848 6.66791 32.8441 6.66791V6.66683Z" fill="white"/>
<path d="M28.8476 6.66682C28.888 6.66682 28.9212 6.63402 28.9212 6.59329V6.32041C28.9212 6.28004 28.888 6.24688 28.8476 6.24688H28.1134V4.9146C28.1134 4.87423 28.0802 4.84106 28.0398 4.84106H27.767C27.7262 4.84106 27.6934 4.87387 27.6934 4.9146V6.59184V6.59329C27.6934 6.63402 27.7262 6.66682 27.767 6.66682H28.8473H28.8476Z" fill="white"/>
<path d="M29.4979 4.84143H29.2254C29.1848 4.84143 29.1519 4.87435 29.1519 4.91497V6.59329C29.1519 6.6339 29.1848 6.66683 29.2254 6.66683H29.4979C29.5385 6.66683 29.5714 6.6339 29.5714 6.59329V4.91497C29.5714 4.87435 29.5385 4.84143 29.4979 4.84143Z" fill="white"/>
<path d="M31.3547 4.84143H31.0818C31.0411 4.84143 31.0083 4.87423 31.0083 4.91497V5.91165L30.2405 4.87459C30.2387 4.87207 30.2365 4.86955 30.2347 4.86702H30.2343C30.2329 4.86486 30.2315 4.86342 30.23 4.86198L30.2286 4.8609C30.2286 4.8609 30.226 4.85873 30.2246 4.85765C30.2239 4.85729 30.2232 4.85657 30.2224 4.85621C30.2214 4.85513 30.2199 4.85441 30.2185 4.85369C30.2178 4.85333 30.217 4.85261 30.2163 4.85224C30.2149 4.85152 30.2138 4.8508 30.2124 4.85008C30.2116 4.84972 30.2109 4.84936 30.2102 4.849C30.2087 4.84828 30.2073 4.84756 30.2059 4.8472L30.2033 4.84648C30.2033 4.84648 30.2005 4.8454 30.199 4.84504C30.1983 4.84504 30.1972 4.84467 30.1965 4.84431C30.195 4.84431 30.1936 4.84359 30.1922 4.84323C30.1911 4.84323 30.19 4.84323 30.1889 4.84287C30.1875 4.84287 30.1864 4.84251 30.185 4.84251C30.1835 4.84251 30.1824 4.84251 30.181 4.84251C30.1803 4.84251 30.1792 4.84251 30.1785 4.84251H29.9074C29.867 4.84251 29.8339 4.87531 29.8339 4.91605V6.59437C29.8339 6.63474 29.8667 6.66791 29.9074 6.66791H30.1803C30.221 6.66791 30.2538 6.63511 30.2538 6.59437V5.59769L31.0227 6.63619C31.0281 6.64376 31.0346 6.64988 31.0418 6.65457L31.0425 6.65529C31.0425 6.65529 31.0454 6.65709 31.0472 6.65817C31.0479 6.65854 31.0486 6.6589 31.0494 6.65926C31.0504 6.65998 31.0519 6.66034 31.053 6.66106C31.054 6.66178 31.0555 6.66214 31.0566 6.6625C31.0573 6.6625 31.058 6.66322 31.0587 6.66322C31.0605 6.66394 31.062 6.6643 31.0638 6.66466H31.0649C31.071 6.66647 31.0775 6.66755 31.084 6.66755H31.355C31.3954 6.66755 31.4286 6.63474 31.4286 6.59401V4.91569C31.4286 4.87531 31.3958 4.84215 31.355 4.84215L31.3547 4.84143Z" fill="white"/>
</g>
<defs>
<clipPath id="clip0_7_96">
<rect width="11.5349" height="11.5349" fill="white" transform="translate(24.5116 0.449219)"/>
</clipPath>
</defs>
</svg>
