<svg width="10" height="14" viewBox="0 0 10 14" fill="none" xmlns="http://www.w3.org/2000/svg">
<path d="M4.81302 0.236206C2.29954 0.236206 0.261963 2.07156 0.261963 4.33559C0.261963 6.59962 4.81302 12.6709 4.81302 12.6709C4.81302 12.6709 9.36407 6.59956 9.36407 4.33559C9.36407 2.07162 7.32643 0.236206 4.81302 0.236206ZM4.81302 6.7366C3.26905 6.7366 2.01736 5.60919 2.01736 4.2184C2.01736 2.8276 3.26898 1.70019 4.81302 1.70019C6.35705 1.70019 7.60868 2.8276 7.60868 4.2184C7.60868 5.60919 6.35705 6.7366 4.81302 6.7366Z" fill="#F900C0"/>
<path d="M4.81337 13.0932L4.59598 12.8032C4.58456 12.788 3.43951 11.2572 2.30986 9.46918C0.777166 7.04324 0 5.31604 0 4.33566C0 3.75046 0.127287 3.18262 0.378386 2.64798C0.620828 2.13165 0.967867 1.66801 1.4098 1.26994C1.85179 0.87187 2.36652 0.559273 2.93967 0.340892C3.53328 0.114654 4.16368 0 4.81337 0C5.46305 0 6.09345 0.114654 6.687 0.340833C7.26022 0.559214 7.77494 0.871811 8.21687 1.26988C8.65887 1.66795 9.00584 2.13165 9.24828 2.64792C9.49938 3.18262 9.62667 3.7504 9.62667 4.3356C9.62667 5.31604 8.8495 7.04319 7.31681 9.46918C6.18716 11.2572 5.04217 12.788 5.03069 12.8032L4.8133 13.0932H4.81337ZM4.81337 0.472558C2.44855 0.472558 0.524625 2.20555 0.524625 4.33566C0.524625 5.22011 1.29904 6.91359 2.76425 9.23296C3.59243 10.544 4.42914 11.7158 4.81337 12.2433C5.19759 11.7158 6.0343 10.544 6.86248 9.23296C8.32763 6.91359 9.10211 5.22011 9.10211 4.33566C9.10211 2.20555 7.17818 0.472558 4.81337 0.472558V0.472558ZM4.81337 6.97295C4.40068 6.97295 4.0002 6.90012 3.62299 6.7564C3.25884 6.61765 2.9318 6.41905 2.65106 6.16618C2.37032 5.9133 2.14985 5.61872 1.9958 5.2907C1.83625 4.95099 1.75539 4.59019 1.75539 4.21847C1.75539 3.84674 1.83625 3.48594 1.9958 3.14623C2.14985 2.81822 2.37025 2.52364 2.65106 2.27076C2.9318 2.01788 3.25884 1.81929 3.62299 1.68054C4.00013 1.53682 4.40068 1.46399 4.81337 1.46399C5.22605 1.46399 5.62653 1.53682 6.00374 1.68054C6.3679 1.81929 6.69493 2.01782 6.97567 2.27076C7.25641 2.52364 7.47689 2.81822 7.63093 3.14623C7.79048 3.48594 7.87134 3.84674 7.87134 4.21847C7.87134 4.59019 7.79048 4.95099 7.63093 5.2907C7.47689 5.61872 7.25648 5.9133 6.97567 6.16618C6.69493 6.41905 6.3679 6.61765 6.00374 6.7564C5.6266 6.90012 5.22605 6.97295 4.81337 6.97295V6.97295ZM4.81337 1.9366C3.41649 1.9366 2.28002 2.96028 2.28002 4.21853C2.28002 5.47677 3.41649 6.50045 4.81337 6.50045C6.21025 6.50045 7.34671 5.47677 7.34671 4.21853C7.34671 2.96028 6.21025 1.9366 4.81337 1.9366V1.9366Z" fill="#F900C0"/>
</svg>
