<svg width="44" height="44" viewBox="0 0 44 44" fill="none" xmlns="http://www.w3.org/2000/svg">
<circle cx="22.4743" cy="21.5256" r="21.5256" fill="white"/>
<path d="M7.59653 19.4774C7.64475 19.3384 7.69 19.1987 7.74268 19.061C8.13588 18.0234 9.15522 17.3655 10.4283 17.3615C13.3513 17.3529 16.2751 17.3582 19.1988 17.3595C19.6098 17.3595 19.8584 17.5484 19.8643 17.8484C19.8702 18.1584 19.618 18.3526 19.1892 18.3526C16.876 18.3546 14.5635 18.3533 12.2504 18.3533C11.6487 18.3533 11.0478 18.3493 10.4461 18.3539C9.40746 18.3632 8.70861 18.9931 8.70787 19.9217C8.70564 22.3602 8.70564 24.7986 8.70787 27.2377C8.70861 28.1477 9.37853 28.7669 10.3919 28.8035C10.4661 28.8062 10.5396 28.8048 10.6138 28.8048C18.0793 28.8048 25.5456 28.8048 33.0112 28.8062C33.4252 28.8062 33.8228 28.7696 34.173 28.5474C34.6426 28.2494 34.9045 27.8437 34.9052 27.3289C34.9111 24.8325 34.9126 22.3355 34.9052 19.8392C34.903 19.0543 34.2546 18.4391 33.3806 18.3646C33.2612 18.3546 33.1403 18.3546 33.0201 18.3546C30.1987 18.3546 27.3766 18.3546 24.5552 18.3533C24.435 18.3533 24.3134 18.3533 24.1961 18.336C23.938 18.2967 23.7562 18.0972 23.7518 17.8644C23.7473 17.6322 23.9216 17.4287 24.1791 17.3795C24.2777 17.3609 24.3809 17.3589 24.4825 17.3589C27.3595 17.3575 30.2365 17.3555 33.1143 17.3589C34.837 17.3609 36.0188 18.4264 36.0195 19.9729C36.021 22.3701 36.0203 24.7673 36.0195 27.1646C36.0195 28.7423 34.8488 29.7972 33.0824 29.7999C30.261 29.8039 27.4389 29.8012 24.6175 29.8012C19.9363 29.8012 15.255 29.7972 10.5744 29.8039C9.43565 29.8059 8.55578 29.4141 7.95634 28.5354C7.77606 28.2734 7.71968 27.9707 7.59653 27.6894C7.59653 24.9523 7.59653 22.2145 7.59653 19.4774Z" fill="black"/>
<path d="M29.5271 11.4241C29.5182 11.6229 29.4159 11.7713 29.2155 11.8591C28.9915 11.9575 28.783 11.9216 28.6005 11.7739C28.2852 11.5185 27.9766 11.2564 27.6376 11.0243C23.8992 8.45813 18.6192 8.70756 15.2118 11.6123C15.1517 11.6635 15.0931 11.7174 15.0293 11.7646C14.7629 11.9642 14.4491 11.9582 14.2347 11.7526C14.0225 11.5498 14.0314 11.2571 14.2733 11.0403C14.7978 10.57 15.3713 10.1516 15.9967 9.79376C20.2328 7.3726 25.6159 7.84686 29.2512 10.9578C29.4018 11.0868 29.539 11.2185 29.5271 11.4234V11.4241Z" fill="black"/>
<path d="M19.58 23.9604C19.58 23.2067 19.5793 22.4537 19.58 21.7C19.5807 21.3195 19.7952 21.0907 20.1402 21.0973C20.477 21.1033 20.6885 21.3281 20.6892 21.692C20.6915 22.9114 20.6907 24.1301 20.6892 25.3494C20.6892 25.702 20.5364 25.9242 20.2537 26C19.9562 26.0798 19.721 25.9847 19.4887 25.6827C18.8692 24.8798 18.2511 24.0755 17.6309 23.2693C17.5366 23.3152 17.5812 23.3897 17.5804 23.4462C17.5767 24.1261 17.5804 24.8066 17.5767 25.4865C17.5745 25.8404 17.3712 26.0539 17.041 26.0645C16.6923 26.0758 16.4697 25.8623 16.4682 25.5018C16.4653 24.3157 16.4675 23.1302 16.4675 21.9441C16.4675 21.8277 16.4675 21.712 16.469 21.5956C16.4734 21.3601 16.6062 21.1978 16.8496 21.1299C17.09 21.0627 17.3133 21.1179 17.4654 21.3089C17.7333 21.6461 17.9922 21.9894 18.2549 22.33C18.6793 22.8801 19.1037 23.4296 19.5281 23.9797L19.5793 23.9604H19.58Z" fill="black"/>
<path d="M22.3231 10.7666C23.9471 10.7872 25.7825 11.4531 27.3219 12.7734C27.5133 12.9377 27.6031 13.1252 27.5178 13.3541C27.4436 13.5529 27.2722 13.6614 27.04 13.6807C26.8174 13.6993 26.6594 13.5882 26.5073 13.4578C25.5859 12.6656 24.508 12.1282 23.2534 11.902C20.9603 11.489 18.9364 11.9858 17.1915 13.3847C17.1292 13.4345 17.0728 13.4898 17.0098 13.5376C16.7494 13.7345 16.4237 13.7292 16.213 13.527C16.003 13.3261 16.0119 13.0288 16.2516 12.814C16.8035 12.3184 17.4267 11.9054 18.1181 11.5788C19.2695 11.034 20.51 10.7646 22.3231 10.7666V10.7666Z" fill="black"/>
<path d="M22.0021 13.6081C23.0869 13.6307 24.1739 13.9992 25.079 14.7716C25.364 15.015 25.3944 15.3224 25.1636 15.5366C24.9314 15.7514 24.6213 15.7381 24.3282 15.5013C22.8406 14.2999 20.8684 14.2999 19.3697 15.5013C19.0662 15.7448 18.7479 15.7508 18.5157 15.5173C18.2931 15.2938 18.3287 15.019 18.6114 14.7716C19.4453 14.0411 20.6488 13.6081 22.0029 13.6074L22.0021 13.6081Z" fill="black"/>
<path d="M28.0812 23.5685C28.0812 22.9392 28.0797 22.3099 28.0812 21.6806C28.0827 21.3233 28.3023 21.0965 28.6384 21.0972C28.9753 21.0985 29.1904 21.3233 29.1904 21.6839C29.1919 22.9511 29.1919 24.2177 29.1904 25.485C29.1904 25.8502 28.9797 26.0657 28.634 26.0644C28.2904 26.0631 28.0827 25.8469 28.0812 25.481C28.079 24.843 28.0812 24.2058 28.0812 23.5678V23.5685Z" fill="black"/>
<path d="M22.3617 17.8518C22.3654 18.1199 22.1287 18.3401 21.8283 18.3487C21.5144 18.358 21.2577 18.1412 21.254 17.8631C21.2503 17.5877 21.5062 17.3589 21.8149 17.3628C22.1132 17.3668 22.358 17.5857 22.3617 17.8518V17.8518Z" fill="black"/>
<path d="M12.578 21.0944C11.051 21.0944 9.81196 22.204 9.80751 23.5757C9.80306 24.9494 11.031 26.059 12.5639 26.067C14.0886 26.0749 15.3373 24.9727 15.3566 23.601C15.3759 22.2366 14.1101 21.0944 12.578 21.0938V21.0944ZM12.5839 25.0711C11.6676 25.0751 10.9256 24.4205 10.9182 23.6003C10.9108 22.7655 11.6439 22.0949 12.5706 22.0896C13.4861 22.0843 14.2526 22.7694 14.2467 23.589C14.2415 24.4046 13.498 25.0671 12.5839 25.0711Z" fill="black"/>
<path d="M32.6991 24.2568C32.5581 24.1218 32.5885 24.0859 32.7651 24.0174C33.5093 23.7273 33.907 23.0867 33.7935 22.3942C33.6837 21.7237 33.0382 21.1762 32.2391 21.1157C31.7976 21.0824 31.3517 21.0924 30.908 21.0977C30.5059 21.1023 30.3033 21.2973 30.3026 21.6638C30.3003 22.941 30.3003 24.2183 30.3026 25.4955C30.3026 25.8467 30.5096 26.0596 30.8435 26.0656C31.1914 26.0722 31.4088 25.856 31.4118 25.4948C31.4148 25.1655 31.4118 24.8362 31.4118 24.4464C31.9008 24.944 32.3393 25.393 32.7807 25.8401C33.0345 26.0968 33.3609 26.1401 33.6087 25.9545C33.8699 25.7589 33.8781 25.4596 33.6184 25.1881C33.3172 24.8735 33.0159 24.5588 32.6998 24.2562L32.6991 24.2568ZM32.0069 23.1639C31.6126 23.1745 31.4153 22.9942 31.4148 22.623C31.4143 22.2385 31.6255 22.0616 32.0484 22.0922C32.4416 22.1208 32.7073 22.3476 32.6961 22.6463C32.685 22.941 32.4031 23.1526 32.0076 23.1632L32.0069 23.1639Z" fill="black"/>
<path d="M26.9193 25.3677C26.3784 24.0758 25.8375 22.7839 25.2922 21.4934C25.1876 21.2453 24.9783 21.1023 24.6801 21.0989C24.3826 21.0956 24.1659 21.2287 24.0591 21.4788C23.5018 22.7833 22.9461 24.0878 22.3978 25.3949C22.285 25.6644 22.4267 25.9358 22.7013 26.0336C22.9921 26.1373 23.2904 26.0216 23.4269 25.7435C23.5048 25.5852 23.579 25.4236 23.6354 25.2579C23.6777 25.1348 23.7452 25.0923 23.8906 25.0943C24.4085 25.1023 24.9264 25.1036 25.4443 25.0943C25.5964 25.0916 25.652 25.1468 25.6951 25.2626C25.7619 25.4428 25.8338 25.6231 25.9243 25.7941C26.0393 26.0123 26.2894 26.1067 26.5513 26.0522C26.7887 26.003 26.9646 25.8061 26.9705 25.5413C26.9616 25.51 26.9482 25.4362 26.9193 25.367V25.3677ZM24.1362 24.0971C24.3106 23.6827 24.4797 23.2809 24.6682 22.8325C24.8559 23.2775 25.0251 23.6807 25.2002 24.0971H24.1362V24.0971Z" fill="black"/>
</svg>
