<svg width="7" height="9" viewBox="0 0 7 9" fill="none" xmlns="http://www.w3.org/2000/svg">
<path d="M3.39207 0.249512C1.87563 0.249512 0.646313 1.40587 0.646313 2.83231C0.646313 4.25875 3.39207 8.08395 3.39207 8.08395C3.39207 8.08395 6.13783 4.25871 6.13783 2.83231C6.13783 1.40591 4.90847 0.249512 3.39207 0.249512ZM3.39207 4.34505C2.46056 4.34505 1.70538 3.63474 1.70538 2.75847C1.70538 1.88221 2.46052 1.17189 3.39207 1.17189C4.32363 1.17189 5.07876 1.88221 5.07876 2.75847C5.07876 3.63474 4.32363 4.34505 3.39207 4.34505Z" fill="white"/>
<path d="M3.39202 8.35016L3.26086 8.16743C3.25398 8.15782 2.56314 7.19335 1.88159 6.06684C0.956882 4.53839 0.487999 3.45018 0.487999 2.83249C0.487999 2.46379 0.564794 2.10603 0.716288 1.76918C0.862559 1.44387 1.07194 1.15175 1.33856 0.900951C1.60523 0.650148 1.91578 0.453197 2.26157 0.315607C2.61971 0.173068 3.00005 0.10083 3.39202 0.10083C3.78399 0.10083 4.16432 0.173068 4.52243 0.31557C4.86826 0.45316 5.17881 0.65011 5.44543 0.900913C5.7121 1.15172 5.92144 1.44387 6.06771 1.76914C6.2192 2.10603 6.296 2.46375 6.296 2.83246C6.296 3.45018 5.82712 4.53836 4.90241 6.06684C4.22086 7.19339 3.53006 8.15782 3.52314 8.16743L3.39198 8.35016H3.39202ZM3.39202 0.398563C1.96527 0.398563 0.804518 1.49043 0.804518 2.83249C0.804518 3.38974 1.27174 4.4567 2.15574 5.91801C2.6554 6.74404 3.16021 7.4823 3.39202 7.81465C3.62383 7.4823 4.12864 6.74404 4.6283 5.91801C5.51226 4.4567 5.97952 3.38974 5.97952 2.83249C5.97952 1.49043 4.81877 0.398563 3.39202 0.398563V0.398563ZM3.39202 4.49411C3.14304 4.49411 2.90141 4.44822 2.67384 4.35767C2.45413 4.27025 2.25682 4.14513 2.08745 3.9858C1.91807 3.82648 1.78505 3.64088 1.69212 3.43421C1.59585 3.22018 1.54707 2.99286 1.54707 2.75866C1.54707 2.52445 1.59585 2.29713 1.69212 2.0831C1.78505 1.87644 1.91803 1.69084 2.08745 1.53151C2.25682 1.37219 2.45413 1.24707 2.67384 1.15964C2.90138 1.0691 3.14304 1.02321 3.39202 1.02321C3.641 1.02321 3.88262 1.0691 4.1102 1.15964C4.3299 1.24707 4.52721 1.37215 4.69659 1.53151C4.86597 1.69084 4.99898 1.87644 5.09192 2.0831C5.18818 2.29713 5.23697 2.52445 5.23697 2.75866C5.23697 2.99286 5.18818 3.22018 5.09192 3.43421C4.99898 3.64088 4.86601 3.82648 4.69659 3.9858C4.52721 4.14513 4.3299 4.27025 4.1102 4.35767C3.88266 4.44822 3.641 4.49411 3.39202 4.49411V4.49411ZM3.39202 1.32098C2.54925 1.32098 1.86359 1.96594 1.86359 2.75869C1.86359 3.55145 2.54925 4.19641 3.39202 4.19641C4.23479 4.19641 4.92045 3.55145 4.92045 2.75869C4.92045 1.96594 4.23479 1.32098 3.39202 1.32098V1.32098Z" fill="white"/>
</svg>
