<svg width="6" height="9" viewBox="0 0 6 9" fill="none" xmlns="http://www.w3.org/2000/svg">
<path d="M3.00008 0.147156C1.43351 0.147156 0.163548 1.29146 0.163548 2.70302C0.163548 4.11459 3.00008 7.8999 3.00008 7.8999C3.00008 7.8999 5.83661 4.11455 5.83661 2.70302C5.83661 1.29149 4.56661 0.147156 3.00008 0.147156ZM3.00008 4.19999C2.03777 4.19999 1.25763 3.49708 1.25763 2.62995C1.25763 1.76283 2.03773 1.05992 3.00008 1.05992C3.96243 1.05992 4.74252 1.76283 4.74252 2.62995C4.74252 3.49708 3.96243 4.19999 3.00008 4.19999Z" fill="white"/>
<path d="M3.00002 8.16331L2.86453 7.98248C2.85742 7.97298 2.14374 7.01857 1.43966 5.9038C0.484383 4.39129 0 3.31442 0 2.70318C0 2.33832 0.0793341 1.98429 0.235836 1.65095C0.386943 1.32903 0.603241 1.03997 0.878683 0.791777C1.15417 0.54359 1.47498 0.348693 1.8322 0.212538C2.20218 0.0714842 2.59509 0 3.00002 0C3.40495 0 3.79786 0.0714842 4.1678 0.212501C4.52507 0.348656 4.84588 0.543553 5.12132 0.791741C5.3968 1.03993 5.61306 1.32903 5.76416 1.65091C5.92067 1.98429 6 2.33828 6 2.70314C6 3.31442 5.51562 4.39125 4.56034 5.9038C3.85626 7.0186 3.14263 7.97298 3.13547 7.98248L2.99998 8.16331H3.00002ZM3.00002 0.294629C1.52611 0.294629 0.326982 1.37511 0.326982 2.70318C0.326982 3.25461 0.809649 4.31045 1.72287 5.75653C2.23905 6.57394 2.76055 7.3045 3.00002 7.63338C3.23949 7.3045 3.76099 6.57394 4.27717 5.75653C5.19035 4.31045 5.67306 3.25461 5.67306 2.70318C5.67306 1.37511 4.47393 0.294629 3.00002 0.294629V0.294629ZM3.00002 4.34746C2.74281 4.34746 2.4932 4.30206 2.2581 4.21245C2.03113 4.12594 1.8273 4.00212 1.65232 3.84446C1.47735 3.6868 1.33993 3.50313 1.24392 3.29862C1.14448 3.08682 1.09408 2.86187 1.09408 2.63011C1.09408 2.39835 1.14448 2.1734 1.24392 1.9616C1.33993 1.75709 1.47731 1.57343 1.65232 1.41576C1.8273 1.2581 2.03113 1.13428 2.2581 1.04777C2.49316 0.958169 2.74281 0.912759 3.00002 0.912759C3.25723 0.912759 3.50684 0.958169 3.74194 1.04777C3.96891 1.13428 4.17274 1.25806 4.34772 1.41576C4.52269 1.57343 4.66011 1.75709 4.75612 1.9616C4.85556 2.1734 4.90596 2.39835 4.90596 2.63011C4.90596 2.86187 4.85556 3.08682 4.75612 3.29862C4.66011 3.50313 4.52274 3.6868 4.34772 3.84446C4.17274 4.00212 3.96891 4.12594 3.74194 4.21245C3.50688 4.30206 3.25723 4.34746 3.00002 4.34746V4.34746ZM3.00002 1.20742C2.12939 1.20742 1.42106 1.84566 1.42106 2.63015C1.42106 3.41463 2.12939 4.05287 3.00002 4.05287C3.87065 4.05287 4.57898 3.41463 4.57898 2.63015C4.57898 1.84566 3.87065 1.20742 3.00002 1.20742V1.20742Z" fill="white"/>
</svg>
