<svg width="6" height="9" viewBox="0 0 6 9" fill="none" xmlns="http://www.w3.org/2000/svg">
<path d="M3.00008 0.217155C1.43351 0.217155 0.163548 1.36146 0.163548 2.77302C0.163548 4.18459 3.00008 7.9699 3.00008 7.9699C3.00008 7.9699 5.83661 4.18455 5.83661 2.77302C5.83661 1.36149 4.56661 0.217155 3.00008 0.217155ZM3.00008 4.26999C2.03777 4.26999 1.25763 3.56708 1.25763 2.69995C1.25763 1.83282 2.03773 1.12991 3.00008 1.12991C3.96243 1.12991 4.74252 1.83282 4.74252 2.69995C4.74252 3.56708 3.96243 4.26999 3.00008 4.26999Z" fill="white"/>
<path d="M3.00002 8.23332L2.86453 8.05249C2.85742 8.04299 2.14374 7.08857 1.43966 5.97381C0.484383 4.4613 0 3.38443 0 2.77319C0 2.40833 0.0793341 2.05429 0.235836 1.72096C0.386943 1.39904 0.603241 1.10997 0.878683 0.861785C1.15417 0.613597 1.47498 0.4187 1.8322 0.282545C2.20218 0.141492 2.59509 0.0700073 3.00002 0.0700073C3.40495 0.0700073 3.79786 0.141492 4.1678 0.282508C4.52507 0.418663 4.84588 0.61356 5.12132 0.861748C5.3968 1.10994 5.61306 1.39904 5.76416 1.72092C5.92067 2.05429 6 2.40829 6 2.77315C6 3.38443 5.51562 4.46126 4.56034 5.97381C3.85626 7.08861 3.14263 8.04299 3.13547 8.05249L2.99998 8.23332H3.00002ZM3.00002 0.364636C1.52611 0.364636 0.326982 1.44511 0.326982 2.77319C0.326982 3.32462 0.809649 4.38046 1.72287 5.82653C2.23905 6.64394 2.76055 7.37451 3.00002 7.70339C3.23949 7.37451 3.76099 6.64394 4.27717 5.82653C5.19035 4.38046 5.67306 3.32462 5.67306 2.77319C5.67306 1.44511 4.47393 0.364636 3.00002 0.364636V0.364636ZM3.00002 4.41747C2.74281 4.41747 2.4932 4.37206 2.2581 4.28246C2.03113 4.19595 1.8273 4.07213 1.65232 3.91447C1.47735 3.7568 1.33993 3.57314 1.24392 3.36863C1.14448 3.15683 1.09408 2.93188 1.09408 2.70012C1.09408 2.46836 1.14448 2.24341 1.24392 2.03161C1.33993 1.8271 1.47731 1.64343 1.65232 1.48577C1.8273 1.32811 2.03113 1.20429 2.2581 1.11778C2.49316 1.02818 2.74281 0.982767 3.00002 0.982767C3.25723 0.982767 3.50684 1.02818 3.74194 1.11778C3.96891 1.20429 4.17274 1.32807 4.34772 1.48577C4.52269 1.64343 4.66011 1.8271 4.75612 2.03161C4.85556 2.24341 4.90596 2.46836 4.90596 2.70012C4.90596 2.93188 4.85556 3.15683 4.75612 3.36863C4.66011 3.57314 4.52274 3.7568 4.34772 3.91447C4.17274 4.07213 3.96891 4.19595 3.74194 4.28246C3.50688 4.37206 3.25723 4.41747 3.00002 4.41747V4.41747ZM3.00002 1.27743C2.12939 1.27743 1.42106 1.91567 1.42106 2.70016C1.42106 3.48464 2.12939 4.12288 3.00002 4.12288C3.87065 4.12288 4.57898 3.48464 4.57898 2.70016C4.57898 1.91567 3.87065 1.27743 3.00002 1.27743V1.27743Z" fill="white"/>
</svg>
