<svg width="16" height="11" viewBox="0 0 16 11" fill="none" xmlns="http://www.w3.org/2000/svg">
<path d="M0.571533 6.1427C0.597256 6.07798 0.621395 6.01294 0.649492 5.94884C0.859229 5.46572 1.40296 5.15944 2.08203 5.15759C3.64121 5.15356 5.20078 5.15604 6.76035 5.15666C6.97959 5.15666 7.11216 5.24461 7.11532 5.38428C7.11849 5.52859 6.98394 5.61902 6.75521 5.61902C5.52132 5.61995 4.28783 5.61933 3.05395 5.61933C2.73301 5.61933 2.41247 5.61747 2.09153 5.61964C1.53751 5.62397 1.16473 5.91725 1.16434 6.34957C1.16315 7.48489 1.16315 8.6202 1.16434 9.75582C1.16473 10.1795 1.52208 10.4678 2.06264 10.4848C2.10222 10.4861 2.14139 10.4854 2.18097 10.4854C6.1632 10.4854 10.1458 10.4854 14.1281 10.4861C14.3489 10.4861 14.561 10.469 14.7478 10.3656C14.9983 10.2269 15.138 10.0379 15.1384 9.79825C15.1415 8.63599 15.1423 7.47343 15.1384 6.31117C15.1372 5.94574 14.7913 5.65928 14.3251 5.62459C14.2614 5.61995 14.1969 5.61995 14.1328 5.61995C12.6278 5.61995 11.1225 5.61995 9.61752 5.61933C9.55342 5.61933 9.48852 5.61933 9.42599 5.61128C9.28828 5.59301 9.19132 5.5001 9.18895 5.39171C9.18657 5.28363 9.27957 5.18886 9.41689 5.16595C9.46952 5.15728 9.52453 5.15635 9.57874 5.15635C11.1134 5.15573 12.648 5.1548 14.1831 5.15635C15.1019 5.15728 15.7323 5.65339 15.7327 6.37342C15.7335 7.48953 15.7331 8.60564 15.7327 9.72176C15.7327 10.4563 15.1083 10.9475 14.166 10.9487C12.6611 10.9506 11.1557 10.9494 9.65077 10.9494C7.15371 10.9494 4.65665 10.9475 2.15999 10.9506C1.55255 10.9515 1.08321 10.7691 0.763462 10.36C0.6673 10.238 0.637224 10.0971 0.571533 9.9661C0.571533 8.69174 0.571533 7.41706 0.571533 6.1427Z" fill="white"/>
<path d="M12.2695 2.39313C12.2647 2.48573 12.2101 2.55479 12.1032 2.59567C11.9837 2.6415 11.8725 2.62478 11.7752 2.55603C11.607 2.43711 11.4424 2.31509 11.2615 2.20701C9.26745 1.01224 6.45104 1.12837 4.63345 2.48077C4.6014 2.50462 4.57013 2.5297 4.5361 2.55169C4.39403 2.6446 4.22664 2.64181 4.11227 2.54612C3.99909 2.45166 4.00384 2.3154 4.13285 2.21444C4.41263 1.99549 4.71853 1.8007 5.05213 1.63409C7.31175 0.506826 10.1832 0.727633 12.1222 2.17604C12.2026 2.23612 12.2758 2.29744 12.2695 2.39282V2.39313Z" fill="white"/>
<path d="M6.96342 8.22939C6.96342 7.87847 6.96303 7.52787 6.96342 7.17696C6.96382 6.9998 7.0782 6.89325 7.26223 6.89635C7.44191 6.89914 7.5547 7.00382 7.5551 7.17324C7.55629 7.74096 7.55589 8.30836 7.5551 8.87608C7.5551 9.04023 7.47357 9.14368 7.32278 9.17899C7.16408 9.21615 7.03862 9.17186 6.91474 9.03125C6.58427 8.65742 6.2546 8.28297 5.92373 7.90759C5.87347 7.92896 5.89721 7.96365 5.89682 7.98997C5.89484 8.30651 5.89682 8.62335 5.89484 8.93988C5.89365 9.10465 5.78521 9.20407 5.60909 9.20903C5.42308 9.21429 5.30435 9.11487 5.30356 8.94701C5.30197 8.39478 5.30316 7.84285 5.30316 7.29062C5.30316 7.23642 5.30316 7.18253 5.30395 7.12833C5.30633 7.01869 5.37717 6.94312 5.50698 6.91153C5.63521 6.88025 5.75434 6.90595 5.83547 6.99484C5.97835 7.15187 6.11647 7.31169 6.25657 7.47026C6.48296 7.7264 6.70934 7.98223 6.93572 8.23837L6.96303 8.22939H6.96342Z" fill="white"/>
<path d="M8.42701 2.08637C9.29327 2.09597 10.2723 2.40597 11.0934 3.0207C11.1955 3.09719 11.2434 3.18452 11.1979 3.29105C11.1583 3.38365 11.0669 3.43413 10.9431 3.44311C10.8243 3.45178 10.7401 3.40006 10.6589 3.33936C10.1674 2.97053 9.59244 2.7203 8.92326 2.61501C7.70006 2.42269 6.62051 2.65403 5.68975 3.3053C5.65651 3.32853 5.62643 3.35423 5.5928 3.37653C5.45389 3.46819 5.28017 3.46572 5.16778 3.37157C5.05579 3.27805 5.06054 3.13962 5.18836 3.03959C5.48278 2.80887 5.8152 2.61655 6.18402 2.4645C6.79819 2.21086 7.45985 2.08544 8.42701 2.08637V2.08637Z" fill="white"/>
<path d="M8.25582 3.41037C8.83444 3.4209 9.41425 3.59249 9.89709 3.95207C10.0491 4.06543 10.0653 4.20852 9.94221 4.30825C9.81833 4.40829 9.6529 4.4021 9.49657 4.29184C8.70305 3.73248 7.65109 3.73248 6.85163 4.29184C6.68976 4.40519 6.51997 4.40798 6.3961 4.29927C6.27736 4.1952 6.29636 4.06729 6.44715 3.95207C6.892 3.612 7.53394 3.41037 8.25622 3.41006L8.25582 3.41037Z" fill="white"/>
<path d="M11.4981 8.04689C11.4981 7.7539 11.4973 7.46091 11.4981 7.16791C11.4989 7.00159 11.616 6.89598 11.7953 6.89629C11.975 6.89691 12.0898 7.00159 12.0898 7.16946C12.0906 7.75947 12.0906 8.34918 12.0898 8.9392C12.0898 9.10923 11.9774 9.20958 11.7929 9.20896C11.6097 9.20834 11.4989 9.10768 11.4981 8.93734C11.4969 8.64032 11.4981 8.34361 11.4981 8.04659V8.04689Z" fill="white"/>
<path d="M8.44735 5.38587C8.44933 5.51069 8.32308 5.61321 8.16279 5.61723C7.99538 5.62157 7.85845 5.5206 7.85647 5.39114C7.85449 5.26291 7.99103 5.15637 8.15567 5.15823C8.31477 5.16009 8.44537 5.26198 8.44735 5.38587V5.38587Z" fill="white"/>
<path d="M3.22855 6.8966C2.41405 6.8966 1.75311 7.41321 1.75074 8.05185C1.74836 8.69142 2.40337 9.20803 3.22103 9.21175C4.03434 9.21547 4.70042 8.70226 4.71071 8.06362C4.721 7.42838 4.04582 6.8966 3.22855 6.89629V6.8966ZM3.23171 8.7481C2.74294 8.74996 2.34717 8.44519 2.34321 8.06331C2.33925 7.67461 2.73027 7.36241 3.22459 7.35994C3.71297 7.35746 4.1218 7.67647 4.11864 8.05804C4.11587 8.43776 3.7193 8.74624 3.23171 8.7481Z" fill="white"/>
<path d="M13.9616 8.36833C13.8864 8.30545 13.9026 8.28873 13.9968 8.25683C14.3938 8.12179 14.6059 7.82353 14.5454 7.50111C14.4868 7.18891 14.1425 6.93401 13.7162 6.90583C13.4807 6.89034 13.2429 6.89499 13.0062 6.89747C12.7917 6.89964 12.6837 6.99038 12.6833 7.16104C12.6821 7.7557 12.6821 8.35036 12.6833 8.94502C12.6833 9.10856 12.7937 9.20767 12.9718 9.21045C13.1574 9.21355 13.2734 9.11289 13.2749 8.94471C13.2765 8.7914 13.2749 8.63809 13.2749 8.4566C13.5358 8.68827 13.7697 8.89733 14.0051 9.10546C14.1405 9.22501 14.3146 9.24514 14.4468 9.15873C14.5861 9.06767 14.5905 8.9283 14.452 8.80193C14.2913 8.65544 14.1306 8.50894 13.962 8.36802L13.9616 8.36833ZM13.5924 7.85946C13.3821 7.86441 13.2768 7.78048 13.2765 7.60765C13.2763 7.42864 13.3889 7.34625 13.6145 7.3605C13.8243 7.37382 13.966 7.47943 13.96 7.61849C13.9541 7.7557 13.8037 7.85419 13.5927 7.85915L13.5924 7.85946Z" fill="white"/>
<path d="M10.8784 8.88379C10.5899 8.28231 10.3014 7.68083 10.0105 7.07998C9.95466 6.96445 9.84306 6.89786 9.68396 6.89631C9.52525 6.89477 9.40969 6.95671 9.3527 7.07316C9.05547 7.68052 8.75904 8.28788 8.46656 8.89648C8.40641 9.02192 8.482 9.14829 8.62843 9.19381C8.78358 9.24213 8.94268 9.18824 9.0155 9.05878C9.05705 8.98506 9.09663 8.9098 9.12671 8.83268C9.14927 8.77538 9.18528 8.75556 9.26286 8.75649C9.5391 8.76021 9.81535 8.76083 10.0916 8.75649C10.1727 8.75525 10.2024 8.78096 10.2254 8.83485C10.261 8.91878 10.2994 9.00272 10.3477 9.08232C10.409 9.1839 10.5424 9.22788 10.6821 9.20249C10.8087 9.17957 10.9025 9.08789 10.9057 8.96462C10.901 8.95007 10.8938 8.91569 10.8784 8.88348V8.88379ZM9.39386 8.29222C9.48686 8.09927 9.5771 7.91219 9.67762 7.70344C9.77775 7.91065 9.86799 8.09834 9.96139 8.29222H9.39386V8.29222Z" fill="white"/>
</svg>
