<svg width="62" height="12" viewBox="0 0 62 12" fill="none" xmlns="http://www.w3.org/2000/svg">
<path d="M7.94754 11.5349V7.07088H9.44258L9.66623 5.33552H7.94754V4.22818C7.94754 3.72577 8.08723 3.38293 8.80752 3.38293H9.72647V1.83084C9.28161 1.78364 8.8345 1.76075 8.38714 1.76227C7.06255 1.76227 6.15578 2.571 6.15578 4.05643V5.33552H4.65753V7.07088H6.15578V11.5349H0.640827C0.470869 11.5349 0.307872 11.4674 0.187694 11.3472C0.0675155 11.227 0 11.064 0 10.8941V0.640827C0 0.470869 0.0675155 0.307872 0.187694 0.187694C0.307872 0.0675155 0.470869 0 0.640827 0H10.8941C11.064 0 11.227 0.0675155 11.3472 0.187694C11.4674 0.307872 11.5349 0.470869 11.5349 0.640827V10.8941C11.5349 11.064 11.4674 11.227 11.3472 11.3472C11.227 11.4674 11.064 11.5349 10.8941 11.5349H7.94754Z" fill="white"/>
<path d="M61.9993 1.81854C61.4773 2.05357 60.9237 2.20792 60.3569 2.27649C60.9543 1.9128 61.4015 1.3404 61.615 0.665983C61.0543 1.00562 60.4396 1.24365 59.7989 1.37241C59.3686 0.903717 58.7981 0.592879 58.1763 0.488218C57.5545 0.383557 56.9161 0.490937 56.3604 0.793664C55.8048 1.09639 55.3629 1.5775 55.1036 2.16221C54.8442 2.74691 54.7819 3.40245 54.9264 4.0269C53.7893 3.96889 52.677 3.66813 51.6616 3.14415C50.6461 2.62017 49.7503 1.88469 49.0323 0.985441C48.7781 1.42979 48.6446 1.93492 48.6453 2.4491C48.6453 3.45828 49.1499 4.34983 49.9171 4.87182C49.4631 4.85728 49.019 4.73247 48.622 4.50782V4.54401C48.6222 5.21613 48.8507 5.86751 49.2688 6.38772C49.6869 6.90793 50.2689 7.26495 50.9161 7.39825C50.4946 7.51451 50.0527 7.53164 49.6237 7.44836C49.8062 8.02689 50.1619 8.53285 50.6409 8.89539C51.12 9.25794 51.6984 9.45892 52.2952 9.4702C51.7021 9.94439 51.0229 10.2949 50.2965 10.5018C49.5701 10.7086 48.8108 10.7677 48.062 10.6756C49.3692 11.5313 50.8908 11.9856 52.445 11.9841C57.7052 11.9841 60.5819 7.54858 60.5819 3.70187C60.5819 3.5766 60.5784 3.44993 60.573 3.32604C61.1329 2.91413 61.6161 2.40387 62 1.81923L61.9993 1.81854Z" fill="white"/>
<g clip-path="url(#clip0_7_341)">
<path d="M33.4462 0.449219H27.1121C25.676 0.449219 24.5117 1.61346 24.5117 3.04961V9.38371C24.5117 10.8199 25.676 11.9841 27.1121 11.9841H33.4462C34.8824 11.9841 36.0466 10.8199 36.0466 9.38371V3.04961C36.0466 1.61346 34.8824 0.449219 33.4462 0.449219Z" fill="white"/>
<path d="M34.124 5.67315C34.124 3.95229 32.3988 2.55225 30.2782 2.55225C28.1576 2.55225 26.4324 3.95229 26.4324 5.67315C26.4324 7.21594 27.8007 8.50785 29.6488 8.75225C29.7739 8.77928 29.9444 8.83479 29.9876 8.94185C30.0266 9.03918 30.0129 9.19129 30.0003 9.2897C30.0003 9.2897 29.9552 9.56113 29.9455 9.6188C29.9285 9.71613 29.8683 9.99909 30.2785 9.82607C30.6891 9.65305 32.4932 8.52191 33.3 7.59335C33.8572 6.982 34.1243 6.362 34.1243 5.67315H34.124Z" fill="#060839"/>
<path d="M32.8443 6.66695H31.764C31.7232 6.66695 31.6904 6.63415 31.6904 6.59341V6.59233V4.91689V4.91509C31.6904 4.87436 31.7232 4.84155 31.764 4.84155H32.8443C32.8847 4.84155 32.9178 4.87472 32.9178 4.91509V5.18796C32.9178 5.22869 32.885 5.26149 32.8443 5.26149H32.11V5.54482H32.8443C32.8847 5.54482 32.9178 5.57798 32.9178 5.61835V5.89123C32.9178 5.93196 32.885 5.96476 32.8443 5.96476H32.11V6.24809H32.8443C32.8847 6.24809 32.9178 6.28125 32.9178 6.32162V6.59449C32.9178 6.63523 32.885 6.66803 32.8443 6.66803V6.66695Z" fill="white"/>
<path d="M28.8478 6.66706C28.8882 6.66706 28.9213 6.63426 28.9213 6.59353V6.32066C28.9213 6.28029 28.8882 6.24712 28.8478 6.24712H28.1135V4.91484C28.1135 4.87447 28.0804 4.84131 28.04 4.84131H27.7671C27.7264 4.84131 27.6936 4.87411 27.6936 4.91484V6.59209V6.59353C27.6936 6.63426 27.7264 6.66706 27.7671 6.66706H28.8475H28.8478Z" fill="white"/>
<path d="M29.4981 4.84155H29.2256C29.185 4.84155 29.1521 4.87448 29.1521 4.91509V6.59341C29.1521 6.63403 29.185 6.66695 29.2256 6.66695H29.4981C29.5388 6.66695 29.5717 6.63403 29.5717 6.59341V4.91509C29.5717 4.87448 29.5388 4.84155 29.4981 4.84155Z" fill="white"/>
<path d="M31.3548 4.84155H31.0819C31.0412 4.84155 31.0084 4.87436 31.0084 4.91509V5.91177L30.2406 4.87472C30.2388 4.87219 30.2366 4.86967 30.2348 4.86715H30.2345C30.233 4.86498 30.2316 4.86354 30.2301 4.8621L30.2287 4.86102C30.2287 4.86102 30.2262 4.85886 30.2247 4.85777C30.224 4.85741 30.2233 4.85669 30.2226 4.85633C30.2215 4.85525 30.22 4.85453 30.2186 4.85381C30.2179 4.85345 30.2172 4.85273 30.2164 4.85237C30.215 4.85165 30.2139 4.85092 30.2125 4.8502C30.2118 4.84984 30.211 4.84948 30.2103 4.84912C30.2089 4.8484 30.2074 4.84768 30.206 4.84732L30.2035 4.8466C30.2035 4.8466 30.2006 4.84552 30.1991 4.84516C30.1984 4.84516 30.1973 4.8448 30.1966 4.84444C30.1952 4.84444 30.1937 4.84372 30.1923 4.84336C30.1912 4.84336 30.1901 4.84336 30.189 4.84299C30.1876 4.84299 30.1865 4.84263 30.1851 4.84263C30.1836 4.84263 30.1826 4.84263 30.1811 4.84263C30.1804 4.84263 30.1793 4.84263 30.1786 4.84263H29.9075C29.8671 4.84263 29.834 4.87544 29.834 4.91617V6.59449C29.834 6.63487 29.8668 6.66803 29.9075 6.66803H30.1804C30.2211 6.66803 30.2539 6.63523 30.2539 6.59449V5.59781L31.0228 6.63631C31.0282 6.64388 31.0347 6.65001 31.0419 6.65469L31.0426 6.65541C31.0426 6.65541 31.0455 6.65722 31.0473 6.6583C31.048 6.65866 31.0488 6.65902 31.0495 6.65938C31.0506 6.6601 31.052 6.66046 31.0531 6.66118C31.0542 6.6619 31.0556 6.66226 31.0567 6.66262C31.0574 6.66262 31.0581 6.66334 31.0588 6.66334C31.0606 6.66406 31.0621 6.66442 31.0639 6.66479H31.065C31.0711 6.66659 31.0776 6.66767 31.0841 6.66767H31.3551C31.3955 6.66767 31.4287 6.63487 31.4287 6.59413V4.91581C31.4287 4.87544 31.3959 4.84227 31.3551 4.84227L31.3548 4.84155Z" fill="white"/>
</g>
<defs>
<clipPath id="clip0_7_341">
<rect width="11.5349" height="11.5349" fill="white" transform="translate(24.5117 0.449219)"/>
</clipPath>
</defs>
</svg>
