<svg width="36" height="33" viewBox="0 0 36 33" fill="none" xmlns="http://www.w3.org/2000/svg">
<path d="M10.0572 25.3685C10.0572 25.3685 10.0387 25.3516 10.0295 25.3432C9.88343 25.1895 9.86309 24.9683 9.97401 24.7927L15.411 16.2396L9.97586 7.68479C9.86494 7.50917 9.88528 7.28796 10.0313 7.13429C10.1774 6.98062 10.414 6.92658 10.6192 7.00257L35.0071 15.7938C35.2068 15.8647 35.3381 16.042 35.3381 16.2379C35.3381 16.4338 35.2068 16.6111 35.0071 16.682L10.6192 25.4766C10.4251 25.5458 10.2051 25.5036 10.0591 25.3702L10.0572 25.3685ZM11.636 8.39404L16.4685 15.9998C16.5627 16.1467 16.5627 16.3325 16.4685 16.4794L11.6341 24.0834L33.3932 16.2379L11.636 8.39404Z" fill="white"/>
<path d="M15.96 16.5755C15.8657 16.4894 15.8084 16.3695 15.8084 16.2378C15.8084 15.9744 16.0432 15.7599 16.3316 15.7599L33.3377 15.7616C33.6261 15.7616 33.8609 15.976 33.8609 16.2395C33.8609 16.5029 33.6261 16.7174 33.3377 16.7174L16.3298 16.714C16.1856 16.714 16.0543 16.6616 15.96 16.5755Z" fill="white"/>
</svg>
