<svg width="24" height="22" viewBox="0 0 24 22" fill="none" xmlns="http://www.w3.org/2000/svg">
<path d="M23.9493 9.68174C23.841 8.41462 23.4235 7.21147 22.7931 6.07231C22.0421 4.71402 21.0125 3.54684 19.7081 2.57495C18.0622 1.34881 16.1831 0.568878 14.0714 0.230559C13.6727 0.166575 13.2683 0.173685 12.8692 0.124756H12.7754C12.7439 0.154866 12.7027 0.143575 12.6647 0.146084C12.6346 0.146084 12.6051 0.146084 12.5751 0.146084C12.5174 0.138138 12.4541 0.164902 12.401 0.124756H11.5586C11.5056 0.164902 11.4428 0.138556 11.3846 0.146084C11.3546 0.146084 11.3246 0.146084 11.295 0.146084C11.257 0.143575 11.2157 0.154866 11.1843 0.124756H11.0441C10.7926 0.166157 10.5351 0.148593 10.2832 0.179539C8.74378 0.367727 7.3061 0.819376 5.9599 1.50856C4.71078 2.14798 3.63101 2.96722 2.71352 3.95416C1.3584 5.41282 0.494391 7.07598 0.120549 8.94279C0.0548802 9.27024 0.0567564 9.60229 0 9.92973V10.0966C0.0337724 10.1246 0.0211078 10.1614 0.0239221 10.1953C0.0239221 10.2221 0.0239221 10.2484 0.0239221 10.2752C0.01501 10.3266 0.0450299 10.3831 0 10.4303V11.0977C0.030489 11.1224 0.022515 11.1559 0.0239221 11.1868C0.0239221 11.2107 0.0239221 11.2349 0.0239221 11.2588C0.0220459 11.2897 0.030489 11.3232 0 11.3482V11.5987C0.030489 11.6272 0.0234531 11.6627 0.0239221 11.6966C0.0342415 12.4029 0.189032 13.0875 0.4048 13.7642C0.64496 14.5156 0.97987 15.2316 1.3964 15.9179C1.4888 16.0701 1.49584 16.2106 1.43439 16.3749C1.06993 17.3497 0.725169 18.3304 0.371966 19.3086C0.227495 19.7084 0.0417465 20.101 0.000469061 20.5268V20.8187C0.0290818 21.0696 0.163702 21.2661 0.4048 21.3928C0.748153 21.5739 1.11637 21.5296 1.4691 21.4317C2.71962 21.0838 3.97436 20.7438 5.20611 20.3495C5.78259 20.1646 6.2343 20.2106 6.76199 20.4599C7.9656 21.0286 9.26678 21.3443 10.6233 21.4623C11.3602 21.5263 12.0999 21.5116 12.8401 21.489C14.4204 21.4409 15.8984 21.0491 17.306 20.4364C18.6353 19.8577 19.7963 19.0723 20.8071 18.1038C21.7804 17.1712 22.5257 16.1144 23.0952 14.9514C23.9212 13.264 24.1046 11.49 23.9503 9.68174H23.9493ZM20.1711 16.0584C18.7399 17.8307 16.8295 19.0104 14.4476 19.5386C11.8218 20.1207 9.31978 19.8008 6.95806 18.6202C6.86987 18.5763 6.78075 18.5328 6.69538 18.4851C6.39143 18.3158 6.07763 18.2949 5.73568 18.3952C4.63573 18.7181 3.53203 19.0296 2.38893 19.3575C2.74542 18.3685 3.07751 17.4096 3.43963 16.4594C3.58175 16.0864 3.54188 15.7656 3.3158 15.4315C2.30497 13.9369 1.82699 12.3097 1.88 10.5679C1.93722 8.69899 2.57702 6.99819 3.83411 5.49353C5.37029 3.65473 7.38397 2.45284 9.90939 1.99325C12.796 1.468 15.4692 1.95979 17.8661 3.5C19.9811 4.85871 21.3446 6.68287 21.8662 8.96496C22.4544 11.5385 21.8977 13.9206 20.1711 16.0584V16.0584Z" fill="white"/>
<path d="M7.29159 9.76395C7.93326 9.75935 8.47081 10.2365 8.46893 10.8086C8.46705 11.3727 7.94217 11.8432 7.30894 11.8478C6.66727 11.8524 6.12972 11.3753 6.1316 10.8032C6.13347 10.239 6.65835 9.76855 7.29159 9.76395Z" fill="white"/>
<path d="M11.9715 11.8478C11.3293 11.8432 10.7997 11.3594 10.8115 10.7877C10.8227 10.2235 11.3561 9.75976 11.9888 9.76394C12.631 9.76854 13.1605 10.2524 13.1488 10.8241C13.1375 11.3882 12.6042 11.852 11.9715 11.8478Z" fill="white"/>
<path d="M16.6662 11.8474C16.0245 11.8507 15.4879 11.3731 15.4912 10.8011C15.494 10.2365 16.0199 9.76728 16.6531 9.76393C17.2948 9.76059 17.8314 10.2382 17.8281 10.8103C17.8253 11.3748 17.2995 11.844 16.6662 11.8474Z" fill="white"/>
</svg>
