<svg width="10" height="11" viewBox="0 0 10 11" fill="none" xmlns="http://www.w3.org/2000/svg">
<path d="M4.99977 0.919647C2.38881 0.919647 0.272217 2.23781 0.272217 3.86385C0.272217 5.48989 4.99977 9.85035 4.99977 9.85035C4.99977 9.85035 9.72732 5.48985 9.72732 3.86385C9.72732 2.23786 7.61065 0.919647 4.99977 0.919647ZM4.99977 5.58827C3.39592 5.58827 2.09569 4.77856 2.09569 3.77968C2.09569 2.7808 3.39585 1.97109 4.99977 1.97109C6.60368 1.97109 7.90384 2.7808 7.90384 3.77968C7.90384 4.77856 6.60368 5.58827 4.99977 5.58827Z" fill="#F900C0"/>
<path d="M5.00003 10.1536L4.77421 9.94534C4.76236 9.9344 3.57289 8.83497 2.39944 7.55083C0.807305 5.80851 0 4.56802 0 3.8639C0 3.4436 0.132223 3.03578 0.39306 2.6518C0.644904 2.28097 1.0054 1.94798 1.46447 1.66208C1.92361 1.37618 2.45829 1.15167 3.05367 0.994831C3.67031 0.832346 4.32516 0.75 5.00003 0.75C5.67491 0.75 6.32976 0.832346 6.94633 0.994788C7.54178 1.15163 8.07646 1.37614 8.53553 1.66204C8.99467 1.94794 9.3551 2.28097 9.60694 2.65175C9.86778 3.03578 10 3.44356 10 3.86386C10 4.56802 9.19269 5.80846 7.60056 7.55083C6.42711 8.83501 5.23771 9.9344 5.22579 9.94534L4.99997 10.1536H5.00003ZM5.00003 1.08939C2.54351 1.08939 0.54497 2.33404 0.54497 3.8639C0.54497 4.49912 1.34941 5.71538 2.87145 7.38118C3.73175 8.32278 4.60091 9.16435 5.00003 9.5432C5.39916 9.16435 6.26832 8.32278 7.12862 7.38118C8.65059 5.71538 9.4551 4.49912 9.4551 3.8639C9.4551 2.33404 7.45656 1.08939 5.00003 1.08939V1.08939ZM5.00003 5.75802C4.57135 5.75802 4.15533 5.70571 3.7635 5.60249C3.38522 5.50284 3.0455 5.36021 2.75387 5.17859C2.46224 4.99697 2.23322 4.7854 2.0732 4.54982C1.90746 4.30584 1.82347 4.04671 1.82347 3.77973C1.82347 3.51276 1.90746 3.25363 2.0732 3.00965C2.23322 2.77406 2.46218 2.56249 2.75387 2.38088C3.0455 2.19926 3.38522 2.05663 3.7635 1.95697C4.15526 1.85375 4.57135 1.80144 5.00003 1.80144C5.42872 1.80144 5.84474 1.85375 6.23657 1.95697C6.61485 2.05663 6.95457 2.19921 7.2462 2.38088C7.53782 2.56249 7.76685 2.77406 7.92687 3.00965C8.0926 3.25363 8.1766 3.51276 8.1766 3.77973C8.1766 4.04671 8.0926 4.30584 7.92687 4.54982C7.76685 4.7854 7.53789 4.99697 7.2462 5.17859C6.95457 5.36021 6.61485 5.50284 6.23657 5.60249C5.84481 5.70571 5.42872 5.75802 5.00003 5.75802V5.75802ZM5.00003 2.14088C3.54898 2.14088 2.36844 2.87609 2.36844 3.77977C2.36844 4.68345 3.54898 5.41867 5.00003 5.41867C6.45109 5.41867 7.63163 4.68345 7.63163 3.77977C7.63163 2.87609 6.45109 2.14088 5.00003 2.14088V2.14088Z" fill="#F900C0"/>
</svg>
