<svg width="6" height="9" viewBox="0 0 6 9" fill="none" xmlns="http://www.w3.org/2000/svg">
<path d="M3.0001 0.147949C1.43353 0.147949 0.163574 1.29832 0.163574 2.71738C0.163574 4.13643 3.0001 7.94183 3.0001 7.94183C3.0001 7.94183 5.83663 4.13639 5.83663 2.71738C5.83663 1.29836 4.56663 0.147949 3.0001 0.147949ZM3.0001 4.22229C2.0378 4.22229 1.25766 3.51565 1.25766 2.64392C1.25766 1.77219 2.03775 1.06555 3.0001 1.06555C3.96245 1.06555 4.74255 1.77219 4.74255 2.64392C4.74255 3.51565 3.96245 4.22229 3.0001 4.22229Z" fill="white"/>
<path d="M3.00002 8.20662L2.86453 8.02484C2.85742 8.01528 2.14374 7.05581 1.43966 5.93513C0.484383 4.41459 0 3.33201 0 2.71752C0 2.35073 0.0793341 1.99481 0.235836 1.65971C0.386943 1.33608 0.603241 1.04548 0.878683 0.795978C1.15417 0.546474 1.47498 0.350543 1.8322 0.213665C2.20218 0.0718635 2.59509 0 3.00002 0C3.40495 0 3.79786 0.0718635 4.1678 0.213628C4.52507 0.350506 4.84588 0.546437 5.12132 0.795941C5.3968 1.04545 5.61306 1.33608 5.76416 1.65967C5.92067 1.99481 6 2.35069 6 2.71749C6 3.33201 5.51562 4.41455 4.56034 5.93513C3.85626 7.05584 3.14263 8.01528 3.13547 8.02484L2.99998 8.20662H3.00002ZM3.00002 0.296192C1.52611 0.296192 0.326982 1.3824 0.326982 2.71752C0.326982 3.27188 0.809649 4.33332 1.72287 5.78707C2.23905 6.60882 2.76055 7.34326 3.00002 7.67389C3.23949 7.34326 3.76099 6.60882 4.27717 5.78707C5.19035 4.33332 5.67306 3.27188 5.67306 2.71752C5.67306 1.3824 4.47393 0.296192 3.00002 0.296192V0.296192ZM3.00002 4.37053C2.74281 4.37053 2.4932 4.32488 2.2581 4.2348C2.03113 4.14783 1.8273 4.02336 1.65232 3.86486C1.47735 3.70636 1.33993 3.52172 1.24392 3.31613C1.14448 3.1032 1.09408 2.87706 1.09408 2.64407C1.09408 2.41108 1.14448 2.18493 1.24392 1.97201C1.33993 1.76641 1.47731 1.58178 1.65232 1.42328C1.8273 1.26478 2.03113 1.1403 2.2581 1.05333C2.49316 0.963253 2.74281 0.917602 3.00002 0.917602C3.25723 0.917602 3.50684 0.963253 3.74194 1.05333C3.96891 1.1403 4.17274 1.26474 4.34772 1.42328C4.52269 1.58178 4.66011 1.76641 4.75612 1.97201C4.85556 2.18493 4.90596 2.41108 4.90596 2.64407C4.90596 2.87706 4.85556 3.1032 4.75612 3.31613C4.66011 3.52172 4.52274 3.70636 4.34772 3.86486C4.17274 4.02336 3.96891 4.14783 3.74194 4.2348C3.50688 4.32488 3.25723 4.37053 3.00002 4.37053V4.37053ZM3.00002 1.21383C2.12939 1.21383 1.42106 1.85546 1.42106 2.6441C1.42106 3.43275 2.12939 4.07438 3.00002 4.07438C3.87065 4.07438 4.57898 3.43275 4.57898 2.6441C4.57898 1.85546 3.87065 1.21383 3.00002 1.21383V1.21383Z" fill="white"/>
</svg>
