<svg width="25" height="23" viewBox="0 0 25 23" fill="none" xmlns="http://www.w3.org/2000/svg">
<path d="M25 11.1566C24.9878 17.2984 19.365 22.2979 12.4833 22.2849C5.59241 22.2724 -0.0121495 17.2631 1.97801e-05 11.1278C0.0115806 4.98657 5.63257 -0.0113703 12.5155 1.94285e-05C19.4088 0.0114092 25.0121 5.01911 25 11.1566V11.1566Z" fill="#FEFEFE"/>
<path d="M12.4997 20.4281C18.6362 20.4281 23.6108 16.1323 23.6108 10.8332C23.6108 5.53407 18.6362 1.23828 12.4997 1.23828C6.36316 1.23828 1.38855 5.53407 1.38855 10.8332C1.38855 16.1323 6.36316 20.4281 12.4997 20.4281Z" fill="#1F2432"/>
<path d="M6.54073 14.7009C5.8485 14.7009 5.23326 14.4028 4.89453 13.9027C4.59091 13.4553 4.57305 12.9118 4.84588 12.4501L8.15736 6.84119C8.47638 6.301 9.12549 5.96558 9.85282 5.96558C10.5802 5.96558 11.2293 6.301 11.5483 6.84119L16.1857 14.6954L6.54257 14.7003H6.54134L6.54073 14.7009ZM9.85282 7.03004C9.63111 7.03004 9.3472 7.11074 9.21356 7.33692L5.90208 12.9458C5.80169 13.1165 5.85404 13.2615 5.91625 13.3526C6.00924 13.4898 6.22233 13.637 6.54134 13.637L14.2094 13.6331L10.4921 7.33692C10.3584 7.11074 10.0739 7.03004 9.85282 7.03004V7.03004Z" fill="white"/>
<path d="M8.5675 14.7032L13.2092 6.84241C13.5283 6.30277 14.178 5.9668 14.9047 5.9668C15.6314 5.9668 16.2812 6.30222 16.6002 6.84241L19.9098 12.4475C20.1826 12.9092 20.1642 13.4521 19.8618 13.8995C19.5237 14.3996 18.9084 14.6983 18.2162 14.6983L8.56874 14.7032H8.5675ZM14.9047 7.03071C14.683 7.03071 14.3991 7.11141 14.2654 7.33759L10.545 13.6382L18.215 13.6344C18.5334 13.6344 18.7464 13.4872 18.8394 13.35C18.9016 13.2583 18.954 13.1134 18.8536 12.9432L15.544 7.33814C15.4103 7.11196 15.1258 7.03126 14.9047 7.03126V7.03071Z" fill="white"/>
</svg>
