<svg width="29" height="22" viewBox="0 0 29 22" fill="none" xmlns="http://www.w3.org/2000/svg">
<path d="M0 11.2215C0.0482223 11.0825 0.0934772 10.9428 0.146151 10.8051C0.539348 9.76749 1.55869 9.10966 2.83176 9.10566C5.75478 9.09702 8.67854 9.10234 11.6023 9.10367C12.0133 9.10367 12.2618 9.29257 12.2678 9.59256C12.2737 9.90252 12.0215 10.0967 11.5927 10.0967C9.27946 10.0987 6.96702 10.0974 4.65383 10.0974C4.05216 10.0974 3.45124 10.0934 2.84957 10.0981C1.81093 10.1074 1.11208 10.7373 1.11134 11.6658C1.10911 14.1043 1.10911 16.5428 1.11134 18.9819C1.11208 19.8918 1.782 20.5111 2.79541 20.5476C2.8696 20.5503 2.94305 20.549 3.01723 20.549C10.4828 20.549 17.9491 20.549 25.4147 20.5503C25.8286 20.5503 26.2263 20.5137 26.5764 20.2916C27.0461 19.9936 27.3079 19.5878 27.3087 19.073C27.3146 16.5767 27.3161 14.0797 27.3087 11.5834C27.3065 10.7985 26.6581 10.1832 25.7841 10.1087C25.6647 10.0987 25.5437 10.0987 25.4236 10.0987C22.6022 10.0987 19.7801 10.0987 16.9587 10.0974C16.8385 10.0974 16.7168 10.0974 16.5996 10.0801C16.3414 10.0409 16.1597 9.84132 16.1552 9.60852C16.1508 9.37638 16.3251 9.17285 16.5826 9.12362C16.6812 9.105 16.7843 9.103 16.886 9.103C19.763 9.10167 22.64 9.09968 25.5178 9.103C27.2404 9.105 28.4222 10.1706 28.423 11.7171C28.4245 14.1143 28.4237 16.5115 28.423 18.9087C28.423 20.4864 27.2523 21.5414 25.4859 21.544C22.6645 21.548 19.8424 21.5454 17.021 21.5454C12.3397 21.5454 7.65845 21.5414 2.97792 21.548C1.83913 21.55 0.959254 21.1583 0.359813 20.2796C0.179535 20.0175 0.123152 19.7149 0 19.4335C0 16.6964 0 13.9586 0 11.2215Z" fill="black"/>
<path d="M21.9306 3.16819C21.9217 3.36708 21.8193 3.5154 21.619 3.6032C21.395 3.70165 21.1865 3.66573 21.004 3.51806C20.6887 3.26265 20.3801 3.00058 20.041 2.76844C16.3027 0.202272 11.0227 0.451705 7.61525 3.35643C7.55516 3.40765 7.49655 3.46153 7.43275 3.50875C7.16641 3.7083 6.8526 3.70231 6.63819 3.49678C6.42602 3.29391 6.43492 3.00124 6.67677 2.7844C7.20128 2.31414 7.77476 1.89575 8.40016 1.5379C12.6363 -0.883259 18.0194 -0.409004 21.6546 2.70192C21.8052 2.83096 21.9425 2.96266 21.9306 3.16753V3.16819Z" fill="black"/>
<path d="M11.9835 15.7046C11.9835 14.9509 11.9828 14.1978 11.9835 13.4441C11.9842 13.0636 12.1987 12.8348 12.5437 12.8414C12.8805 12.8474 13.092 13.0723 13.0927 13.4362C13.095 14.6555 13.0942 15.8742 13.0927 17.0936C13.0927 17.4461 12.9399 17.6683 12.6572 17.7441C12.3597 17.824 12.1245 17.7288 11.8922 17.4268C11.2727 16.6239 10.6546 15.8197 10.0344 15.0134C9.94014 15.0593 9.98466 15.1338 9.98392 15.1904C9.98021 15.8702 9.98392 16.5507 9.98021 17.2306C9.97798 17.5845 9.77469 17.798 9.44451 17.8087C9.09579 17.82 8.87321 17.6064 8.87172 17.2459C8.86875 16.0598 8.87098 14.8744 8.87098 13.6883C8.87098 13.5719 8.87098 13.4561 8.87246 13.3397C8.87691 13.1042 9.00973 12.9419 9.25309 12.874C9.49348 12.8069 9.71681 12.8621 9.86892 13.053C10.1368 13.3903 10.3957 13.7335 10.6584 14.0741C11.0828 14.6242 11.5072 15.1737 11.9316 15.7239L11.9828 15.7046H11.9835Z" fill="black"/>
<path d="M14.7266 2.51075C16.3506 2.53137 18.186 3.19719 19.7254 4.51752C19.9168 4.68182 20.0066 4.86939 19.9212 5.0982C19.8471 5.29708 19.6757 5.4055 19.4435 5.42479C19.2209 5.44342 19.0629 5.33234 18.9108 5.20197C17.9894 4.40977 16.9114 3.87232 15.6569 3.64617C13.3638 3.23311 11.3399 3.72998 9.59499 5.1288C9.53267 5.17869 9.47629 5.23389 9.41323 5.28178C9.15283 5.47867 8.82714 5.47335 8.61645 5.27114C8.4065 5.07027 8.4154 4.77294 8.65503 4.5581C9.20699 4.06256 9.83017 3.6495 10.5216 3.32291C11.673 2.77815 12.9134 2.50876 14.7266 2.51075V2.51075Z" fill="black"/>
<path d="M14.4056 5.35223C15.4903 5.37485 16.5773 5.74338 17.4825 6.5157C17.7674 6.75918 17.7978 7.06651 17.5671 7.28071C17.3348 7.49558 17.0247 7.48227 16.7316 7.24545C15.244 6.04406 13.2719 6.04406 11.7731 7.24545C11.4696 7.48893 11.1513 7.49491 10.9191 7.26142C10.6965 7.0379 10.7321 6.76317 11.0148 6.5157C11.8488 5.78529 13.0522 5.35223 14.4063 5.35156L14.4056 5.35223Z" fill="black"/>
<path d="M20.4847 15.3126C20.4847 14.6833 20.4832 14.054 20.4847 13.4247C20.4862 13.0675 20.7058 12.8406 21.0419 12.8413C21.3788 12.8426 21.5939 13.0675 21.5939 13.428C21.5954 14.6953 21.5954 15.9619 21.5939 17.2291C21.5939 17.5943 21.3832 17.8099 21.0375 17.8085C20.6939 17.8072 20.4862 17.591 20.4847 17.2251C20.4825 16.5872 20.4847 15.9499 20.4847 15.3119V15.3126Z" fill="black"/>
<path d="M14.7652 9.59592C14.7689 9.86401 14.5322 10.0842 14.2317 10.0928C13.9179 10.1022 13.6612 9.8853 13.6574 9.60723C13.6537 9.33183 13.9097 9.10299 14.2184 9.10699C14.5166 9.11098 14.7615 9.32984 14.7652 9.59592V9.59592Z" fill="black"/>
<path d="M4.98143 12.8386C3.45447 12.8386 2.2154 13.9481 2.21095 15.3198C2.2065 16.6935 3.43444 17.8031 4.96733 17.8111C6.49206 17.8191 7.74077 16.7168 7.76006 15.3451C7.77936 13.9807 6.51357 12.8386 4.98143 12.8379V12.8386ZM4.98736 16.8153C4.07104 16.8193 3.32908 16.1647 3.32166 15.3445C3.31424 14.5096 4.0473 13.8391 4.97401 13.8337C5.88958 13.8284 6.65603 14.5136 6.65009 15.3331C6.6449 16.1487 5.90146 16.8113 4.98736 16.8153Z" fill="black"/>
<path d="M25.1026 16.001C24.9616 15.8659 24.9921 15.83 25.1686 15.7615C25.9128 15.4715 26.3105 14.8308 26.197 14.1384C26.0872 13.4678 25.4417 12.9203 24.6426 12.8598C24.2011 12.8265 23.7552 12.8365 23.3115 12.8418C22.9094 12.8465 22.7068 13.0414 22.7061 13.4079C22.7039 14.6852 22.7039 15.9624 22.7061 17.2396C22.7061 17.5909 22.9131 17.8037 23.247 17.8097C23.5949 17.8164 23.8123 17.6002 23.8153 17.239C23.8183 16.9097 23.8153 16.5804 23.8153 16.1906C24.3043 16.6882 24.7428 17.1372 25.1842 17.5842C25.438 17.841 25.7644 17.8842 26.0122 17.6986C26.2734 17.5031 26.2816 17.2037 26.0219 16.9323C25.7207 16.6176 25.4194 16.303 25.1033 16.0003L25.1026 16.001ZM24.4104 14.908C24.0161 14.9187 23.8188 14.7384 23.8183 14.3672C23.8178 13.9827 24.029 13.8057 24.4519 13.8363C24.8451 13.8649 25.1108 14.0918 25.0996 14.3905C25.0885 14.6852 24.8066 14.8967 24.4111 14.9074L24.4104 14.908Z" fill="black"/>
<path d="M19.3228 17.1118C18.7819 15.82 18.241 14.5281 17.6957 13.2376C17.5911 12.9894 17.3819 12.8464 17.0836 12.8431C16.7861 12.8398 16.5694 12.9728 16.4626 13.2229C15.9054 14.5274 15.3496 15.8319 14.8013 17.1391C14.6885 17.4085 14.8303 17.6799 15.1048 17.7777C15.3956 17.8815 15.6939 17.7657 15.8304 17.4877C15.9083 17.3293 15.9825 17.1677 16.0389 17.0021C16.0812 16.879 16.1487 16.8364 16.2941 16.8384C16.812 16.8464 17.3299 16.8477 17.8478 16.8384C17.9999 16.8357 18.0555 16.891 18.0986 17.0067C18.1654 17.187 18.2373 17.3673 18.3278 17.5382C18.4429 17.7564 18.6929 17.8509 18.9548 17.7963C19.1922 17.7471 19.3681 17.5502 19.374 17.2854C19.3651 17.2542 19.3518 17.1803 19.3228 17.1112V17.1118ZM16.5397 15.8412C16.7141 15.4268 16.8833 15.025 17.0717 14.5767C17.2594 15.0217 17.4286 15.4248 17.6037 15.8412H16.5397V15.8412Z" fill="black"/>
</svg>
