<svg width="30" height="22" viewBox="0 0 30 22" fill="none" xmlns="http://www.w3.org/2000/svg">
<path d="M0.596527 11.4774C0.644749 11.3384 0.690004 11.1987 0.742678 11.061C1.13588 10.0234 2.15522 9.36551 3.42829 9.36152C6.35131 9.35288 9.27506 9.3582 12.1988 9.35953C12.6098 9.35953 12.8584 9.54843 12.8643 9.84842C12.8702 10.1584 12.618 10.3526 12.1892 10.3526C9.87599 10.3546 7.56354 10.3533 5.25035 10.3533C4.64869 10.3533 4.04776 10.3493 3.4461 10.3539C2.40746 10.3632 1.70861 10.9931 1.70787 11.9217C1.70564 14.3602 1.70564 16.7986 1.70787 19.2377C1.70861 20.1477 2.37853 20.7669 3.39194 20.8035C3.46613 20.8062 3.53957 20.8048 3.61376 20.8048C11.0793 20.8048 18.5456 20.8048 26.0112 20.8062C26.4252 20.8062 26.8228 20.7696 27.173 20.5474C27.6426 20.2494 27.9045 19.8437 27.9052 19.3289C27.9111 16.8325 27.9126 14.3355 27.9052 11.8392C27.903 11.0543 27.2546 10.4391 26.3806 10.3646C26.2612 10.3546 26.1403 10.3546 26.0201 10.3546C23.1987 10.3546 20.3766 10.3546 17.5552 10.3533C17.435 10.3533 17.3134 10.3533 17.1961 10.336C16.938 10.2967 16.7562 10.0972 16.7518 9.86438C16.7473 9.63224 16.9216 9.4287 17.1791 9.37948C17.2777 9.36086 17.3809 9.35886 17.4825 9.35886C20.3595 9.35753 23.2365 9.35554 26.1143 9.35886C27.837 9.36086 29.0188 10.4264 29.0195 11.9729C29.021 14.3701 29.0203 16.7673 29.0195 19.1646C29.0195 20.7423 27.8488 21.7972 26.0824 21.7999C23.261 21.8039 20.4389 21.8012 17.6175 21.8012C12.9363 21.8012 8.25498 21.7972 3.57444 21.8039C2.43565 21.8059 1.55578 21.4141 0.95634 20.5354C0.776063 20.2734 0.71968 19.9707 0.596527 19.6894C0.596527 16.9523 0.596527 14.2145 0.596527 11.4774Z" fill="black"/>
<path d="M22.5271 3.42405C22.5182 3.62293 22.4159 3.77126 22.2155 3.85906C21.9915 3.95751 21.783 3.92159 21.6005 3.77392C21.2852 3.51851 20.9766 3.25643 20.6376 3.0243C16.8992 0.458132 11.6192 0.707565 8.21178 3.61229C8.15169 3.66351 8.09308 3.71739 8.02928 3.76461C7.76294 3.96416 7.44913 3.95817 7.23472 3.75264C7.02254 3.54977 7.03145 3.2571 7.2733 3.04026C7.79781 2.57 8.37128 2.15161 8.99669 1.79376C13.2328 -0.6274 18.6159 -0.153145 22.2512 2.95778C22.4018 3.08682 22.539 3.21852 22.5271 3.42339V3.42405Z" fill="black"/>
<path d="M12.58 15.9604C12.58 15.2067 12.5793 14.4537 12.58 13.7C12.5807 13.3195 12.7952 13.0907 13.1402 13.0973C13.477 13.1033 13.6885 13.3281 13.6892 13.692C13.6915 14.9114 13.6907 16.1301 13.6892 17.3494C13.6892 17.702 13.5364 17.9242 13.2537 18C12.9562 18.0798 12.721 17.9847 12.4887 17.6827C11.8692 16.8798 11.2511 16.0755 10.6309 15.2693C10.5366 15.3152 10.5812 15.3897 10.5804 15.4462C10.5767 16.1261 10.5804 16.8066 10.5767 17.4865C10.5745 17.8404 10.3712 18.0539 10.041 18.0645C9.69229 18.0758 9.4697 17.8623 9.46822 17.5018C9.46525 16.3157 9.46748 15.1302 9.46748 13.9441C9.46748 13.8277 9.46748 13.712 9.46896 13.5956C9.47341 13.3601 9.60622 13.1978 9.84959 13.1299C10.09 13.0627 10.3133 13.1179 10.4654 13.3089C10.7333 13.6461 10.9922 13.9894 11.2549 14.33C11.6793 14.8801 12.1037 15.4296 12.5281 15.9797L12.5793 15.9604H12.58Z" fill="black"/>
<path d="M15.3231 2.76661C16.9471 2.78723 18.7825 3.45305 20.3219 4.77338C20.5133 4.93768 20.6031 5.12525 20.5178 5.35406C20.4436 5.55294 20.2722 5.66136 20.04 5.68065C19.8174 5.69928 19.6594 5.5882 19.5073 5.45782C18.5859 4.66563 17.508 4.12818 16.2534 3.90203C13.9603 3.48897 11.9364 3.98584 10.1915 5.38466C10.1292 5.43454 10.0728 5.48975 10.0098 5.53764C9.74936 5.73453 9.42367 5.72921 9.21298 5.527C9.00302 5.32612 9.01193 5.0288 9.25155 4.81396C9.80351 4.31842 10.4267 3.90536 11.1181 3.57877C12.2695 3.034 13.51 2.76462 15.3231 2.76661V2.76661Z" fill="black"/>
<path d="M15.0021 5.60809C16.0869 5.6307 17.1739 5.99924 18.079 6.77156C18.364 7.01503 18.3944 7.32237 18.1636 7.53657C17.9314 7.75144 17.6213 7.73813 17.3282 7.50131C15.8406 6.29992 13.8684 6.29992 12.3697 7.50131C12.0662 7.74478 11.7479 7.75077 11.5157 7.51728C11.2931 7.29376 11.3287 7.01903 11.6114 6.77156C12.4453 6.04115 13.6488 5.60809 15.0029 5.60742L15.0021 5.60809Z" fill="black"/>
<path d="M21.0812 15.5685C21.0812 14.9392 21.0797 14.3099 21.0812 13.6806C21.0827 13.3233 21.3023 13.0965 21.6384 13.0972C21.9753 13.0985 22.1904 13.3233 22.1904 13.6839C22.1919 14.9511 22.1919 16.2177 22.1904 17.485C22.1904 17.8502 21.9797 18.0657 21.634 18.0644C21.2904 18.0631 21.0827 17.8469 21.0812 17.481C21.079 16.843 21.0812 16.2058 21.0812 15.5678V15.5685Z" fill="black"/>
<path d="M15.3617 9.85178C15.3654 10.1199 15.1287 10.3401 14.8283 10.3487C14.5144 10.358 14.2577 10.1412 14.254 9.86309C14.2503 9.58769 14.5062 9.35885 14.8149 9.36284C15.1132 9.36684 15.358 9.58569 15.3617 9.85178V9.85178Z" fill="black"/>
<path d="M5.57798 13.0944C4.05103 13.0944 2.81196 14.204 2.80751 15.5757C2.80306 16.9494 4.031 18.059 5.56389 18.067C7.08861 18.0749 8.33733 16.9727 8.35662 15.601C8.37591 14.2366 7.11013 13.0944 5.57798 13.0938V13.0944ZM5.58392 17.0711C4.6676 17.0751 3.92564 16.4205 3.91822 15.6003C3.9108 14.7655 4.64386 14.0949 5.57056 14.0896C6.48614 14.0843 7.25259 14.7694 7.24665 15.589C7.24146 16.4046 6.49801 17.0671 5.58392 17.0711Z" fill="black"/>
<path d="M25.6991 16.2568C25.5581 16.1218 25.5885 16.0859 25.7651 16.0174C26.5093 15.7273 26.907 15.0867 26.7935 14.3942C26.6837 13.7237 26.0382 13.1762 25.2391 13.1157C24.7976 13.0824 24.3517 13.0924 23.908 13.0977C23.5059 13.1023 23.3033 13.2973 23.3026 13.6638C23.3003 14.941 23.3003 16.2183 23.3026 17.4955C23.3026 17.8467 23.5096 18.0596 23.8435 18.0656C24.1914 18.0722 24.4088 17.856 24.4118 17.4948C24.4148 17.1655 24.4118 16.8362 24.4118 16.4464C24.9008 16.944 25.3393 17.393 25.7807 17.8401C26.0345 18.0968 26.3609 18.1401 26.6087 17.9545C26.8699 17.7589 26.8781 17.4596 26.6184 17.1881C26.3172 16.8735 26.0159 16.5588 25.6998 16.2562L25.6991 16.2568ZM25.0069 15.1639C24.6126 15.1745 24.4153 14.9942 24.4148 14.623C24.4143 14.2385 24.6255 14.0616 25.0484 14.0922C25.4416 14.1208 25.7073 14.3476 25.6961 14.6463C25.685 14.941 25.4031 15.1526 25.0076 15.1632L25.0069 15.1639Z" fill="black"/>
<path d="M19.9193 17.3677C19.3784 16.0758 18.8375 14.7839 18.2922 13.4934C18.1876 13.2453 17.9783 13.1023 17.6801 13.0989C17.3826 13.0956 17.1659 13.2287 17.0591 13.4788C16.5018 14.7833 15.9461 16.0878 15.3978 17.3949C15.285 17.6644 15.4267 17.9358 15.7013 18.0336C15.9921 18.1373 16.2904 18.0216 16.4269 17.7435C16.5048 17.5852 16.579 17.4236 16.6354 17.2579C16.6777 17.1348 16.7452 17.0923 16.8906 17.0943C17.4085 17.1023 17.9264 17.1036 18.4443 17.0943C18.5964 17.0916 18.652 17.1468 18.6951 17.2626C18.7619 17.4428 18.8338 17.6231 18.9243 17.7941C19.0393 18.0123 19.2894 18.1067 19.5513 18.0522C19.7887 18.003 19.9646 17.8061 19.9705 17.5413C19.9616 17.51 19.9482 17.4362 19.9193 17.367V17.3677ZM17.1362 16.0971C17.3106 15.6827 17.4797 15.2809 17.6682 14.8325C17.8559 15.2775 18.0251 15.6807 18.2002 16.0971H17.1362V16.0971Z" fill="black"/>
</svg>
