<svg width="6" height="9" viewBox="0 0 6 9" fill="none" xmlns="http://www.w3.org/2000/svg">
<path d="M3.0001 0.379272C1.43353 0.379272 0.163574 1.52964 0.163574 2.9487C0.163574 4.36775 3.0001 8.17315 3.0001 8.17315C3.0001 8.17315 5.83663 4.36772 5.83663 2.9487C5.83663 1.52968 4.56663 0.379272 3.0001 0.379272ZM3.0001 4.45361C2.0378 4.45361 1.25766 3.74697 1.25766 2.87524C1.25766 2.00351 2.03775 1.29687 3.0001 1.29687C3.96245 1.29687 4.74255 2.00351 4.74255 2.87524C4.74255 3.74697 3.96245 4.45361 3.0001 4.45361Z" fill="white"/>
<path d="M3.00002 8.43795L2.86453 8.25616C2.85742 8.24661 2.14374 7.28713 1.43966 6.16645C0.484383 4.64591 0 3.56333 0 2.94885C0 2.58205 0.0793341 2.22614 0.235836 1.89103C0.386943 1.56741 0.603241 1.27681 0.878683 1.0273C1.15417 0.777797 1.47498 0.581866 1.8322 0.444989C2.20218 0.303187 2.59509 0.231323 3.00002 0.231323C3.40495 0.231323 3.79786 0.303187 4.1678 0.444952C4.52507 0.581829 4.84588 0.77776 5.12132 1.02726C5.3968 1.27677 5.61306 1.56741 5.76416 1.891C5.92067 2.22614 6 2.58201 6 2.94881C6 3.56333 5.51562 4.64588 4.56034 6.16645C3.85626 7.28717 3.14263 8.24661 3.13547 8.25616L2.99998 8.43795H3.00002ZM3.00002 0.527515C1.52611 0.527515 0.326982 1.61372 0.326982 2.94885C0.326982 3.50321 0.809649 4.56465 1.72287 6.01839C2.23905 6.84014 2.76055 7.57458 3.00002 7.90521C3.23949 7.57458 3.76099 6.84014 4.27717 6.01839C5.19035 4.56465 5.67306 3.50321 5.67306 2.94885C5.67306 1.61372 4.47393 0.527515 3.00002 0.527515V0.527515ZM3.00002 4.60186C2.74281 4.60186 2.4932 4.55621 2.2581 4.46613C2.03113 4.37916 1.8273 4.25468 1.65232 4.09618C1.47735 3.93768 1.33993 3.75304 1.24392 3.54745C1.14448 3.33452 1.09408 3.10838 1.09408 2.87539C1.09408 2.6424 1.14448 2.41626 1.24392 2.20333C1.33993 1.99774 1.47731 1.8131 1.65232 1.6546C1.8273 1.4961 2.03113 1.37162 2.2581 1.28466C2.49316 1.19458 2.74281 1.14893 3.00002 1.14893C3.25723 1.14893 3.50684 1.19458 3.74194 1.28466C3.96891 1.37162 4.17274 1.49606 4.34772 1.6546C4.52269 1.8131 4.66011 1.99774 4.75612 2.20333C4.85556 2.41626 4.90596 2.6424 4.90596 2.87539C4.90596 3.10838 4.85556 3.33452 4.75612 3.54745C4.66011 3.75304 4.52274 3.93768 4.34772 4.09618C4.17274 4.25468 3.96891 4.37916 3.74194 4.46613C3.50688 4.55621 3.25723 4.60186 3.00002 4.60186V4.60186ZM3.00002 1.44515C2.12939 1.44515 1.42106 2.08678 1.42106 2.87543C1.42106 3.66408 2.12939 4.3057 3.00002 4.3057C3.87065 4.3057 4.57898 3.66408 4.57898 2.87543C4.57898 2.08678 3.87065 1.44515 3.00002 1.44515V1.44515Z" fill="white"/>
</svg>
