<svg width="18" height="18" viewBox="0 0 18 18" fill="none" xmlns="http://www.w3.org/2000/svg">
<path d="M8.99468 14.7871C5.80384 14.7871 3.21106 12.1963 3.21106 8.99972C3.21106 5.81424 5.80013 3.21604 8.97239 3.21233C12.1855 3.21233 14.782 5.8068 14.7783 9.0183C14.7783 12.1926 12.1781 14.7834 8.99468 14.7834V14.7871ZM9.6373 7.14493C9.6373 6.69517 9.64102 6.24913 9.6373 5.79937C9.63359 5.42395 9.35128 5.14146 8.99468 5.14517C8.63808 5.14517 8.35948 5.42767 8.35577 5.8068C8.35577 6.86615 8.35577 7.92178 8.35577 8.98113C8.35577 9.21902 8.45235 9.40859 8.64922 9.5424C9.2807 9.96614 9.91218 10.3973 10.5548 10.8062C10.6848 10.888 10.8743 10.9251 11.0266 10.9103C11.3052 10.8805 11.4835 10.6984 11.5429 10.4196C11.6023 10.1446 11.5057 9.9141 11.2754 9.75427C10.7777 9.41602 10.2762 9.08149 9.77474 8.75439C9.67445 8.68749 9.6373 8.61686 9.6373 8.4942C9.64473 8.04444 9.6373 7.5984 9.6373 7.14864V7.14493Z" fill="white"/>
<path d="M4.82318 2.573C4.93833 2.573 5.04977 2.56928 5.16492 2.573C5.51409 2.59158 5.78155 2.87408 5.78155 3.21604C5.78155 3.55801 5.51038 3.84793 5.16492 3.85537C4.50744 3.8628 3.85367 3.8628 3.19619 3.85537C2.8433 3.85165 2.57585 3.58031 2.57214 3.22348C2.56471 2.573 2.56471 1.92624 2.57214 1.27576C2.57585 0.91521 2.86559 0.640151 3.21476 0.643868C3.56393 0.643868 3.84253 0.922644 3.85367 1.28691C3.85367 1.37984 3.85367 1.47276 3.85367 1.59542C3.91311 1.56569 3.95768 1.5471 3.99854 1.52108C9.2064 -1.93946 16.2233 0.785114 17.7351 6.85871C18.9795 11.8507 15.7106 16.9132 10.6365 17.8499C5.7964 18.7383 1.13831 15.5937 0.179942 10.7727C0.0685045 10.2115 0.0425024 9.63161 0.00164191 9.05919C-0.0243602 8.65403 0.261663 8.36039 0.633122 8.35667C1.00458 8.35667 1.2646 8.63916 1.28318 9.04804C1.42804 12.4157 3.01789 14.8391 6.11957 16.1587C10.4694 18.0098 15.5509 15.3149 16.5427 10.691C17.4342 6.54649 14.9306 2.50609 10.8334 1.50993C8.74579 1.0007 6.77334 1.33523 4.93462 2.45034C4.89004 2.47636 4.84918 2.50981 4.80832 2.53583L4.82318 2.56928V2.573Z" fill="white"/>
</svg>
