<svg width="58" height="13" viewBox="0 0 58 13" fill="none" xmlns="http://www.w3.org/2000/svg">
<path d="M13.0975 0.87716V12.0364H10.7952V4.7781L7.71998 12.0364H5.9768L2.88511 4.7781V12.0364H0.582794V0.87716H3.19757L6.84839 9.17466L10.4992 0.87716H13.0975Z" fill="url(#paint0_linear_7_46)"/>
<path d="M24.4022 12.1483C23.3277 12.1483 22.341 11.9032 21.442 11.4129C20.543 10.9226 19.8304 10.2458 19.3042 9.38249C18.7779 8.50851 18.5148 7.52262 18.5148 6.42481C18.5148 5.33766 18.7779 4.36243 19.3042 3.4991C19.8304 2.62512 20.543 1.94299 21.442 1.45271C22.341 0.962426 23.3277 0.717285 24.4022 0.717285C25.4875 0.717285 26.4743 0.962426 27.3623 1.45271C28.2613 1.94299 28.9684 2.62512 29.4837 3.4991C30.01 4.36243 30.2731 5.33766 30.2731 6.42481C30.2731 7.52262 30.01 8.50851 29.4837 9.38249C28.9684 10.2458 28.2613 10.9226 27.3623 11.4129C26.4633 11.9032 25.4766 12.1483 24.4022 12.1483ZM24.4022 10.1499C25.0929 10.1499 25.7013 10.0007 26.2276 9.70224C26.7538 9.39315 27.1649 8.95616 27.461 8.39127C27.757 7.82638 27.905 7.17089 27.905 6.42481C27.905 5.67873 27.757 5.02857 27.461 4.47434C27.1649 3.90945 26.7538 3.47779 26.2276 3.17936C25.7013 2.88092 25.0929 2.73171 24.4022 2.73171C23.7115 2.73171 23.0975 2.88092 22.5603 3.17936C22.0341 3.47779 21.6229 3.90945 21.3269 4.47434C21.0309 5.02857 20.8829 5.67873 20.8829 6.42481C20.8829 7.17089 21.0309 7.82638 21.3269 8.39127C21.6229 8.95616 22.0341 9.39315 22.5603 9.70224C23.0975 10.0007 23.7115 10.1499 24.4022 10.1499Z" fill="url(#paint1_linear_7_46)"/>
<path d="M45.9972 0.87716L41.7872 12.0364H38.9916L34.7816 0.87716H37.2484L40.4058 9.75021L43.5469 0.87716H45.9972Z" fill="url(#paint2_linear_7_46)"/>
<path d="M53.38 2.68374V5.48155H57.2446V7.25616H53.38V10.2138H57.738V12.0364H51.0777V0.861172H57.738V2.68374H53.38Z" fill="url(#paint3_linear_7_46)"/>
<defs>
<linearGradient id="paint0_linear_7_46" x1="0.818504" y1="12.0364" x2="54.9504" y2="12.0364" gradientUnits="userSpaceOnUse">
<stop stop-color="#3E01FF"/>
<stop offset="1" stop-color="#F900C0"/>
</linearGradient>
<linearGradient id="paint1_linear_7_46" x1="0.818504" y1="12.0364" x2="54.9504" y2="12.0364" gradientUnits="userSpaceOnUse">
<stop stop-color="#3E01FF"/>
<stop offset="1" stop-color="#F900C0"/>
</linearGradient>
<linearGradient id="paint2_linear_7_46" x1="0.818504" y1="12.0364" x2="54.9504" y2="12.0364" gradientUnits="userSpaceOnUse">
<stop stop-color="#3E01FF"/>
<stop offset="1" stop-color="#F900C0"/>
</linearGradient>
<linearGradient id="paint3_linear_7_46" x1="0.818504" y1="12.0364" x2="54.9504" y2="12.0364" gradientUnits="userSpaceOnUse">
<stop stop-color="#3E01FF"/>
<stop offset="1" stop-color="#F900C0"/>
</linearGradient>
</defs>
</svg>
