<svg width="58" height="13" viewBox="0 0 58 13" fill="none" xmlns="http://www.w3.org/2000/svg">
<path d="M13.0975 0.877099V12.0364H10.7952V4.77804L7.71995 12.0364H5.97677L2.88508 4.77804V12.0364H0.582764V0.877099H3.19754L6.84836 9.1746L10.4992 0.877099H13.0975Z" fill="url(#paint0_linear_7_524)"/>
<path d="M24.4021 12.1483C23.3277 12.1483 22.341 11.9031 21.442 11.4128C20.543 10.9226 19.8304 10.2458 19.3041 9.38243C18.7779 8.50845 18.5148 7.52256 18.5148 6.42475C18.5148 5.3376 18.7779 4.36237 19.3041 3.49904C19.8304 2.62506 20.543 1.94293 21.442 1.45265C22.341 0.962365 23.3277 0.717224 24.4021 0.717224C25.4875 0.717224 26.4742 0.962365 27.3623 1.45265C28.2613 1.94293 28.9684 2.62506 29.4837 3.49904C30.0099 4.36237 30.2731 5.3376 30.2731 6.42475C30.2731 7.52256 30.0099 8.50845 29.4837 9.38243C28.9684 10.2458 28.2613 10.9226 27.3623 11.4128C26.4633 11.9031 25.4766 12.1483 24.4021 12.1483ZM24.4021 10.1498C25.0928 10.1498 25.7013 10.0006 26.2275 9.70218C26.7538 9.39309 27.1649 8.9561 27.4609 8.39121C27.7569 7.82632 27.9049 7.17083 27.9049 6.42475C27.9049 5.67867 27.7569 5.02851 27.4609 4.47428C27.1649 3.90939 26.7538 3.47773 26.2275 3.17929C25.7013 2.88086 25.0928 2.73165 24.4021 2.73165C23.7114 2.73165 23.0975 2.88086 22.5603 3.17929C22.034 3.47773 21.6229 3.90939 21.3269 4.47428C21.0309 5.02851 20.8829 5.67867 20.8829 6.42475C20.8829 7.17083 21.0309 7.82632 21.3269 8.39121C21.6229 8.9561 22.034 9.39309 22.5603 9.70218C23.0975 10.0006 23.7114 10.1498 24.4021 10.1498Z" fill="url(#paint1_linear_7_524)"/>
<path d="M45.9972 0.877099L41.7872 12.0364H38.9915L34.7816 0.877099H37.2484L40.4058 9.75015L43.5468 0.877099H45.9972Z" fill="url(#paint2_linear_7_524)"/>
<path d="M53.38 2.68368V5.48149H57.2446V7.2561H53.38V10.2138H57.738V12.0364H51.0777V0.861111H57.738V2.68368H53.38Z" fill="url(#paint3_linear_7_524)"/>
<defs>
<linearGradient id="paint0_linear_7_524" x1="0.818473" y1="12.0364" x2="54.9504" y2="12.0364" gradientUnits="userSpaceOnUse">
<stop stop-color="#3E01FF"/>
<stop offset="1" stop-color="#F900C0"/>
</linearGradient>
<linearGradient id="paint1_linear_7_524" x1="0.818473" y1="12.0364" x2="54.9504" y2="12.0364" gradientUnits="userSpaceOnUse">
<stop stop-color="#3E01FF"/>
<stop offset="1" stop-color="#F900C0"/>
</linearGradient>
<linearGradient id="paint2_linear_7_524" x1="0.818473" y1="12.0364" x2="54.9504" y2="12.0364" gradientUnits="userSpaceOnUse">
<stop stop-color="#3E01FF"/>
<stop offset="1" stop-color="#F900C0"/>
</linearGradient>
<linearGradient id="paint3_linear_7_524" x1="0.818473" y1="12.0364" x2="54.9504" y2="12.0364" gradientUnits="userSpaceOnUse">
<stop stop-color="#3E01FF"/>
<stop offset="1" stop-color="#F900C0"/>
</linearGradient>
</defs>
</svg>
