<svg width="58" height="13" viewBox="0 0 58 13" fill="none" xmlns="http://www.w3.org/2000/svg">
<path d="M13.0975 0.877129V12.0364H10.7952V4.77807L7.71995 12.0364H5.97677L2.88508 4.77807V12.0364H0.582764V0.877129H3.19754L6.84836 9.17463L10.4992 0.877129H13.0975Z" fill="url(#paint0_linear_7_452)"/>
<path d="M24.4021 12.1483C23.3277 12.1483 22.341 11.9032 21.442 11.4129C20.543 10.9226 19.8304 10.2458 19.3041 9.38246C18.7779 8.50848 18.5148 7.52259 18.5148 6.42478C18.5148 5.33763 18.7779 4.3624 19.3041 3.49907C19.8304 2.62509 20.543 1.94296 21.442 1.45268C22.341 0.962396 23.3277 0.717255 24.4021 0.717255C25.4875 0.717255 26.4742 0.962396 27.3623 1.45268C28.2613 1.94296 28.9684 2.62509 29.4837 3.49907C30.0099 4.3624 30.2731 5.33763 30.2731 6.42478C30.2731 7.52259 30.0099 8.50848 29.4837 9.38246C28.9684 10.2458 28.2613 10.9226 27.3623 11.4129C26.4633 11.9032 25.4766 12.1483 24.4021 12.1483ZM24.4021 10.1499C25.0928 10.1499 25.7013 10.0006 26.2275 9.70221C26.7538 9.39312 27.1649 8.95613 27.4609 8.39124C27.7569 7.82635 27.9049 7.17086 27.9049 6.42478C27.9049 5.6787 27.7569 5.02854 27.4609 4.47431C27.1649 3.90942 26.7538 3.47776 26.2275 3.17932C25.7013 2.88089 25.0928 2.73168 24.4021 2.73168C23.7114 2.73168 23.0975 2.88089 22.5603 3.17932C22.034 3.47776 21.6229 3.90942 21.3269 4.47431C21.0309 5.02854 20.8829 5.6787 20.8829 6.42478C20.8829 7.17086 21.0309 7.82635 21.3269 8.39124C21.6229 8.95613 22.034 9.39312 22.5603 9.70221C23.0975 10.0006 23.7114 10.1499 24.4021 10.1499Z" fill="url(#paint1_linear_7_452)"/>
<path d="M45.9972 0.877129L41.7872 12.0364H38.9915L34.7816 0.877129H37.2484L40.4058 9.75018L43.5468 0.877129H45.9972Z" fill="url(#paint2_linear_7_452)"/>
<path d="M53.38 2.68371V5.48152H57.2446V7.25613H53.38V10.2138H57.738V12.0364H51.0777V0.861142H57.738V2.68371H53.38Z" fill="url(#paint3_linear_7_452)"/>
<defs>
<linearGradient id="paint0_linear_7_452" x1="0.818473" y1="12.0364" x2="54.9504" y2="12.0364" gradientUnits="userSpaceOnUse">
<stop stop-color="#3E01FF"/>
<stop offset="1" stop-color="#F900C0"/>
</linearGradient>
<linearGradient id="paint1_linear_7_452" x1="0.818473" y1="12.0364" x2="54.9504" y2="12.0364" gradientUnits="userSpaceOnUse">
<stop stop-color="#3E01FF"/>
<stop offset="1" stop-color="#F900C0"/>
</linearGradient>
<linearGradient id="paint2_linear_7_452" x1="0.818473" y1="12.0364" x2="54.9504" y2="12.0364" gradientUnits="userSpaceOnUse">
<stop stop-color="#3E01FF"/>
<stop offset="1" stop-color="#F900C0"/>
</linearGradient>
<linearGradient id="paint3_linear_7_452" x1="0.818473" y1="12.0364" x2="54.9504" y2="12.0364" gradientUnits="userSpaceOnUse">
<stop stop-color="#3E01FF"/>
<stop offset="1" stop-color="#F900C0"/>
</linearGradient>
</defs>
</svg>
