<svg width="13" height="13" viewBox="0 0 13 13" fill="none" xmlns="http://www.w3.org/2000/svg">
<g clip-path="url(#clip0_7_88)">
<path d="M3.90965 5.91737C4.60298 7.27996 5.72002 8.39218 7.08261 9.09033L8.14187 8.03107C8.27187 7.90107 8.46446 7.85774 8.63298 7.91551C9.17224 8.09366 9.75483 8.18996 10.3519 8.18996C10.6167 8.18996 10.8334 8.40663 10.8334 8.67144V10.3518C10.8334 10.6166 10.6167 10.8333 10.3519 10.8333C5.83076 10.8333 2.16669 7.16922 2.16669 2.64811C2.16669 2.38329 2.38335 2.16663 2.64817 2.16663H4.33335C4.59817 2.16663 4.81483 2.38329 4.81483 2.64811C4.81483 3.24996 4.91113 3.82774 5.08928 4.367C5.14224 4.53551 5.10372 4.72329 4.96891 4.85811L3.90965 5.91737Z" fill="white"/>
</g>
<defs>
<clipPath id="clip0_7_88">
<rect width="13" height="13" fill="white"/>
</clipPath>
</defs>
</svg>
