<svg width="13" height="13" viewBox="0 0 13 13" fill="none" xmlns="http://www.w3.org/2000/svg">
<g clip-path="url(#clip0_7_228)">
<path d="M3.90965 5.91743C4.60298 7.28002 5.72002 8.39224 7.08261 9.09039L8.14187 8.03113C8.27187 7.90113 8.46446 7.8578 8.63298 7.91558C9.17224 8.09372 9.75483 8.19002 10.3519 8.19002C10.6167 8.19002 10.8334 8.40669 10.8334 8.6715V10.3519C10.8334 10.6167 10.6167 10.8334 10.3519 10.8334C5.83076 10.8334 2.16669 7.16928 2.16669 2.64817C2.16669 2.38335 2.38335 2.16669 2.64817 2.16669H4.33335C4.59817 2.16669 4.81483 2.38335 4.81483 2.64817C4.81483 3.25002 4.91113 3.8278 5.08928 4.36706C5.14224 4.53558 5.10372 4.72335 4.96891 4.85817L3.90965 5.91743Z" fill="white"/>
</g>
<defs>
<clipPath id="clip0_7_228">
<rect width="13" height="13" fill="white"/>
</clipPath>
</defs>
</svg>
