<svg width="13" height="13" viewBox="0 0 13 13" fill="none" xmlns="http://www.w3.org/2000/svg">
<g clip-path="url(#clip0_7_333)">
<path d="M3.90971 5.91749C4.60304 7.28008 5.72008 8.3923 7.08267 9.09045L8.14193 8.03119C8.27193 7.90119 8.46453 7.85786 8.63304 7.91564C9.1723 8.09378 9.7549 8.19008 10.3519 8.19008C10.6167 8.19008 10.8334 8.40675 10.8334 8.67156V10.3519C10.8334 10.6167 10.6167 10.8334 10.3519 10.8334C5.83082 10.8334 2.16675 7.16934 2.16675 2.64823C2.16675 2.38341 2.38341 2.16675 2.64823 2.16675H4.33341C4.59823 2.16675 4.8149 2.38341 4.8149 2.64823C4.8149 3.25008 4.91119 3.82786 5.08934 4.36712C5.1423 4.53564 5.10378 4.72341 4.96897 4.85823L3.90971 5.91749Z" fill="white"/>
</g>
<defs>
<clipPath id="clip0_7_333">
<rect width="13" height="13" fill="white"/>
</clipPath>
</defs>
</svg>
