<svg width="13" height="13" viewBox="0 0 13 13" fill="none" xmlns="http://www.w3.org/2000/svg">
<g clip-path="url(#clip0_7_193)">
<path d="M3.90963 5.91737C4.60296 7.27996 5.72 8.39218 7.08259 9.09033L8.14185 8.03107C8.27185 7.90107 8.46445 7.85774 8.63296 7.91551C9.17222 8.09366 9.75482 8.18996 10.3519 8.18996C10.6167 8.18996 10.8333 8.40663 10.8333 8.67144V10.3518C10.8333 10.6166 10.6167 10.8333 10.3519 10.8333C5.83074 10.8333 2.16667 7.16922 2.16667 2.64811C2.16667 2.38329 2.38333 2.16663 2.64815 2.16663H4.33333C4.59815 2.16663 4.81482 2.38329 4.81482 2.64811C4.81482 3.24996 4.91111 3.82774 5.08926 4.367C5.14222 4.53551 5.1037 4.72329 4.96889 4.85811L3.90963 5.91737Z" fill="white"/>
</g>
<defs>
<clipPath id="clip0_7_193">
<rect width="13" height="13" fill="white"/>
</clipPath>
</defs>
</svg>
