<svg width="13" height="13" viewBox="0 0 13 13" fill="none" xmlns="http://www.w3.org/2000/svg">
<g clip-path="url(#clip0_7_158)">
<path d="M3.90959 5.9174C4.60292 7.27999 5.71996 8.39221 7.08255 9.09036L8.14181 8.0311C8.27181 7.9011 8.4644 7.85777 8.63292 7.91554C9.17218 8.09369 9.75477 8.18999 10.3518 8.18999C10.6166 8.18999 10.8333 8.40666 10.8333 8.67147V10.3518C10.8333 10.6167 10.6166 10.8333 10.3518 10.8333C5.8307 10.8333 2.16663 7.16925 2.16663 2.64814C2.16663 2.38332 2.38329 2.16666 2.64811 2.16666H4.33329C4.59811 2.16666 4.81477 2.38332 4.81477 2.64814C4.81477 3.24999 4.91107 3.82777 5.08922 4.36703C5.14218 4.53555 5.10366 4.72332 4.96885 4.85814L3.90959 5.9174Z" fill="white"/>
</g>
<defs>
<clipPath id="clip0_7_158">
<rect width="13" height="13" fill="white"/>
</clipPath>
</defs>
</svg>
