<svg width="13" height="13" viewBox="0 0 13 13" fill="none" xmlns="http://www.w3.org/2000/svg">
<g clip-path="url(#clip0_7_123)">
<path d="M3.90963 5.91743C4.60296 7.28002 5.72 8.39224 7.08259 9.09039L8.14185 8.03113C8.27185 7.90113 8.46444 7.8578 8.63296 7.91558C9.17222 8.09372 9.75481 8.19002 10.3519 8.19002C10.6167 8.19002 10.8333 8.40669 10.8333 8.6715V10.3519C10.8333 10.6167 10.6167 10.8334 10.3519 10.8334C5.83074 10.8334 2.16667 7.16928 2.16667 2.64817C2.16667 2.38335 2.38333 2.16669 2.64815 2.16669H4.33333C4.59815 2.16669 4.81481 2.38335 4.81481 2.64817C4.81481 3.25002 4.91111 3.8278 5.08926 4.36706C5.14222 4.53558 5.1037 4.72335 4.96889 4.85817L3.90963 5.91743Z" fill="white"/>
</g>
<defs>
<clipPath id="clip0_7_123">
<rect width="13" height="13" fill="white"/>
</clipPath>
</defs>
</svg>
