<svg width="13" height="13" viewBox="0 0 13 13" fill="none" xmlns="http://www.w3.org/2000/svg">
<g clip-path="url(#clip0_7_298)">
<path d="M3.90959 5.91749C4.60292 7.28008 5.71996 8.3923 7.08255 9.09045L8.14181 8.03119C8.27181 7.90119 8.4644 7.85786 8.63292 7.91564C9.17218 8.09378 9.75477 8.19008 10.3518 8.19008C10.6166 8.19008 10.8333 8.40675 10.8333 8.67156V10.3519C10.8333 10.6167 10.6166 10.8334 10.3518 10.8334C5.8307 10.8334 2.16663 7.16934 2.16663 2.64823C2.16663 2.38341 2.38329 2.16675 2.64811 2.16675H4.33329C4.59811 2.16675 4.81477 2.38341 4.81477 2.64823C4.81477 3.25008 4.91107 3.82786 5.08922 4.36712C5.14218 4.53564 5.10366 4.72341 4.96885 4.85823L3.90959 5.91749Z" fill="white"/>
</g>
<defs>
<clipPath id="clip0_7_298">
<rect width="13" height="13" fill="white"/>
</clipPath>
</defs>
</svg>
