<svg width="13" height="13" viewBox="0 0 13 13" fill="none" xmlns="http://www.w3.org/2000/svg">
<g clip-path="url(#clip0_6_1756)">
<path d="M6.49998 11.9166C3.50835 11.9166 1.08331 9.4916 1.08331 6.49998C1.08331 3.50835 3.50835 1.08331 6.49998 1.08331C9.4916 1.08331 11.9166 3.50835 11.9166 6.49998C11.9166 9.4916 9.4916 11.9166 6.49998 11.9166ZM5.95831 8.12498V9.20831H7.04165V8.12498H5.95831ZM7.04165 7.23394C7.47697 7.10273 7.85068 6.81954 8.09473 6.43592C8.33878 6.05231 8.43693 5.5938 8.37129 5.1439C8.30566 4.694 8.08062 4.28263 7.73715 3.98473C7.39369 3.68682 6.95464 3.52219 6.49998 3.52081C6.06169 3.52078 5.63692 3.67256 5.29791 3.95035C4.9589 4.22814 4.72657 4.61478 4.64044 5.04452L5.70319 5.2574C5.73335 5.10651 5.80574 4.96728 5.91193 4.85592C6.01812 4.74456 6.15375 4.66565 6.30304 4.62836C6.45233 4.59107 6.60914 4.59695 6.75522 4.6453C6.90131 4.69365 7.03066 4.78248 7.12822 4.90147C7.22579 5.02046 7.28756 5.16471 7.30635 5.31744C7.32514 5.47016 7.30017 5.62508 7.23436 5.76417C7.16854 5.90326 7.06458 6.0208 6.93457 6.10312C6.80457 6.18543 6.65386 6.22914 6.49998 6.22915C6.35632 6.22915 6.21855 6.28621 6.11696 6.3878C6.01538 6.48938 5.95831 6.62715 5.95831 6.77081V7.58331H7.04165V7.23394Z" fill="#FF6767"/>
</g>
<defs>
<clipPath id="clip0_6_1756">
<rect width="13" height="13" fill="white"/>
</clipPath>
</defs>
</svg>
