<svg width="11" height="10" viewBox="0 0 11 10" fill="none" xmlns="http://www.w3.org/2000/svg">
<path fill-rule="evenodd" clip-rule="evenodd" d="M0.852934 7.94467C0.438002 8.3386 0.438002 8.97731 0.852934 9.37124C1.26787 9.76518 1.9406 9.76518 2.35554 9.37124L5.50008 6.3858L8.64463 9.37124C9.05956 9.76518 9.7323 9.76518 10.1472 9.37124C10.5622 8.97731 10.5622 8.3386 10.1472 7.94467L7.00268 4.95922L10.0613 2.05539C10.4762 1.66145 10.4762 1.02275 10.0613 0.628816C9.64633 0.234877 8.9736 0.234878 8.55866 0.628816L5.50008 3.53265L2.4415 0.628816C2.02657 0.234878 1.35383 0.234877 0.938896 0.628816C0.523964 1.02275 0.523964 1.66145 0.938896 2.05539L3.99748 4.95922L0.852934 7.94467Z" fill="#F900C0"/>
</svg>
