<svg width="14" height="14" viewBox="0 0 14 14" fill="none" xmlns="http://www.w3.org/2000/svg">
<path fill-rule="evenodd" clip-rule="evenodd" d="M0.439322 11.4169C-0.146464 12.0078 -0.146464 12.9659 0.439322 13.5568C1.02511 14.1477 1.97486 14.1477 2.56064 13.5568L7 9.07864L11.4394 13.5568C12.0251 14.1477 12.9749 14.1477 13.5607 13.5568C14.1465 12.9659 14.1465 12.0078 13.5607 11.4169L9.12132 6.93877L13.4393 2.58303C14.0251 1.99212 14.0251 1.03407 13.4393 0.443162C12.8535 -0.147746 11.9038 -0.147744 11.318 0.443162L7 4.79891L2.682 0.443162C2.09621 -0.147744 1.14646 -0.147746 0.560678 0.443162C-0.0251088 1.03407 -0.0251075 1.99212 0.560678 2.58303L4.87868 6.93877L0.439322 11.4169Z" fill="#F900C0"/>
</svg>
