<svg width="15" height="15" viewBox="0 0 15 15" fill="none" xmlns="http://www.w3.org/2000/svg">
<path fill-rule="evenodd" clip-rule="evenodd" d="M0.816049 12.0185C0.230262 12.6094 0.230262 13.5675 0.816049 14.1584C1.40184 14.7493 2.35158 14.7493 2.93737 14.1584L7.37673 9.68022L11.8161 14.1584C12.4019 14.7493 13.3516 14.7493 13.9374 14.1584C14.5232 13.5675 14.5232 12.6094 13.9374 12.0185L9.49805 7.54036L13.816 3.18461C14.4018 2.5937 14.4018 1.63565 13.816 1.04474C13.2303 0.453836 12.2805 0.453836 11.6947 1.04474L7.37673 5.40049L3.05872 1.04474C2.47294 0.453836 1.52319 0.453836 0.937404 1.04474C0.351618 1.63565 0.351619 2.5937 0.937404 3.18461L5.25541 7.54036L0.816049 12.0185Z" fill="#F900C0"/>
</svg>
