<svg width="11" height="10" viewBox="0 0 11 10" fill="none" xmlns="http://www.w3.org/2000/svg">
<path fill-rule="evenodd" clip-rule="evenodd" d="M0.852947 7.94456C0.438015 8.3385 0.438015 8.9772 0.852947 9.37113C1.26788 9.76507 1.94062 9.76507 2.35555 9.37113L5.50009 6.38569L8.64464 9.37113C9.05957 9.76507 9.73231 9.76507 10.1472 9.37113C10.5622 8.9772 10.5622 8.3385 10.1472 7.94456L7.0027 4.95911L10.0613 2.05528C10.4762 1.66134 10.4762 1.02264 10.0613 0.628705C9.64635 0.234767 8.97361 0.234768 8.55868 0.628705L5.50009 3.53254L2.44151 0.628705C2.02658 0.234768 1.35384 0.234767 0.938909 0.628705C0.523977 1.02264 0.523977 1.66134 0.938909 2.05528L3.99749 4.95911L0.852947 7.94456Z" fill="#F900C0"/>
</svg>
