<svg width="11" height="11" viewBox="0 0 11 11" fill="none" xmlns="http://www.w3.org/2000/svg">
<path fill-rule="evenodd" clip-rule="evenodd" d="M0.852873 8.62866C0.437941 9.04721 0.437941 9.72583 0.852873 10.1444C1.26781 10.563 1.94054 10.563 2.35548 10.1444L5.50002 6.97236L8.64457 10.1444C9.0595 10.563 9.73223 10.563 10.1472 10.1444C10.5621 9.72583 10.5621 9.04721 10.1472 8.62866L7.00262 5.45662L10.0612 2.3713C10.4761 1.95274 10.4761 1.27412 10.0612 0.855563C9.64627 0.437004 8.97354 0.437004 8.55861 0.855563L5.50002 3.94088L2.44144 0.855563C2.0265 0.437004 1.35377 0.437004 0.938834 0.855563C0.523902 1.27412 0.523902 1.95274 0.938834 2.3713L3.99742 5.45662L0.852873 8.62866Z" fill="white"/>
</svg>
