<svg width="15" height="15" viewBox="0 0 15 15" fill="none" xmlns="http://www.w3.org/2000/svg">
<path fill-rule="evenodd" clip-rule="evenodd" d="M0.816031 12.0185C0.230245 12.6094 0.230245 13.5675 0.816031 14.1584C1.40182 14.7493 2.35157 14.7493 2.93735 14.1584L7.37671 9.6802L11.8161 14.1584C12.4019 14.7493 13.3516 14.7493 13.9374 14.1584C14.5232 13.5675 14.5232 12.6094 13.9374 12.0185L9.49803 7.54034L13.816 3.18459C14.4018 2.59368 14.4018 1.63563 13.816 1.04472C13.2302 0.453817 12.2805 0.453818 11.6947 1.04472L7.37671 5.40047L3.05871 1.04472C2.47292 0.453818 1.52317 0.453817 0.937387 1.04472C0.3516 1.63563 0.351602 2.59368 0.937387 3.18459L5.25539 7.54034L0.816031 12.0185Z" fill="#F900C0"/>
</svg>
