<svg width="18" height="21" viewBox="0 0 18 21" fill="none" xmlns="http://www.w3.org/2000/svg">
<path d="M17.9985 15.0075C17.9985 12.7226 18.0002 10.4372 17.9973 8.15233C17.9962 7.15702 17.4001 6.33394 16.4542 6.00327C16.1524 5.89783 15.839 5.86471 15.5205 5.86471C15.0929 5.86471 14.6652 5.86471 14.1938 5.86471C14.259 5.7935 14.2901 5.75872 14.3219 5.72449C14.9636 5.02949 15.2475 4.22076 15.1875 3.295C15.1142 2.16278 14.3652 1.19507 13.2837 0.912432C12.481 0.70266 11.6846 0.775528 10.9182 1.08963C10.0607 1.44073 9.46395 2.05679 9.00286 2.84896C8.97227 2.80093 8.95727 2.7794 8.94399 2.75677C8.16377 1.38994 6.96285 0.723637 5.332 0.818034C4.31402 0.877102 3.54476 1.35958 3.12926 2.24835C2.60815 3.36401 2.74319 4.44544 3.48186 5.44958C3.5817 5.58538 3.69654 5.71124 3.82003 5.85974C3.34047 5.85974 2.89438 5.85974 2.44772 5.85974C1.00846 5.86195 0.000865632 6.82193 0.000865632 8.19539C-0.000288544 11.4921 -0.000288544 14.7889 0.000865632 18.0861C0.000865632 19.4535 0.999227 20.403 2.43675 20.4036C6.81281 20.4047 11.1889 20.4041 15.5649 20.4036C15.7161 20.4036 15.8696 20.4036 16.0174 20.3798C17.1952 20.1888 17.9916 19.2923 17.9973 18.1463C18.0025 17.1002 17.9985 16.0541 17.9985 15.008V15.0075ZM4.19514 3.34634C4.25516 2.59392 4.75665 2.15009 5.54726 2.13021C6.55081 2.10482 7.27102 2.5332 7.72692 3.3756C8.05586 3.98338 8.18916 4.64306 8.26245 5.31599C8.27803 5.45952 8.28496 5.60415 8.30343 5.74768C8.31497 5.83876 8.28381 5.86857 8.18743 5.86581C7.97853 5.85974 7.76962 5.86416 7.51109 5.86416C6.80819 5.87575 6.07183 5.79405 5.41626 5.41536C4.60891 4.94889 4.11954 4.29252 4.19514 3.34634ZM8.30689 13.1283C8.29189 13.1283 8.27688 13.1283 8.26188 13.1283C8.26188 15.0417 8.25957 16.9556 8.26592 18.8689C8.26592 19.0329 8.23591 19.0875 8.04778 19.0864C6.1734 19.0787 4.29844 19.082 2.42406 19.0815C1.76156 19.0815 1.3853 18.7177 1.3853 18.079C1.3853 14.7889 1.3853 11.4982 1.3853 8.20808C1.3853 7.55448 1.77022 7.18627 2.45753 7.18627C4.33941 7.18517 6.22129 7.18848 8.10318 7.18186C8.27919 7.18131 8.31151 7.23154 8.31093 7.38777C8.30516 9.30111 8.30747 11.215 8.30747 13.1283H8.30689ZM10.6158 2.88043C11.2016 2.21743 11.9731 2.00987 12.8532 2.19204C13.3679 2.29858 13.7286 2.7369 13.8025 3.29721C13.9231 4.20751 13.3755 5.08524 12.4134 5.52907C11.7613 5.82993 11.0654 5.89452 10.355 5.89121C10.1749 5.89121 9.99487 5.88955 9.81482 5.89176C9.74326 5.89286 9.68786 5.89066 9.6919 5.79736C9.73576 4.7485 9.87426 3.72007 10.6158 2.88043ZM15.547 19.082C13.6727 19.082 11.7977 19.0798 9.92331 19.0864C9.74211 19.087 9.68613 19.0572 9.68671 18.8684C9.69594 16.955 9.69248 15.0411 9.69248 13.1278H9.73749C9.73749 11.2211 9.74038 9.31436 9.73287 7.40764C9.7323 7.22712 9.775 7.18131 9.96775 7.18186C11.8208 7.18959 13.6738 7.18627 15.5268 7.18683C16.2303 7.18683 16.6141 7.54951 16.6141 8.21471C16.6141 11.4982 16.6141 14.7817 16.6141 18.0652C16.6141 18.7282 16.2424 19.082 15.547 19.0826V19.082Z" fill="white"/>
</svg>
