<svg width="18" height="22" viewBox="0 0 18 22" fill="none" xmlns="http://www.w3.org/2000/svg">
<path d="M8.87632 0.368896C5.74089 0.368896 3.18466 2.75653 3.18466 5.68336V8.33615H3.0814C1.58316 8.33615 0.376709 9.46176 0.376709 10.8602V19.1547C0.376709 20.5532 1.58316 21.6792 3.0814 21.6792H14.672C16.1703 21.6792 17.3767 20.5532 17.3767 19.1547V10.8602C17.3767 9.46176 16.1705 8.33615 14.672 8.33615H14.5703V5.68336C14.5703 2.75653 12.012 0.368896 8.87632 0.368896ZM8.87632 2.31276C10.8955 2.31276 12.4877 3.79895 12.4877 5.6836V8.33639H5.26467V5.6836C5.26467 3.79919 6.85718 2.31276 8.87632 2.31276V2.31276ZM8.87632 11.5535C9.93457 11.5538 10.7922 12.3545 10.7922 13.3425C10.7917 14.0738 10.3145 14.7314 9.58679 15.0025V17.6352C9.58679 18.0027 9.27008 18.2983 8.87632 18.2983C8.48256 18.2983 8.1656 18.0027 8.1656 17.6352V15.0016C7.43819 14.7304 6.96069 14.0735 6.95992 13.3425C6.95992 12.8681 7.16181 12.413 7.52115 12.0774C7.88049 11.742 8.36801 11.5535 8.87632 11.5535V11.5535Z" fill="#464646"/>
</svg>
