<svg width="17" height="22" viewBox="0 0 17 22" fill="none" xmlns="http://www.w3.org/2000/svg">
<path d="M8.49961 0C5.36418 0 2.80795 2.38764 2.80795 5.31446V7.96726H2.70469C1.20645 7.96726 0 9.09286 0 10.4913V18.7858C0 20.1843 1.20645 21.3103 2.70469 21.3103H14.2953C15.7935 21.3103 17 20.1843 17 18.7858V10.4913C17 9.09286 15.7938 7.96726 14.2953 7.96726H14.1936V5.31446C14.1936 2.38764 11.6353 0 8.49961 0ZM8.49961 1.94386C10.5188 1.94386 12.111 3.43005 12.111 5.3147V7.96749H4.88797V5.3147C4.88797 3.43029 6.48047 1.94386 8.49961 1.94386V1.94386ZM8.49961 11.1847C9.55786 11.1849 10.4155 11.9856 10.4155 12.9736C10.415 13.7049 9.93775 14.3625 9.21008 14.6336V17.2663C9.21008 17.6338 8.89337 17.9294 8.49961 17.9294C8.10585 17.9294 7.78889 17.6338 7.78889 17.2663V14.6327C7.06148 14.3615 6.58398 13.7046 6.58321 12.9736C6.58321 12.4992 6.7851 12.0441 7.14444 11.7085C7.50378 11.3731 7.9913 11.1847 8.49961 11.1847V11.1847Z" fill="#464646"/>
</svg>
